<?xml version="1.0" encoding="UTF-8" standalone="no"?>
<!DOCTYPE svg PUBLIC "-//W3C//DTD SVG 1.1//EN" "http://www.w3.org/Graphics/SVG/1.1/DTD/svg11.dtd">
<svg width="100%" height="100%" viewBox="0 0 229 182" version="1.1" xmlns="http://www.w3.org/2000/svg" xmlns:xlink="http://www.w3.org/1999/xlink" xml:space="preserve" xmlns:serif="http://www.serif.com/" style="fill-rule:evenodd;clip-rule:evenodd;stroke-linejoin:round;stroke-miterlimit:2;">
    <g id="DCP_bare" transform="matrix(1,0,0,1,0.0100404,0.14046)">
        <g id="path22" transform="matrix(0.133333,0,0,-0.133333,-0.0005208,180.623)">
            <path d="M0.004,3.449L0.004,91.719L1137.88,92.262L1208.14,29.289L1278.36,92.262L1722.44,91.719L1722.4,3.449L0.004,3.449" style="fill:rgb(204,25,58);fill-rule:nonzero;"/>
        </g>
        <g id="path24" transform="matrix(0.133333,0,0,-0.133333,-0.0005208,180.623)">
            <path d="M955.965,397.078C786.285,397.078 648.266,535.137 648.266,704.816C648.266,874.496 786.285,1012.52 955.965,1012.52L1171.49,1012.52C1130.55,971.426 1103.58,920.695 1094.65,902.566L956.004,903.152C846.598,903.152 757.629,814.184 757.629,704.816C757.629,595.418 846.598,506.441 955.965,506.441L1057.3,506.441L1057.3,397.078L955.965,397.078" style="fill:rgb(42,55,65);fill-rule:nonzero;"/>
        </g>
        <g id="path26" transform="matrix(0.133333,0,0,-0.133333,-0.0005208,180.623)">
            <path d="M1424.25,906.313C1334.93,906.313 1262.26,833.637 1262.26,744.273L1262.26,663.879C1262.26,574.52 1334.93,501.844 1424.25,501.844L1451.71,501.844C1541.03,501.844 1613.7,574.52 1613.7,663.879L1613.7,744.273C1613.7,833.637 1541.03,906.313 1451.71,906.313L1424.25,906.313ZM1154.85,142.789L1154.85,744.273C1154.85,892.859 1275.71,1013.72 1424.25,1013.72L1451.71,1013.72C1600.25,1013.72 1721.12,892.859 1721.12,744.273L1721.12,663.879C1721.12,515.332 1600.25,394.469 1451.71,394.469L1424.25,394.469C1373.1,394.469 1323.12,409.168 1279.65,436.961L1262.26,448.074L1262.26,142.789L1208.53,92.262L1154.85,142.789" style="fill:rgb(42,55,65);fill-rule:nonzero;"/>
        </g>
        <g id="path28" transform="matrix(0.133333,0,0,-0.133333,-0.0005208,180.623)">
            <path d="M270.738,904.559C181.375,904.559 108.699,831.883 108.699,742.516L108.699,662.09C108.699,572.762 181.375,500.086 270.738,500.086L298.148,500.086C387.508,500.086 460.184,572.762 460.184,662.09L460.184,742.516C460.184,831.883 387.508,904.559 298.148,904.559L270.738,904.559ZM270.738,392.676C122.191,392.676 1.324,513.543 1.324,662.09L1.324,742.516C1.324,891.066 122.191,1011.93 270.738,1011.93L298.148,1011.93C349.34,1011.93 399.324,997.234 442.797,969.43L460.184,958.324L460.184,1257.17L567.563,1257.17L567.563,662.09C567.563,513.543 446.691,392.676 298.148,392.676L270.738,392.676" style="fill:rgb(42,55,65);fill-rule:nonzero;"/>
        </g>
    </g>
</svg>
