<?xml version="1.0" encoding="UTF-8" standalone="no"?>
<!DOCTYPE svg PUBLIC "-//W3C//DTD SVG 1.1//EN" "http://www.w3.org/Graphics/SVG/1.1/DTD/svg11.dtd">
<svg width="100%" height="100%" viewBox="0 0 605 145" version="1.1" xmlns="http://www.w3.org/2000/svg" xmlns:xlink="http://www.w3.org/1999/xlink" xml:space="preserve" xmlns:serif="http://www.serif.com/" style="fill-rule:evenodd;clip-rule:evenodd;stroke-linejoin:round;stroke-miterlimit:2;">
    <g transform="matrix(1,0,0,1,-23.9739,-70.3408)">
        <g transform="matrix(1,0,0,1,297.556,118.438)">
            <path d="M0,-3.774L11.207,-3.774L11.207,-0.693L0,-0.693L0,11.593L-3.235,11.593L-3.235,-15.367L11.978,-15.367L11.978,-12.286L0,-12.286L0,-3.774Z" style="fill:rgb(51,63,72);fill-rule:nonzero;"/>
        </g>
        <g transform="matrix(1,0,0,1,314.46,119.056)">
            <path d="M0,4.621L0,-6.817L3.235,-6.817L3.235,4.081C3.235,7.124 5.122,8.434 7.51,8.434C10.514,8.434 11.939,5.507 11.939,5.507L11.939,-6.817L15.174,-6.817L15.174,10.975L12.17,10.975L12.17,8.241C12.17,8.241 10.553,11.438 6.701,11.438C3.158,11.438 0,9.011 0,4.621" style="fill:rgb(51,63,72);fill-rule:nonzero;"/>
        </g>
        <g transform="matrix(1,0,0,1,350.429,123.214)">
            <path d="M0,-4.621L0,6.817L-3.234,6.817L-3.234,-4.082C-3.234,-7.124 -5.122,-8.434 -7.51,-8.434C-10.398,-8.434 -11.938,-5.43 -11.938,-5.43L-11.938,6.817L-15.174,6.817L-15.174,-10.975L-12.17,-10.975L-12.17,-8.472C-12.17,-8.472 -10.552,-11.438 -6.701,-11.438C-3.157,-11.438 0,-9.012 0,-4.621" style="fill:rgb(51,63,72);fill-rule:nonzero;"/>
        </g>
        <g transform="matrix(1,0,0,1,371.263,115.204)">
            <path d="M0,11.862C0,11.862 -2.581,15.29 -7.279,15.29C-12.517,15.29 -16.445,11.169 -16.445,5.931C-16.445,0.732 -12.517,-3.428 -7.279,-3.428C-2.734,-3.428 -0.192,-0.231 -0.192,-0.231L-2.388,1.733C-2.388,1.733 -4.121,-0.424 -7.279,-0.424C-10.861,-0.424 -13.21,2.426 -13.21,5.931C-13.21,9.435 -10.861,12.285 -7.279,12.285C-3.813,12.285 -2.08,9.744 -2.08,9.744L0,11.862Z" style="fill:rgb(51,63,72);fill-rule:nonzero;"/>
        </g>
        <g transform="matrix(1,0,0,1,373.57,125.062)">
            <path d="M0,-12.824L3.467,-12.824L3.467,-18.255L6.702,-18.255L6.702,-12.824L12.248,-12.824L12.248,-9.897L6.702,-9.897L6.702,-0.307C6.702,1.426 7.549,2.427 9.282,2.427C10.283,2.427 11.323,1.696 11.323,1.696L12.518,4.353C10.977,5.2 9.859,5.431 8.82,5.431C6.278,5.431 3.467,3.775 3.467,-0.153L3.467,-9.897L0,-9.897L0,-12.824Z" style="fill:rgb(51,63,72);fill-rule:nonzero;"/>
        </g>
        <g transform="matrix(1,0,0,1,0,-49.091)">
            <path d="M390.862,161.329L394.096,161.329L394.096,179.122L390.862,179.122L390.862,161.329ZM392.479,153.434C393.674,153.434 394.675,154.435 394.675,155.629C394.675,156.823 393.674,157.824 392.479,157.824C391.285,157.824 390.284,156.823 390.284,155.629C390.284,154.435 391.285,153.434 392.479,153.434" style="fill:rgb(51,63,72);fill-rule:nonzero;"/>
        </g>
        <g transform="matrix(1,0,0,1,414.16,121.135)">
            <path d="M0,0C0,-3.505 -2.349,-6.355 -5.931,-6.355C-9.513,-6.355 -11.861,-3.505 -11.861,0C-11.861,3.504 -9.513,6.354 -5.931,6.354C-2.349,6.354 0,3.504 0,0M3.235,0C3.235,5.238 -0.692,9.359 -5.931,9.359C-11.168,9.359 -15.097,5.238 -15.097,0C-15.097,-5.238 -11.168,-9.359 -5.931,-9.359C-0.692,-9.359 3.235,-5.238 3.235,0" style="fill:rgb(51,63,72);fill-rule:nonzero;"/>
        </g>
        <g transform="matrix(1,0,0,1,436.958,123.214)">
            <path d="M0,-4.621L0,6.817L-3.234,6.817L-3.234,-4.082C-3.234,-7.124 -5.122,-8.434 -7.51,-8.434C-10.398,-8.434 -11.938,-5.43 -11.938,-5.43L-11.938,6.817L-15.174,6.817L-15.174,-10.975L-12.17,-10.975L-12.17,-8.472C-12.17,-8.472 -10.552,-11.438 -6.701,-11.438C-3.157,-11.438 0,-9.012 0,-4.621" style="fill:rgb(51,63,72);fill-rule:nonzero;"/>
        </g>
        <g transform="matrix(1,0,0,1,454.132,117.322)">
            <path d="M0,7.626L0,5.123C0,5.123 -1.771,3.852 -4.66,3.852C-7.433,3.852 -9.166,5.238 -9.166,7.086C-9.166,9.397 -7.086,10.322 -5.083,10.322C-1.926,10.322 0,7.626 0,7.626M3.235,1.001L3.235,12.709L0.27,12.709L0.27,10.129C0.27,10.129 -1.732,13.172 -5.776,13.172C-8.974,13.172 -12.401,10.938 -12.401,7.086C-12.401,3.62 -9.358,1.155 -5.354,1.155C-2.079,1.155 0,2.619 0,2.619L0,1.656C0,-2.041 -3.081,-2.542 -4.506,-2.542C-7.202,-2.542 -9.82,-1.04 -9.82,-1.04L-11.169,-3.736C-11.169,-3.736 -8.396,-5.546 -4.506,-5.546C0.732,-5.546 3.235,-2.311 3.235,1.001" style="fill:rgb(51,63,72);fill-rule:nonzero;"/>
        </g>
        <g transform="matrix(1,0,0,1,0,-52.519)">
            <rect x="463.682" y="153.434" width="3.235" height="29.116" style="fill:rgb(51,63,72);"/>
        </g>
        <g transform="matrix(1,0,0,1,488.636,130.031)">
            <path d="M0,-26.959L9.281,-11.9L18.524,-26.959L21.644,-26.959L21.644,0L18.409,0L18.409,-21.105L9.204,-6.123L0,-21.066L0,0L-3.235,0L-3.235,-26.959L0,-26.959Z" style="fill:rgb(51,63,72);fill-rule:nonzero;"/>
        </g>
        <g transform="matrix(1,0,0,1,530.457,121.135)">
            <path d="M0,0C0,-3.505 -2.349,-6.355 -5.931,-6.355C-9.513,-6.355 -11.861,-3.505 -11.861,0C-11.861,3.504 -9.513,6.354 -5.931,6.354C-2.349,6.354 0,3.504 0,0M3.235,0C3.235,5.238 -0.692,9.359 -5.931,9.359C-11.168,9.359 -15.097,5.238 -15.097,0C-15.097,-5.238 -11.168,-9.359 -5.931,-9.359C-0.692,-9.359 3.235,-5.238 3.235,0" style="fill:rgb(51,63,72);fill-rule:nonzero;"/>
        </g>
        <g transform="matrix(1,0,0,1,553.294,115.204)">
            <path d="M0,11.862C0,11.862 -2.581,15.29 -7.279,15.29C-12.517,15.29 -16.445,11.169 -16.445,5.931C-16.445,0.732 -12.517,-3.428 -7.279,-3.428C-2.734,-3.428 -0.192,-0.231 -0.192,-0.231L-2.388,1.733C-2.388,1.733 -4.121,-0.424 -7.279,-0.424C-10.861,-0.424 -13.21,2.426 -13.21,5.931C-13.21,9.435 -10.861,12.285 -7.279,12.285C-3.813,12.285 -2.08,9.744 -2.08,9.744L0,11.862Z" style="fill:rgb(51,63,72);fill-rule:nonzero;"/>
        </g>
        <g transform="matrix(1,0,0,1,561.071,109.542)">
            <path d="M0,11.862L0,20.489L-3.235,20.489L-3.235,-8.627L0,-8.627L0,10.591L7.625,2.696L11.861,2.696L3.543,11.092L12.555,20.489L8.049,20.489L0,11.862Z" style="fill:rgb(51,63,72);fill-rule:nonzero;"/>
        </g>
        <g transform="matrix(1,0,0,1,0,-42.198)">
            <rect x="575.665" y="161.291" width="10.283" height="3.081" style="fill:rgb(51,63,72);"/>
        </g>
        <g transform="matrix(1,0,0,1,590.375,119.056)">
            <path d="M0,4.621L0,-6.817L3.235,-6.817L3.235,4.081C3.235,7.124 5.122,8.434 7.51,8.434C10.514,8.434 11.939,5.507 11.939,5.507L11.939,-6.817L15.174,-6.817L15.174,10.975L12.17,10.975L12.17,8.241C12.17,8.241 10.553,11.438 6.701,11.438C3.158,11.438 0,9.011 0,4.621" style="fill:rgb(51,63,72);fill-rule:nonzero;"/>
        </g>
        <g transform="matrix(1,0,0,1,614.405,126.218)">
            <path d="M0,-1.771C0,-1.771 1.694,1.271 5.237,1.271C8.857,1.271 11.13,-1.579 11.13,-5.083C11.13,-8.588 8.857,-11.438 5.237,-11.438C1.694,-11.438 0,-8.395 0,-8.395L0,-1.771ZM-0.27,-13.979L-0.27,-11.399C-0.27,-11.399 1.502,-14.442 5.738,-14.442C10.553,-14.442 14.365,-10.321 14.365,-5.083C14.365,0.155 10.553,4.276 5.738,4.276C2.465,4.276 0.616,2.427 0,1.618L0,12.671L-3.235,12.671L-3.235,-13.979L-0.27,-13.979Z" style="fill:rgb(51,63,72);fill-rule:nonzero;"/>
        </g>
        <g transform="matrix(1,0,0,1,0,25.288)">
            <rect x="294.859" y="115.609" width="3.235" height="26.959" style="fill:rgb(51,63,72);"/>
        </g>
        <g transform="matrix(1,0,0,1,320.122,161.039)">
            <path d="M0,-4.622L0,6.816L-3.234,6.816L-3.234,-4.083C-3.234,-7.125 -5.122,-8.435 -7.51,-8.435C-10.398,-8.435 -11.938,-5.431 -11.938,-5.431L-11.938,6.816L-15.174,6.816L-15.174,-10.976L-12.17,-10.976L-12.17,-8.474C-12.17,-8.474 -10.552,-11.438 -6.701,-11.438C-3.157,-11.438 0,-9.013 0,-4.622" style="fill:rgb(51,63,72);fill-rule:nonzero;"/>
        </g>
        <g transform="matrix(1,0,0,1,324.203,162.887)">
            <path d="M0,-12.824L3.466,-12.824L3.466,-18.255L6.701,-18.255L6.701,-12.824L12.247,-12.824L12.247,-9.897L6.701,-9.897L6.701,-0.307C6.701,1.426 7.548,2.427 9.281,2.427C10.282,2.427 11.322,1.696 11.322,1.696L12.517,4.353C10.976,5.2 9.859,5.431 8.819,5.431C6.277,5.431 3.466,3.775 3.466,-0.153L3.466,-9.897L0,-9.897L0,-12.824Z" style="fill:rgb(51,63,72);fill-rule:nonzero;"/>
        </g>
        <g transform="matrix(1,0,0,1,354.087,160.5)">
            <path d="M0,-3.082C-0.116,-5.084 -1.926,-7.895 -5.508,-7.895C-9.359,-7.895 -10.938,-4.931 -11.169,-3.082L0,-3.082ZM3.157,-1.426C3.157,-1.079 3.157,-0.81 3.119,-0.386L-11.246,-0.386C-11.054,2.311 -8.474,4.814 -5.123,4.814C-1.618,4.814 0.23,2.194 0.23,2.194L2.271,4.313C2.271,4.313 -0.424,7.817 -5.123,7.817C-10.515,7.817 -14.404,3.735 -14.404,-1.541C-14.404,-6.74 -10.861,-10.899 -5.508,-10.899C-0.54,-10.899 3.157,-7.164 3.157,-1.426" style="fill:rgb(51,63,72);fill-rule:nonzero;"/>
        </g>
        <g transform="matrix(1,0,0,1,372.185,167.394)">
            <path d="M0,-17.331L-1.194,-14.404C-1.194,-14.404 -1.888,-14.789 -3.235,-14.789C-6.047,-14.789 -7.317,-11.785 -7.317,-11.785L-7.317,0.462L-10.553,0.462L-10.553,-17.331L-7.549,-17.331L-7.549,-14.597C-7.549,-14.597 -5.97,-17.793 -2.58,-17.793C-1.117,-17.793 0,-17.331 0,-17.331" style="fill:rgb(51,63,72);fill-rule:nonzero;"/>
        </g>
        <g transform="matrix(1,0,0,1,373.724,156.071)">
            <path d="M0,-6.008L3.697,-6.008L3.697,-12.132C3.697,-15.906 6.624,-17.793 9.166,-17.793C10.206,-17.793 11.361,-17.601 12.901,-16.753L11.708,-14.096C11.708,-14.096 10.629,-14.789 9.628,-14.789C7.895,-14.789 6.932,-13.672 6.932,-11.94L6.932,-6.008L11.554,-6.008L11.554,-3.081L6.932,-3.081L6.932,11.785L3.697,11.785L3.697,-3.081L0,-3.081L0,-6.008Z" style="fill:rgb(51,63,72);fill-rule:nonzero;"/>
        </g>
        <g transform="matrix(1,0,0,1,400.566,155.147)">
            <path d="M0,7.625L0,5.122C0,5.122 -1.771,3.851 -4.66,3.851C-7.433,3.851 -9.166,5.237 -9.166,7.086C-9.166,9.396 -7.086,10.321 -5.084,10.321C-1.926,10.321 0,7.625 0,7.625M3.235,1.001L3.235,12.709L0.27,12.709L0.27,10.129C0.27,10.129 -1.732,13.171 -5.776,13.171C-8.974,13.171 -12.401,10.938 -12.401,7.086C-12.401,3.62 -9.358,1.155 -5.354,1.155C-2.079,1.155 0,2.618 0,2.618L0,1.655C0,-2.042 -3.081,-2.542 -4.506,-2.542C-7.202,-2.542 -9.82,-1.04 -9.82,-1.04L-11.169,-3.736C-11.169,-3.736 -8.396,-5.546 -4.506,-5.546C0.732,-5.546 3.235,-2.312 3.235,1.001" style="fill:rgb(51,63,72);fill-rule:nonzero;"/>
        </g>
        <g transform="matrix(1,0,0,1,424.636,153.029)">
            <path d="M0,11.861C0,11.861 -2.581,15.289 -7.279,15.289C-12.517,15.289 -16.445,11.168 -16.445,5.93C-16.445,0.731 -12.517,-3.428 -7.279,-3.428C-2.734,-3.428 -0.192,-0.232 -0.192,-0.232L-2.388,1.732C-2.388,1.732 -4.121,-0.424 -7.279,-0.424C-10.861,-0.424 -13.21,2.425 -13.21,5.93C-13.21,9.435 -10.861,12.285 -7.279,12.285C-3.813,12.285 -2.08,9.743 -2.08,9.743L0,11.861Z" style="fill:rgb(51,63,72);fill-rule:nonzero;"/>
        </g>
        <g transform="matrix(1,0,0,1,441.656,160.5)">
            <path d="M0,-3.082C-0.116,-5.084 -1.926,-7.895 -5.508,-7.895C-9.359,-7.895 -10.938,-4.931 -11.169,-3.082L0,-3.082ZM3.158,-1.426C3.158,-1.079 3.158,-0.81 3.119,-0.386L-11.246,-0.386C-11.054,2.311 -8.474,4.814 -5.123,4.814C-1.618,4.814 0.23,2.194 0.23,2.194L2.271,4.313C2.271,4.313 -0.424,7.817 -5.123,7.817C-10.515,7.817 -14.404,3.735 -14.404,-1.541C-14.404,-6.74 -10.861,-10.899 -5.508,-10.899C-0.539,-10.899 3.158,-7.164 3.158,-1.426" style="fill:rgb(51,63,72);fill-rule:nonzero;"/>
        </g>
        <g transform="matrix(1,0,0,1,458.983,156.071)">
            <path d="M0,-6.008L3.697,-6.008L3.697,-12.132C3.697,-15.906 6.624,-17.793 9.166,-17.793C10.206,-17.793 11.361,-17.601 12.901,-16.753L11.708,-14.096C11.708,-14.096 10.63,-14.789 9.628,-14.789C7.895,-14.789 6.933,-13.672 6.933,-11.94L6.933,-6.008L11.554,-6.008L11.554,-3.081L6.933,-3.081L6.933,11.785L3.697,11.785L3.697,-3.081L0,-3.081L0,-6.008Z" style="fill:rgb(51,63,72);fill-rule:nonzero;"/>
        </g>
        <g transform="matrix(1,0,0,1,487.982,158.959)">
            <path d="M0,0C0,-3.505 -2.35,-6.354 -5.932,-6.354C-9.514,-6.354 -11.862,-3.505 -11.862,0C-11.862,3.505 -9.514,6.354 -5.932,6.354C-2.35,6.354 0,3.505 0,0M3.234,0C3.234,5.237 -0.693,9.358 -5.932,9.358C-11.169,9.358 -15.098,5.237 -15.098,0C-15.098,-5.238 -11.169,-9.358 -5.932,-9.358C-0.693,-9.358 3.234,-5.238 3.234,0" style="fill:rgb(51,63,72);fill-rule:nonzero;"/>
        </g>
        <g transform="matrix(1,0,0,1,506.158,167.394)">
            <path d="M0,-17.331L-1.194,-14.404C-1.194,-14.404 -1.888,-14.789 -3.235,-14.789C-6.047,-14.789 -7.317,-11.785 -7.317,-11.785L-7.317,0.462L-10.553,0.462L-10.553,-17.331L-7.549,-17.331L-7.549,-14.597C-7.549,-14.597 -5.97,-17.793 -2.58,-17.793C-1.117,-17.793 0,-17.331 0,-17.331" style="fill:rgb(51,63,72);fill-rule:nonzero;"/>
        </g>
        <g transform="matrix(1,0,0,1,306.799,198.325)">
            <path d="M0,-3.082C-0.116,-5.084 -1.926,-7.895 -5.508,-7.895C-9.359,-7.895 -10.938,-4.931 -11.169,-3.082L0,-3.082ZM3.158,-1.426C3.158,-1.079 3.158,-0.81 3.119,-0.386L-11.246,-0.386C-11.054,2.311 -8.474,4.814 -5.123,4.814C-1.618,4.814 0.23,2.194 0.23,2.194L2.271,4.313C2.271,4.313 -0.424,7.817 -5.123,7.817C-10.515,7.817 -14.404,3.735 -14.404,-1.541C-14.404,-6.74 -10.861,-10.899 -5.508,-10.899C-0.539,-10.899 3.158,-7.164 3.158,-1.426" style="fill:rgb(51,63,72);fill-rule:nonzero;"/>
        </g>
        <g transform="matrix(1,0,0,1,339.301,198.864)">
            <path d="M0,-4.622L0,6.816L-3.234,6.816L-3.234,-4.121C-3.234,-7.01 -4.736,-8.435 -7.048,-8.435C-9.705,-8.435 -10.86,-5.585 -10.86,-5.585L-10.86,6.816L-14.096,6.816L-14.096,-4.121C-14.096,-7.01 -15.598,-8.435 -17.908,-8.435C-20.527,-8.435 -21.721,-5.585 -21.721,-5.585L-21.721,6.816L-24.956,6.816L-24.956,-10.976L-21.952,-10.976L-21.952,-8.357C-21.952,-8.357 -20.643,-11.438 -17.022,-11.438C-12.594,-11.438 -11.477,-8.127 -11.477,-8.127C-11.477,-8.127 -10.052,-11.438 -6.162,-11.438C-2.465,-11.438 0,-9.013 0,-4.622" style="fill:rgb(51,63,72);fill-rule:nonzero;"/>
        </g>
        <g transform="matrix(1,0,0,1,348.85,182.649)">
            <path d="M0,17.408C0,17.408 1.694,20.489 5.237,20.489C8.857,20.489 11.13,17.639 11.13,14.135C11.13,10.63 8.78,7.78 5.237,7.78C1.694,7.78 0,10.861 0,10.861L0,17.408ZM14.365,14.135C14.365,19.372 10.553,23.493 5.738,23.493C1.463,23.493 -0.27,20.451 -0.27,20.451L-0.27,23.031L-3.235,23.031L-3.235,-6.085L0,-6.085L0,7.433C0,7.433 1.81,4.776 5.738,4.776C10.553,4.776 14.365,8.896 14.365,14.135" style="fill:rgb(51,63,72);fill-rule:nonzero;"/>
        </g>
        <g transform="matrix(1,0,0,1,380.774,198.325)">
            <path d="M0,-3.082C-0.116,-5.084 -1.926,-7.895 -5.508,-7.895C-9.359,-7.895 -10.938,-4.931 -11.169,-3.082L0,-3.082ZM3.157,-1.426C3.157,-1.079 3.157,-0.81 3.119,-0.386L-11.246,-0.386C-11.054,2.311 -8.474,4.814 -5.123,4.814C-1.618,4.814 0.23,2.194 0.23,2.194L2.271,4.313C2.271,4.313 -0.424,7.817 -5.123,7.817C-10.515,7.817 -14.404,3.735 -14.404,-1.541C-14.404,-6.74 -10.861,-10.899 -5.508,-10.899C-0.54,-10.899 3.157,-7.164 3.157,-1.426" style="fill:rgb(51,63,72);fill-rule:nonzero;"/>
        </g>
        <g transform="matrix(1,0,0,1,401.453,189.196)">
            <path d="M0,4.314C0,4.314 -1.694,1.233 -5.237,1.233C-8.781,1.233 -11.13,4.083 -11.13,7.587C-11.13,11.092 -8.857,13.942 -5.237,13.942C-1.694,13.942 0,10.861 0,10.861L0,4.314ZM0,0.886L0,-12.632L3.235,-12.632L3.235,16.484L0.27,16.484L0.27,13.904C0.27,13.904 -1.463,16.946 -5.738,16.946C-10.553,16.946 -14.365,12.825 -14.365,7.587C-14.365,2.349 -10.553,-1.771 -5.738,-1.771C-1.81,-1.771 0,0.886 0,0.886" style="fill:rgb(51,63,72);fill-rule:nonzero;"/>
        </g>
        <g transform="matrix(1,0,0,1,424.135,189.196)">
            <path d="M0,4.314C0,4.314 -1.694,1.233 -5.237,1.233C-8.781,1.233 -11.13,4.083 -11.13,7.587C-11.13,11.092 -8.857,13.942 -5.237,13.942C-1.694,13.942 0,10.861 0,10.861L0,4.314ZM0,0.886L0,-12.632L3.235,-12.632L3.235,16.484L0.27,16.484L0.27,13.904C0.27,13.904 -1.463,16.946 -5.738,16.946C-10.553,16.946 -14.365,12.825 -14.365,7.587C-14.365,2.349 -10.553,-1.771 -5.738,-1.771C-1.81,-1.771 0,0.886 0,0.886" style="fill:rgb(51,63,72);fill-rule:nonzero;"/>
        </g>
        <g transform="matrix(1,0,0,1,446.856,198.325)">
            <path d="M0,-3.082C-0.116,-5.084 -1.926,-7.895 -5.508,-7.895C-9.359,-7.895 -10.938,-4.931 -11.169,-3.082L0,-3.082ZM3.157,-1.426C3.157,-1.079 3.157,-0.81 3.119,-0.386L-11.246,-0.386C-11.054,2.311 -8.474,4.814 -5.123,4.814C-1.618,4.814 0.23,2.194 0.23,2.194L2.271,4.313C2.271,4.313 -0.424,7.817 -5.123,7.817C-10.515,7.817 -14.404,3.735 -14.404,-1.541C-14.404,-6.74 -10.861,-10.899 -5.508,-10.899C-0.54,-10.899 3.157,-7.164 3.157,-1.426" style="fill:rgb(51,63,72);fill-rule:nonzero;"/>
        </g>
        <g transform="matrix(1,0,0,1,467.535,189.196)">
            <path d="M0,4.314C0,4.314 -1.694,1.233 -5.237,1.233C-8.781,1.233 -11.13,4.083 -11.13,7.587C-11.13,11.092 -8.857,13.942 -5.237,13.942C-1.694,13.942 0,10.861 0,10.861L0,4.314ZM0,0.886L0,-12.632L3.235,-12.632L3.235,16.484L0.27,16.484L0.27,13.904C0.27,13.904 -1.463,16.946 -5.738,16.946C-10.553,16.946 -14.365,12.825 -14.365,7.587C-14.365,2.349 -10.553,-1.771 -5.738,-1.771C-1.81,-1.771 0,0.886 0,0.886" style="fill:rgb(51,63,72);fill-rule:nonzero;"/>
        </g>
        <g transform="matrix(1,0,0,1,489.638,193.241)">
            <path d="M0,7.086C0,7.086 1.888,9.975 5.392,9.975C7.202,9.975 9.243,9.204 9.243,7.779C9.243,6.239 7.934,5.469 5.199,4.93C1.387,4.159 -1.31,2.657 -1.31,-0.693C-1.31,-3.273 1.271,-5.815 5.238,-5.815C9.436,-5.815 11.824,-3.12 11.824,-3.12L9.706,-0.925C9.706,-0.925 7.934,-2.889 5.238,-2.889C2.966,-2.889 1.849,-1.771 1.849,-0.616C1.849,0.732 3.235,1.463 6.162,2.079C9.552,2.812 12.44,4.082 12.44,7.702C12.44,11.13 8.819,12.901 5.392,12.901C0.386,12.901 -2.233,9.166 -2.233,9.166L0,7.086Z" style="fill:rgb(51,63,72);fill-rule:nonzero;"/>
        </g>
        <g transform="matrix(1,0,0,1,506.736,191.816)">
            <path d="M0,19.256C0,19.256 1.116,20.181 2.118,20.181C3.543,20.181 4.197,19.179 4.891,17.446L6.277,13.942L-2.042,-3.929L1.617,-3.929L7.856,10.129L13.171,-3.929L16.676,-3.929C16.676,-3.929 7.74,18.563 7.317,19.603C6.277,22.183 4.274,23.185 2.388,23.185C0.192,23.185 -1.387,21.913 -1.387,21.913L0,19.256Z" style="fill:rgb(51,63,72);fill-rule:nonzero;"/>
        </g>
        <g transform="matrix(1,0,0,1,527.8,193.241)">
            <path d="M0,7.086C0,7.086 1.888,9.975 5.392,9.975C7.202,9.975 9.243,9.204 9.243,7.779C9.243,6.239 7.934,5.469 5.199,4.93C1.387,4.159 -1.31,2.657 -1.31,-0.693C-1.31,-3.273 1.271,-5.815 5.238,-5.815C9.436,-5.815 11.824,-3.12 11.824,-3.12L9.706,-0.925C9.706,-0.925 7.934,-2.889 5.238,-2.889C2.966,-2.889 1.849,-1.771 1.849,-0.616C1.849,0.732 3.235,1.463 6.162,2.079C9.552,2.812 12.44,4.082 12.44,7.702C12.44,11.13 8.819,12.901 5.392,12.901C0.386,12.901 -2.233,9.166 -2.233,9.166L0,7.086Z" style="fill:rgb(51,63,72);fill-rule:nonzero;"/>
        </g>
        <g transform="matrix(1,0,0,1,543.396,200.711)">
            <path d="M0,-12.824L3.466,-12.824L3.466,-18.255L6.701,-18.255L6.701,-12.824L12.247,-12.824L12.247,-9.897L6.701,-9.897L6.701,-0.307C6.701,1.426 7.548,2.427 9.281,2.427C10.282,2.427 11.322,1.696 11.322,1.696L12.517,4.353C10.976,5.2 9.859,5.431 8.819,5.431C6.277,5.431 3.466,3.775 3.466,-0.153L3.466,-9.897L0,-9.897L0,-12.824Z" style="fill:rgb(51,63,72);fill-rule:nonzero;"/>
        </g>
        <g transform="matrix(1,0,0,1,573.281,198.325)">
            <path d="M0,-3.082C-0.116,-5.084 -1.926,-7.895 -5.508,-7.895C-9.359,-7.895 -10.938,-4.931 -11.169,-3.082L0,-3.082ZM3.158,-1.426C3.158,-1.079 3.158,-0.81 3.119,-0.386L-11.246,-0.386C-11.054,2.311 -8.474,4.814 -5.123,4.814C-1.618,4.814 0.23,2.194 0.23,2.194L2.271,4.313C2.271,4.313 -0.424,7.817 -5.123,7.817C-10.515,7.817 -14.404,3.735 -14.404,-1.541C-14.404,-6.74 -10.861,-10.899 -5.508,-10.899C-0.539,-10.899 3.158,-7.164 3.158,-1.426" style="fill:rgb(51,63,72);fill-rule:nonzero;"/>
        </g>
        <g transform="matrix(1,0,0,1,605.783,198.864)">
            <path d="M0,-4.622L0,6.816L-3.235,6.816L-3.235,-4.121C-3.235,-7.01 -4.737,-8.435 -7.049,-8.435C-9.706,-8.435 -10.861,-5.585 -10.861,-5.585L-10.861,6.816L-14.097,6.816L-14.097,-4.121C-14.097,-7.01 -15.599,-8.435 -17.909,-8.435C-20.528,-8.435 -21.722,-5.585 -21.722,-5.585L-21.722,6.816L-24.957,6.816L-24.957,-10.976L-21.953,-10.976L-21.953,-8.357C-21.953,-8.357 -20.644,-11.438 -17.023,-11.438C-12.595,-11.438 -11.478,-8.127 -11.478,-8.127C-11.478,-8.127 -10.053,-11.438 -6.162,-11.438C-2.465,-11.438 0,-9.013 0,-4.622" style="fill:rgb(51,63,72);fill-rule:nonzero;"/>
        </g>
        <g transform="matrix(1,0,0,1,612.48,193.241)">
            <path d="M0,7.086C0,7.086 1.888,9.975 5.393,9.975C7.202,9.975 9.243,9.204 9.243,7.779C9.243,6.239 7.934,5.469 5.199,4.93C1.387,4.159 -1.31,2.657 -1.31,-0.693C-1.31,-3.273 1.271,-5.815 5.238,-5.815C9.436,-5.815 11.824,-3.12 11.824,-3.12L9.705,-0.925C9.705,-0.925 7.934,-2.889 5.238,-2.889C2.966,-2.889 1.849,-1.771 1.849,-0.616C1.849,0.732 3.235,1.463 6.162,2.079C9.552,2.812 12.44,4.082 12.44,7.702C12.44,11.13 8.819,12.901 5.393,12.901C0.386,12.901 -2.233,9.166 -2.233,9.166L0,7.086Z" style="fill:rgb(51,63,72);fill-rule:nonzero;"/>
        </g>
        <g transform="matrix(1,0,0,1,25.5439,194.7)">
            <path d="M0,8.737L0,0L75.494,0.004L82.382,5.969L89.591,0.004L225.124,0.004L225.124,8.737L0,8.737Z" style="fill:rgb(200,16,46);fill-rule:nonzero;"/>
        </g>
        <g transform="matrix(1,0,0,1,212.753,102.868)">
            <path d="M0,62.038L0,25.469C0,18.996 -3.282,14.322 -9.759,11.578C-11.729,11.117 -13.121,10.926 -14.204,10.926C-19.94,10.926 -24.359,13.865 -27.34,19.667C-28.106,21.63 -28.468,23.978 -28.468,26.749L-28.388,62.038L-39.161,62.038L-39.245,24.741C-39.245,18.062 -42.82,10.926 -52.865,10.926C-64.846,10.926 -67.542,21.245 -67.542,24.859L-67.542,62.038L-78.314,62.038L-78.257,25.74C-78.257,9.481 -69.173,0.157 -53.334,0.157C-46.145,0.157 -39.835,3.02 -34.579,8.662L-33.759,9.542L-32.951,8.65C-27.748,2.913 -21.294,0 -13.769,0C10.495,0 10.773,23.311 10.773,24.302L10.773,62.038L0,62.038Z" style="fill:rgb(51,63,72);fill-rule:nonzero;"/>
        </g>
        <g transform="matrix(1,0,0,1,0,9.991)">
            <rect x="239.738" y="118.559" width="10.914" height="36.356" style="fill:rgb(51,63,72);"/>
        </g>
        <g transform="matrix(1,0,0,1,0,-59.682)">
            <rect x="239.757" y="164.613" width="10.914" height="13.921" style="fill:rgb(51,63,72);"/>
        </g>
        <g transform="matrix(1,0,0,1,113.614,162.373)">
            <path d="M0,-59.326L0,-66.406C0,-68.582 0.492,-70.986 1.47,-73.559C3.405,-78.593 7.939,-81.177 14.955,-81.242L14.955,-92.032C11.283,-92.01 7.936,-91.54 5.065,-90.655C2.565,-89.719 0.164,-88.384 -1.981,-86.758C-7.825,-81.235 -10.79,-74.387 -10.79,-66.406L-10.79,-59.326L-12.835,-59.326L-12.835,-59.331L-33.801,-59.331C-29.732,-55.564 -27.476,-50.465 -26.732,-48.549L-22.905,-48.549L-22.905,-48.543L-10.79,-48.543L-10.79,28.225L-5.607,32.706L0,28.202L0,-48.543L13.897,-48.543C14.642,-50.459 16.897,-55.558 20.966,-59.326L0,-59.326Z" style="fill:rgb(51,63,72);fill-rule:nonzero;"/>
        </g>
        <g transform="matrix(1,0,0,1,51.7089,153.637)">
            <path d="M0,-40.043L2.521,-40.043C10.807,-40.043 17.692,-34.001 19.046,-26.095L-16.525,-26.095C-15.171,-34.001 -8.286,-40.043 0,-40.043M2.521,-50.993L0,-50.993C-15.293,-50.993 -27.735,-38.552 -27.735,-23.259L-27.735,-16.785C-27.735,-1.492 -15.293,10.95 0,10.95L2.521,10.95C13.325,10.95 22.7,4.736 27.276,-4.303L13.702,-4.303C10.73,-1.637 6.818,-0.001 2.521,-0.001L0,-0.001C-8.701,-0.001 -15.874,-6.658 -16.701,-15.145L30.206,-15.181C30.236,-15.712 30.256,-16.246 30.256,-16.785L30.256,-23.259C30.256,-38.552 17.813,-50.993 2.521,-50.993" style="fill:rgb(200,16,46);fill-rule:nonzero;"/>
        </g>
    </g>
</svg>
