<?xml version="1.0" encoding="UTF-8" standalone="no"?>
<!DOCTYPE svg PUBLIC "-//W3C//DTD SVG 1.1//EN" "http://www.w3.org/Graphics/SVG/1.1/DTD/svg11.dtd">
<svg width="100%" height="100%" viewBox="0 0 229 182" version="1.1" xmlns="http://www.w3.org/2000/svg" xmlns:xlink="http://www.w3.org/1999/xlink" xml:space="preserve" xmlns:serif="http://www.serif.com/" style="fill-rule:evenodd;clip-rule:evenodd;stroke-linejoin:round;stroke-miterlimit:2;">
    <g id="FMI_bare" transform="matrix(1,0,0,1,-0.331819,0)">
        <g id="path106" transform="matrix(0.133333,0,0,-0.133333,2.242,180.75)">
            <path d="M0,3.352L0,91.031L189.609,90.988L258.742,31.121L331.09,90.988L1691.33,90.988L1691.33,3.352L0,3.352" style="fill:rgb(204,25,58);fill-rule:nonzero;"/>
        </g>
        <g id="path108" transform="matrix(0.133333,0,0,-0.133333,2.242,180.75)">
            <path d="M1310.81,390.066L1310.81,757.078C1310.81,822.039 1277.87,868.941 1212.87,896.492C1193.09,901.121 1179.12,903.035 1168.26,903.035C1110.68,903.035 1066.34,873.539 1036.42,815.305C1028.73,795.602 1025.1,772.035 1025.1,744.223L1025.9,390.066L917.781,390.066L916.941,764.383C916.941,831.414 881.055,903.035 780.242,903.035C660,903.035 632.949,799.465 632.949,763.195L632.949,390.066L524.828,390.066L525.402,754.363C525.402,917.531 616.57,1011.11 775.535,1011.11C847.695,1011.11 911.012,982.379 963.77,925.758L971.996,916.922L980.105,925.871C1032.33,983.457 1097.1,1012.68 1172.62,1012.68C1416.14,1012.68 1418.93,778.734 1418.93,768.781L1418.93,390.066L1310.81,390.066" style="fill:rgb(42,55,65);fill-rule:nonzero;"/>
        </g>
        <g id="path110" transform="matrix(0.133333,0,0,-0.133333,2.242,180.75)">
            <path d="M1581.64,390.066L1581.64,754.934L1691.18,754.934L1691.18,390.066L1581.64,390.066" style="fill:rgb(42,55,65);fill-rule:nonzero;"/>
        </g>
        <g id="path112" transform="matrix(0.133333,0,0,-0.133333,2.242,180.75)">
            <path d="M1581.83,852.262L1581.83,991.984L1691.37,991.984L1691.37,852.262L1581.83,852.262" style="fill:rgb(42,55,65);fill-rule:nonzero;"/>
        </g>
        <g id="path114" transform="matrix(0.133333,0,0,-0.133333,2.242,180.75)">
            <path d="M207.094,133.539L207.094,903.035L4.168,903.035L6.273,1011.11L207.094,1011.11L207.094,1082.08C207.094,1162.08 236.82,1230.71 295.395,1286.08C316.895,1302.38 340.961,1315.77 366.02,1325.14C394.789,1334.02 428.344,1338.72 465.145,1338.95L465.145,1230.79C394.828,1230.14 349.379,1204.24 329.98,1153.78C320.184,1127.99 315.246,1103.89 315.246,1082.08L315.246,1011.11L525.402,1011.11C484.617,973.352 462.012,922.238 454.551,903.035L315.246,903.035L315.246,133.77L259.047,88.621L207.094,133.539" style="fill:rgb(42,55,65);fill-rule:nonzero;"/>
        </g>
    </g>
</svg>
