<?xml version="1.0" encoding="UTF-8" standalone="no"?>
<svg
   width="852.89032"
   height="364.18329"
   overflow="hidden"
   version="1.1"
   id="svg55"
   sodipodi:docname="Modelica_and_FMI_Confernce_Logo.svg"
   inkscape:export-filename="Modelica_and_FMI_Confernce_Logo.png"
   inkscape:export-xdpi="1000"
   inkscape:export-ydpi="1000"
   inkscape:version="1.4 (86a8ad7, 2024-10-11)"
   xmlns:inkscape="http://www.inkscape.org/namespaces/inkscape"
   xmlns:sodipodi="http://sodipodi.sourceforge.net/DTD/sodipodi-0.dtd"
   xmlns="http://www.w3.org/2000/svg"
   xmlns:svg="http://www.w3.org/2000/svg">
  <sodipodi:namedview
     id="namedview55"
     pagecolor="#ffffff"
     bordercolor="#000000"
     borderopacity="0.25"
     inkscape:showpageshadow="2"
     inkscape:pageopacity="0.0"
     inkscape:pagecheckerboard="0"
     inkscape:deskcolor="#d1d1d1"
     inkscape:zoom="1.5429291"
     inkscape:cx="521.41087"
     inkscape:cy="180.17678"
     inkscape:window-width="2560"
     inkscape:window-height="1378"
     inkscape:window-x="2553"
     inkscape:window-y="-6"
     inkscape:window-maximized="1"
     inkscape:current-layer="svg55" />
  <defs
     id="defs5">
    <clipPath
       id="clip1">
      <rect
         x="867"
         y="293"
         width="192"
         height="153"
         id="rect2" />
    </clipPath>
    <clipPath
       id="clip2">
      <rect
         x="867"
         y="293"
         width="192"
         height="153"
         id="rect3" />
    </clipPath>
    <clipPath
       id="clip3">
      <rect
         x="867"
         y="293"
         width="192"
         height="153"
         id="rect4" />
    </clipPath>
    <clipPath
       id="clip4">
      <rect
         x="866"
         y="293"
         width="193"
         height="153"
         id="rect5" />
    </clipPath>
    <clipPath
       clipPathUnits="userSpaceOnUse"
       id="clipPath3">
      <g
         id="g7">
        <rect
           x="0"
           y="0"
           width="1280"
           height="720"
           id="rect7" />
      </g>
    </clipPath>
    <clipPath
       clipPathUnits="userSpaceOnUse"
       id="clipPath7">
      <g
         id="g8">
        <rect
           x="0"
           y="0"
           width="1280"
           height="720"
           id="rect8" />
      </g>
    </clipPath>
    <clipPath
       clipPathUnits="userSpaceOnUse"
       id="clipPath8">
      <g
         id="g9">
        <rect
           x="0"
           y="0"
           width="1280"
           height="720"
           id="rect9" />
      </g>
    </clipPath>
    <clipPath
       clipPathUnits="userSpaceOnUse"
       id="clipPath9">
      <g
         id="g10">
        <rect
           x="0"
           y="0"
           width="1280"
           height="720"
           id="rect10" />
      </g>
    </clipPath>
    <clipPath
       clipPathUnits="userSpaceOnUse"
       id="clipPath10">
      <g
         id="g11">
        <rect
           x="0"
           y="0"
           width="1280"
           height="720"
           id="rect11" />
      </g>
    </clipPath>
  </defs>
  <rect
     style="fill:#f9f9f9;stroke:#000000;stroke-width:0;stroke-dasharray:none"
     id="rect1"
     width="853.57764"
     height="363.60046"
     x="-0.65127242"
     y="-0.0031543379"
     inkscape:export-filename="Modelica_and_FMI_Confernce_Logo.png"
     inkscape:export-xdpi="1000"
     inkscape:export-ydpi="1000" />
  <g
     id="g17"
     clip-path="url(#clipPath9)"
     transform="translate(-235.2668,-178.23242)">
    <g
       id="g16">
      <g
         id="g15">
        <path
           d="m 346.896,145.772 c 0,7.53 6.105,13.636 13.635,13.636 7.533,0 13.639,-6.106 13.639,-13.636 0,-7.532 -6.106,-13.638 -13.639,-13.638 -7.53,0 -13.635,6.106 -13.635,13.638"
           fill="#de1d31"
           transform="matrix(1,0,0,-1,275.064,455.999)"
           id="path6" />
        <path
           d="M 85.1162,47.0055 43.4601,0 H 79.9178 L 105.126,30.8346 C 97.1844,34.4969 90.3358,40.0844 85.1162,47.0055 Z M 385.298,236.629 c -17.021,-0.622 -36.12,-19.097 -36.12,-18.889 0.208,10.586 -7.68,20.757 -22.212,18.474 -14.528,-2.284 -32.797,-20.55 -33.004,-20.55 0.623,7.68 -4.472,16.708 -12.455,19.719 -11.397,4.301 -28.301,1.101 -50.166,-23.11 -17.199,-19.044 -60.887,-68.857 -77.341,-87.524 5.824,-3.452 10.92,-7.982 15.027,-13.342 l 52.281,64.609 c 0,0 30.294,39.722 46.914,43.591 13.757,3.203 15.901,-9.951 10.793,-22.212 -10.391,-24.936 -35.912,-66.425 -35.912,-66.425 0,0 35.705,46.29 41.724,53.971 6.02,7.68 36.12,45.461 49.405,32.176 12.948,-12.946 -25.947,-68.919 -25.947,-68.919 l 19.928,25.742 c 0,0 40.478,53.14 58.123,46.497 17.646,-6.642 -11.419,-55.216 -11.419,-55.009 0,0 17.407,13.268 26.78,41.724 4.286,13.013 0.623,30.1 -16.399,29.477"
           fill="#707a84"
           transform="matrix(1,0,0,-1,275.064,455.999)"
           id="path7" />
        <path
           d="m 0.00677411,104.618 c 0,11.439 9.21798589,21.102 22.99032589,21.102 7.2196,0 13.3283,-2.666 17.326,-6.773 4.1104,4.107 10.1065,6.773 17.3266,6.773 13.8843,0 22.6584,-9.663 22.6584,-21.102 L 80.3013,54.3569 H 67.6384 l 0.0068,48.3711 c 0,7.886 -3.9962,12.218 -10.2159,12.218 -6.1108,0 -10.8866,-4.332 -10.8866,-12.218 L 46.5365,54.3569 H 33.7647 l 0.0063,48.3711 c 0,7.886 -4.7753,12.218 -10.9949,12.218 -6.1107,0 -10.109,-4.332 -10.109,-12.218 L 12.6608,54.3569 H 5.21085e-4 L 0.00677411,104.618"
           fill="#1f262f"
           transform="matrix(1,0,0,-1,275.064,455.999)"
           id="path8" />
        <path
           d="m 198.148,65.6344 c 7.221,0 12.995,5.7719 12.995,12.9932 0,7.2191 -5.774,12.9953 -12.995,12.9953 -7.217,0 -12.992,-5.7762 -12.992,-12.9953 0,-7.2213 5.775,-12.9932 12.992,-12.9932 z m 12.886,58.8646 h 12.773 V 79.0715 c 0,-14.1027 -11.442,-25.6525 -25.659,-25.6525 -14.104,0 -25.545,11.5498 -25.545,25.6525 0,14.2162 10.775,25.6585 24.656,25.6585 5.999,0 10.887,-2.778 13.775,-5.2231 v 24.9921"
           fill="#1f262f"
           transform="matrix(1,0,0,-1,275.064,455.999)"
           id="path9" />
        <path
           d="m 140.3,78.9064 c 0,7.3858 -4.995,13.6785 -13.081,13.6785 -8.086,0 -13.076,-6.2927 -13.076,-13.6785 0,-7.3864 4.99,-13.679 13.076,-13.679 8.086,0 13.081,6.2926 13.081,13.679 z m 12.179,0 c 0,-13.8777 -11.183,-24.859 -25.26,-24.859 -14.077,0 -25.257,10.9813 -25.257,24.859 0,13.9745 11.18,24.8566 25.257,24.8566 14.077,0 25.26,-10.8821 25.26,-24.8566"
           fill="#1f262f"
           transform="matrix(1,0,0,-1,275.064,455.999)"
           id="path10" />
        <path
           d="m 279.448,83.2965 c -0.204,4.0936 -3.996,9.5844 -11.883,9.5844 -7.689,0 -11.18,-5.3881 -11.579,-9.5844 z m 11.978,-4.1916 c 0,-0.8989 0,-2.6935 -0.099,-4.4929 h -35.341 c 0.895,-4.1916 5.787,-9.5833 13.275,-9.5833 8.286,0 12.979,4.7946 12.979,4.7946 l 5.99,-8.9871 c 0,0 -7.488,-6.7888 -18.969,-6.7888 -14.374,0 -25.455,10.9813 -25.455,24.859 0,13.8769 10.085,24.8566 23.759,24.8566 12.977,0 23.861,-10.0803 23.861,-24.6581"
           fill="#1f262f"
           transform="matrix(1,0,0,-1,275.064,455.999)"
           id="path11" />
        <path
           d="m 314.924,124.499 h 12.459 V 54.3569 h -12.459 v 70.1421"
           fill="#1f262f"
           transform="matrix(1,0,0,-1,275.064,455.999)"
           id="path12" />
        <path
           d="m 424.381,71.0182 7.886,-7.9878 c 0,0 -6.788,-8.983 -19.566,-8.983 -14.175,0 -25.457,10.9813 -25.457,24.859 0,13.9745 11.282,24.8566 25.457,24.8566 12.68,0 19.366,-8.7865 19.366,-8.7865 l -8.286,-7.3863 c 0,0 -3.89,4.9947 -11.08,4.9947 -8.088,0 -13.276,-6.2927 -13.276,-13.6785 0,-7.3864 5.188,-13.679 13.276,-13.679 8.085,0 11.68,5.7908 11.68,5.7908"
           fill="#1f262f"
           transform="matrix(1,0,0,-1,275.064,455.999)"
           id="path13" />
        <path
           d="m 354.003,103.724 h 12.562 V 54.3569 h -12.562 v 49.3671"
           fill="#1f262f"
           transform="matrix(1,0,0,-1,275.064,455.999)"
           id="path14" />
        <path
           d="m 475.23,65.2274 c -8.087,0 -13.076,6.2926 -13.076,13.679 0,7.3858 4.989,13.6785 13.076,13.6785 8.086,0 13.079,-6.2927 13.079,-13.6785 0,-7.3864 -4.993,-13.679 -13.079,-13.679 z m 13.079,38.4966 v -3.493 c -3.806,2.235 -8.265,3.532 -13.079,3.532 -14.078,0 -25.257,-10.8821 -25.257,-24.8566 0,-13.8777 11.179,-24.859 25.257,-24.859 4.814,0 9.273,1.31 13.079,3.5539 v -3.2767 h 12.561 v 49.3994 h -12.561"
           fill="#1f262f"
           transform="matrix(1,0,0,-1,275.064,455.999)"
           id="path15" />
      </g>
    </g>
  </g>
  <text
     fill="#707a84"
     font-family="'Century Gothic', 'Century Gothic_MSFontService', sans-serif"
     font-weight="700"
     font-size="88px"
     id="text17"
     x="563.14319"
     y="224.76758">&amp;</text>
  <text
     fill="#7c878e"
     font-family="'Century Gothic', 'Century Gothic_MSFontService', sans-serif"
     font-style="italic"
     font-weight="700"
     font-size="88px"
     id="text18"
     x="29.808212"
     y="107.76758">16</text>
  <text
     fill="#7c878e"
     font-family="'Century Gothic', 'Century Gothic_MSFontService', sans-serif"
     font-style="italic"
     font-weight="400"
     font-size="59px"
     id="text19"
     x="128.4752"
     y="81.767578">th</text>
  <text
     fill="#cc193a"
     font-family="'Century Gothic', 'Century Gothic_MSFontService', sans-serif"
     font-weight="700"
     font-size="72px"
     id="text20"
     x="409.7952"
     y="325.76758">Conference</text>
  <rect
     x="392"
     y="434"
     width="490"
     height="10"
     fill="#cc193a"
     id="rect20"
     clip-path="url(#clipPath8)"
     transform="translate(-235.2668,-178.23242)" />
  <path
     d="m 392,444 v -10 l -8,10 z"
     fill="#cc193a"
     fill-rule="evenodd"
     id="path20"
     clip-path="url(#clipPath7)"
     transform="translate(-235.2668,-178.23242)" />
  <g
     clip-path="url(#clipPath3)"
     id="g54"
     transform="translate(-235.2668,-178.23242)">
    <g
       clip-path="url(#clip2)"
       id="g53">
      <g
         clip-path="url(#clip3)"
         id="g52">
        <g
           clip-path="url(#clip4)"
           id="g51">
          <path
             d="M 0,0.373042 V 10.1322 l 21.1043,-0.0048 7.6947,-6.6635 8.0527,6.6635 H 188.252 V 0.373042 H 0"
             fill="#cc193a"
             transform="matrix(1,0,0,-1.00154,868.67,444.13)"
             id="path21" />
          <path
             d="m 145.898,43.4159 v 40.85 c 0,7.2304 -3.666,12.4508 -10.901,15.5173 -2.201,0.5148 -3.756,0.7278 -4.965,0.7278 -6.409,0 -11.344,-3.2826 -14.674,-9.7642 -0.856,-2.1931 -1.26,-4.8162 -1.26,-7.9117 l 0.089,-39.4192 h -12.034 l -0.094,41.663 c 0,7.4609 -3.994,15.4321 -15.2149,15.4321 -13.3834,0 -16.3943,-11.5273 -16.3943,-15.5643 V 43.4159 H 58.4155 l 0.0639,40.5478 c 0,18.1613 10.1473,28.5773 27.8408,28.5773 8.0317,0 15.0788,-3.198 20.9518,-9.5 l 0.915,-0.984 0.903,0.996 c 5.813,6.41 13.022,9.662 21.427,9.662 27.105,0 27.416,-26.0387 27.416,-27.1465 V 43.4159 h -12.035"
             fill="#2a3741"
             transform="matrix(1,0,0,-1.00154,868.67,444.13)"
             id="path22" />
          <path
             d="m 176.043,43.4159 v 40.6113 h 12.192 V 43.4159 h -12.192"
             fill="#2a3741"
             transform="matrix(1,0,0,-1.00154,868.67,444.13)"
             id="path23" />
          <path
             d="m 176.064,94.8602 v 15.5518 h 12.192 V 94.8602 h -12.192"
             fill="#2a3741"
             transform="matrix(1,0,0,-1.00154,868.67,444.13)"
             id="path24" />
          <path
             d="M 23.0504,14.8634 V 100.511 H 0.463912 l 0.234347,12.03 H 23.0504 v 7.899 c 0,8.904 3.3086,16.543 9.8283,22.706 2.393,1.814 5.0716,3.305 7.8608,4.347 3.2021,0.989 6.9369,1.512 11.033,1.538 v -12.039 c -7.8265,-0.072 -12.8852,-2.955 -15.0444,-8.572 -1.0903,-2.87 -1.6399,-5.553 -1.6399,-7.98 v -7.899 h 23.3912 c -4.5396,-4.203 -7.0556,-9.892 -7.886,-12.03 H 35.0882 V 14.8891 L 28.833,9.86389 23.0504,14.8634"
             fill="#2a3741"
             transform="matrix(1,0,0,-1.00154,868.67,444.13)"
             id="path25" />
          <path
             d="m 235.266,99.6502 h 11.896 V 96.3793 H 235.266 V 83.3394 h -3.434 v 28.6156 h 16.148 v -3.27 h -12.714 v -9.0348"
             fill="#2a3741"
             transform="matrix(1,0,0,-1.00154,868.67,444.13)"
             id="path26" />
          <path
             d="m 254.113,90.0849 v 12.1401 h 3.433 V 90.6567 c 0,-3.2296 2.004,-4.6195 4.538,-4.6195 3.188,0 4.702,3.1073 4.702,3.1073 v 13.0805 h 3.434 V 83.3394 h -3.189 v 2.9021 c 0,0 -1.717,-3.3925 -5.805,-3.3925 -3.761,0 -7.113,2.5751 -7.113,7.2359"
             fill="#2a3741"
             transform="matrix(1,0,0,-1.00154,868.67,444.13)"
             id="path27" />
          <path
             d="M 293.195,95.4806 V 83.3394 h -3.434 v 11.5682 c 0,3.2304 -2.002,4.6199 -4.538,4.6199 -3.065,0 -4.7,-3.1882 -4.7,-3.1882 V 83.3394 h -3.434 v 18.8856 h 3.189 v -2.6565 c 0,0 1.716,3.1475 5.805,3.1475 3.761,0 7.112,-2.575 7.112,-7.2354"
             fill="#2a3741"
             transform="matrix(1,0,0,-1.00154,868.67,444.13)"
             id="path28" />
          <path
             d="m 316.213,86.4872 c 0,0 -2.74,-3.6382 -7.726,-3.6382 -5.561,0 -9.731,4.3739 -9.731,9.9339 0,5.5182 4.17,9.9331 9.731,9.9331 4.823,0 7.521,-3.3933 7.521,-3.3933 l -2.33,-2.0847 c 0,0 -1.84,2.2895 -5.191,2.2895 -3.802,0 -6.296,-3.0251 -6.296,-6.7446 0,-3.7209 2.494,-6.7457 6.296,-6.7457 3.678,0 5.518,2.6977 5.518,2.6977 l 2.208,-2.2477"
             fill="#2a3741"
             transform="matrix(1,0,0,-1.00154,868.67,444.13)"
             id="path29" />
          <path
             d="m 319.566,102.225 h 3.678 v 5.765 h 3.435 v -5.765 h 5.885 v -3.1065 h -5.885 V 88.9393 c 0,-1.8391 0.899,-2.9021 2.738,-2.9021 1.063,0 2.168,0.777 2.168,0.777 l 1.266,-2.8205 c -1.635,-0.9 -2.82,-1.1447 -3.924,-1.1447 -2.698,0 -5.683,1.7578 -5.683,5.9273 v 10.3422 h -3.678 v 3.1065"
             fill="#2a3741"
             transform="matrix(1,0,0,-1.00154,868.67,444.13)"
             id="path30" />
          <path
             d="m 338.821,102.225 h 3.433 V 83.3394 h -3.433 z m 1.717,8.381 c 1.267,0 2.329,-1.063 2.329,-2.33 0,-1.267 -1.062,-2.33 -2.329,-2.33 -1.268,0 -2.331,1.063 -2.331,2.33 0,1.267 1.063,2.33 2.331,2.33"
             fill="#2a3741"
             transform="matrix(1,0,0,-1.00154,868.67,444.13)"
             id="path31" />
          <path
             d="m 364.452,92.7829 c 0,3.7195 -2.493,6.7446 -6.294,6.7446 -3.803,0 -6.297,-3.0251 -6.297,-6.7446 0,-3.7209 2.494,-6.7457 6.297,-6.7457 3.801,0 6.294,3.0248 6.294,6.7457 z m 3.435,0 c 0,-5.56 -4.171,-9.9339 -9.729,-9.9339 -5.561,0 -9.731,4.3739 -9.731,9.9339 0,5.5595 4.17,9.9331 9.731,9.9331 5.558,0 9.729,-4.3736 9.729,-9.9331"
             fill="#2a3741"
             transform="matrix(1,0,0,-1.00154,868.67,444.13)"
             id="path32" />
          <path
             d="M 389.554,95.4806 V 83.3394 h -3.434 v 11.5682 c 0,3.2304 -2.003,4.6199 -4.538,4.6199 -3.065,0 -4.701,-3.1882 -4.701,-3.1882 V 83.3394 h -3.434 v 18.8856 h 3.189 v -2.6565 c 0,0 1.717,3.1475 5.805,3.1475 3.761,0 7.113,-2.575 7.113,-7.2354"
             fill="#2a3741"
             transform="matrix(1,0,0,-1.00154,868.67,444.13)"
             id="path33" />
          <path
             d="m 408.687,88.7349 v 2.6574 c 0,0 -1.88,1.3493 -4.946,1.3493 -2.944,0 -4.783,-1.4718 -4.783,-3.434 0,-2.453 2.207,-3.4335 4.332,-3.4335 3.353,0 5.397,2.8608 5.397,2.8608 z m 3.434,7.0313 V 83.3394 h -3.148 v 2.739 c 0,0 -2.125,-3.2294 -6.418,-3.2294 -3.393,0 -7.03,2.3707 -7.03,6.4586 0,3.6796 3.229,6.2957 7.48,6.2957 3.475,0 5.682,-1.5531 5.682,-1.5531 v 1.0217 c 0,3.9239 -3.27,4.4556 -4.782,4.4556 -2.862,0 -5.642,-1.5938 -5.642,-1.5938 l -1.431,2.8613 c 0,0 2.943,1.921 7.073,1.921 5.558,0 8.216,-3.4332 8.216,-6.9498"
             fill="#2a3741"
             transform="matrix(1,0,0,-1.00154,868.67,444.13)"
             id="path34" />
          <path
             d="m 419.725,114.244 h 3.434 V 83.3394 h -3.434 v 30.9046"
             fill="#2a3741"
             transform="matrix(1,0,0,-1.00154,868.67,444.13)"
             id="path35" />
          <path
             d="m 235.266,70.5307 9.852,-15.9844 9.811,15.9844 h 3.312 V 41.9151 h -3.435 v 22.4017 l -9.769,-15.9021 -9.771,15.8608 V 41.9151 h -3.434 v 28.6156 h 3.434"
             fill="#2a3741"
             transform="matrix(1,0,0,-1.00154,868.67,444.13)"
             id="path36" />
          <path
             d="m 280.563,51.3581 c 0,3.7196 -2.494,6.7449 -6.295,6.7449 -3.802,0 -6.296,-3.0253 -6.296,-6.7449 0,-3.7204 2.494,-6.7456 6.296,-6.7456 3.801,0 6.295,3.0252 6.295,6.7456 z m 3.435,0 c 0,-5.5595 -4.171,-9.9334 -9.73,-9.9334 -5.56,0 -9.729,4.3739 -9.729,9.9334 0,5.56 4.169,9.9339 9.729,9.9339 5.559,0 9.73,-4.3739 9.73,-9.9339"
             fill="#2a3741"
             transform="matrix(1,0,0,-1.00154,868.67,444.13)"
             id="path37" />
          <path
             d="m 305.707,45.0625 c 0,0 -2.74,-3.6378 -7.727,-3.6378 -5.56,0 -9.73,4.3739 -9.73,9.9334 0,5.5187 4.17,9.9339 9.73,9.9339 4.823,0 7.522,-3.3934 7.522,-3.3934 l -2.331,-2.0848 c 0,0 -1.839,2.2892 -5.191,2.2892 -3.802,0 -6.295,-3.0253 -6.295,-6.7449 0,-3.7204 2.493,-6.7456 6.295,-6.7456 3.679,0 5.518,2.6978 5.518,2.6978 l 2.209,-2.2478"
             fill="#2a3741"
             transform="matrix(1,0,0,-1.00154,868.67,444.13)"
             id="path38" />
          <path
             d="m 314.864,51.0724 v -9.1573 h -3.434 v 30.9047 h 3.434 V 52.4212 l 8.095,8.3804 h 4.496 l -8.83,-8.9118 9.566,-9.9747 h -4.783 l -8.544,9.1573"
             fill="#2a3741"
             transform="matrix(1,0,0,-1.00154,868.67,444.13)"
             id="path39" />
          <path
             d="m 331.259,53.5247 h 10.914 v -3.2705 h -10.914 v 3.2705"
             fill="#2a3741"
             transform="matrix(1,0,0,-1.00154,868.67,444.13)"
             id="path40" />
          <path
             d="m 365.925,70.5307 h 3.434 V 52.4616 c 0,-6.4999 -3.883,-11.0369 -10.425,-11.0369 -6.54,0 -10.423,4.537 -10.423,11.0369 v 18.0691 h 3.434 c 0,0 0,-8.2583 0,-17.7008 0,-4.6195 2.043,-8.1356 6.989,-8.1356 4.947,0 6.991,3.5161 6.991,8.1356 0,9.4425 0,17.7008 0,17.7008"
             fill="#2a3741"
             transform="matrix(1,0,0,-1.00154,868.67,444.13)"
             id="path41" />
          <path
             d="m 380.398,47.842 c 0,0 1.799,-3.2295 5.56,-3.2295 3.842,0 6.254,3.0252 6.254,6.7456 0,3.7196 -2.412,6.7449 -6.254,6.7449 -3.761,0 -5.56,-3.2297 -5.56,-3.2297 z m -0.286,12.9596 v -2.7392 c 0,0 1.881,3.2296 6.378,3.2296 5.109,0 9.156,-4.3739 9.156,-9.9339 0,-5.5595 -4.047,-9.9334 -9.156,-9.9334 -3.475,0 -5.437,1.9617 -6.092,2.8204 V 32.5129 h -3.433 v 28.2887 h 3.147"
             fill="#2a3741"
             transform="matrix(1,0,0,-1.00154,868.67,444.13)"
             id="path42" />
          <path
             d="m 232.404,29.106 h 3.435 V 0.489564 h -3.435 V 29.106"
             fill="#2a3741"
             transform="matrix(1,0,0,-1.00154,868.67,444.13)"
             id="path43" />
          <path
             d="M 260.121,12.6308 V 0.489564 h -3.433 V 12.0587 c 0,3.2299 -2.003,4.6191 -4.539,4.6191 -3.065,0 -4.7,-3.1879 -4.7,-3.1879 V 0.489564 h -3.434 V 19.3769 h 3.189 v -2.6578 c 0,0 1.716,3.1473 5.805,3.1473 3.761,0 7.112,-2.5751 7.112,-7.2356"
             fill="#2a3741"
             transform="matrix(1,0,0,-1.00154,868.67,444.13)"
             id="path44" />
          <path
             d="m 265.356,19.3769 h 3.677 v 5.7635 h 3.435 v -5.7635 h 5.886 v -3.1074 h -5.886 V 6.08955 c 0,-1.83869 0.899,-2.90173 2.738,-2.90173 1.063,0 2.167,0.77695 2.167,0.77695 l 1.268,-2.82042 C 277.005,0.243913 275.82,0 274.716,0 c -2.698,0 -5.683,1.75739 -5.683,5.92694 V 16.2695 h -3.677 v 3.1074"
             fill="#2a3741"
             transform="matrix(1,0,0,-1.00154,868.67,444.13)"
             id="path45" />
          <path
             d="m 297.978,11.5678 c -0.122,2.1261 -2.044,5.11 -5.846,5.11 -4.088,0 -5.763,-3.1478 -6.008,-5.11 z m 3.352,-1.75739 c 0,-0.36826 0,-0.65435 -0.04,-1.10434 h -15.249 c 0.205,-2.86044 2.943,-5.51825 6.499,-5.51825 3.721,0 5.684,2.78043 5.684,2.78043 l 2.166,-2.24826 c 0,0 -2.861,-3.71999 -7.85,-3.71999 -5.722,0 -9.851,4.33217 -9.851,9.93389 0,5.51871 3.762,9.93251 9.443,9.93251 5.275,0 9.198,-3.9643 9.198,-10.05599"
             fill="#2a3741"
             transform="matrix(1,0,0,-1.00154,868.67,444.13)"
             id="path46" />
          <path
             d="m 318.091,19.3769 -1.266,-3.1074 c 0,0 -0.736,0.4083 -2.166,0.4083 -2.985,0 -4.334,-3.1879 -4.334,-3.1879 V 0.489564 h -3.434 V 19.3769 h 3.189 v -2.9026 c 0,0 1.676,3.3921 5.273,3.3921 1.553,0 2.738,-0.4895 2.738,-0.4895"
             fill="#2a3741"
             transform="matrix(1,0,0,-1.00154,868.67,444.13)"
             id="path47" />
          <path
             d="m 320.628,19.3769 h 3.925 v 6.4991 c 0,4.0057 3.106,6.0092 5.804,6.0092 1.104,0 2.331,-0.2035 3.966,-1.1031 l -1.268,-2.8204 c 0,0 -1.144,0.7347 -2.207,0.7347 -1.84,0 -2.862,-1.1843 -2.862,-3.0251 v -6.2944 h 4.906 v -3.1074 h -4.906 V 0.489564 h -3.433 V 16.2695 h -3.925 v 3.1074"
             fill="#2a3741"
             transform="matrix(1,0,0,-1.00154,868.67,444.13)"
             id="path48" />
          <path
             d="m 350.021,5.88564 v 2.65825 c 0,0 -1.88,1.34783 -4.946,1.34783 -2.944,0 -4.783,-1.47175 -4.783,-3.4326 0,-2.45434 2.207,-3.43391 4.332,-3.43391 3.353,0 5.397,2.86043 5.397,2.86043 z m 3.434,7.03126 V 0.489564 h -3.148 V 3.22912 c 0,0 -2.126,-3.22912 -6.419,-3.22912 -3.392,0 -7.03,2.37087 -7.03,6.45912 0,3.67868 3.229,6.29518 7.481,6.29518 3.475,0 5.682,-1.5539 5.682,-1.5539 v 1.0218 c 0,3.9247 -3.27,4.4556 -4.783,4.4556 -2.861,0 -5.642,-1.5926 -5.642,-1.5926 l -1.43,2.8604 c 0,0 2.943,1.9208 7.072,1.9208 5.559,0 8.217,-3.4334 8.217,-6.9495"
             fill="#2a3741"
             transform="matrix(1,0,0,-1.00154,868.67,444.13)"
             id="path49" />
          <path
             d="m 376.473,3.63738 c 0,0 -2.74,-3.63738 -7.727,-3.63738 -5.56,0 -9.729,4.37304 -9.729,9.93389 0,5.51871 4.169,9.93251 9.729,9.93251 4.823,0 7.522,-3.3921 7.522,-3.3921 l -2.331,-2.0848 c 0,0 -1.84,2.2883 -5.191,2.2883 -3.802,0 -6.295,-3.0252 -6.295,-6.74391 0,-3.72086 2.493,-6.74607 6.295,-6.74607 3.679,0 5.518,2.69782 5.518,2.69782 l 2.209,-2.24826"
             fill="#2a3741"
             transform="matrix(1,0,0,-1.00154,868.67,444.13)"
             id="path50" />
          <path
             d="m 395.441,11.5678 c -0.122,2.1261 -2.043,5.11 -5.846,5.11 -4.088,0 -5.764,-3.1478 -6.009,-5.11 z m 3.351,-1.75739 c 0,-0.36826 0,-0.65435 -0.04,-1.10434 h -15.248 c 0.206,-2.86044 2.944,-5.51825 6.5,-5.51825 3.721,0 5.682,2.78043 5.682,2.78043 l 2.167,-2.24826 c 0,0 -2.862,-3.71999 -7.849,-3.71999 -5.723,0 -9.853,4.33217 -9.853,9.93389 0,5.51871 3.762,9.93251 9.444,9.93251 5.274,0 9.197,-3.9643 9.197,-10.05599"
             fill="#2a3741"
             transform="matrix(1,0,0,-1.00154,868.67,444.13)"
             id="path51" />
        </g>
      </g>
    </g>
  </g>
</svg>
