<svg width="112" height="32" viewBox="0 0 112 32" fill="none" xmlns="http://www.w3.org/2000/svg">
<path d="M16.8 30.44C14.72 30.44 12.7867 30.08 11 29.36C9.21333 28.6133 7.64 27.5867 6.28 26.28C4.94667 24.9467 3.89333 23.4133 3.12 21.68C2.37333 19.92 2 18.0267 2 16C2 13.9733 2.37333 12.0933 3.12 10.36C3.89333 8.6 4.94667 7.06666 6.28 5.76C7.64 4.42667 9.21333 3.4 11 2.68C12.7867 1.93333 14.72 1.56 16.8 1.56C18.88 1.56 20.8133 1.93333 22.6 2.68C24.4133 3.4 25.9867 4.42667 27.32 5.76C28.68 7.06666 29.7333 8.6 30.48 10.36C31.2267 12.0933 31.6 13.9733 31.6 16C31.6 18.0267 31.2267 19.92 30.48 21.68C29.7333 23.4133 28.68 24.9467 27.32 26.28C25.9867 27.5867 24.4133 28.6133 22.6 29.36C20.8133 30.08 18.88 30.44 16.8 30.44ZM16.8 25.12C18.08 25.12 19.2533 24.8933 20.32 24.44C21.3867 23.96 22.32 23.32 23.12 22.52C23.92 21.6933 24.5467 20.72 25 19.6C25.4533 18.48 25.68 17.28 25.68 16C25.68 14.6933 25.4533 13.4933 25 12.4C24.5467 11.28 23.92 10.32 23.12 9.52C22.32 8.69333 21.3867 8.05333 20.32 7.6C19.2533 7.12 18.08 6.88 16.8 6.88C15.5467 6.88 14.3867 7.12 13.32 7.6C12.2533 8.05333 11.32 8.69333 10.52 9.52C9.72 10.32 9.09333 11.28 8.64 12.4C8.18667 13.4933 7.96 14.68 7.96 15.96C7.96 17.2667 8.18667 18.48 8.64 19.6C9.09333 20.72 9.72 21.6933 10.52 22.52C11.32 23.32 12.2533 23.96 13.32 24.44C14.3867 24.8933 15.5467 25.12 16.8 25.12Z" fill="#203646"/>
<path d="M40.8996 24.84H45.7796C47.0329 24.84 48.1929 24.6267 49.2596 24.2C50.3529 23.7467 51.2996 23.12 52.0996 22.32C52.9263 21.52 53.5529 20.5867 53.9796 19.52C54.4329 18.4533 54.6596 17.2933 54.6596 16.04C54.6596 14.7867 54.4329 13.6267 53.9796 12.56C53.5263 11.4667 52.8996 10.52 52.0996 9.72C51.2996 8.92 50.3529 8.29333 49.2596 7.84C48.1929 7.38667 47.0329 7.16 45.7796 7.16H40.8996V24.84ZM35.0996 30V2H45.8596C47.9663 2 49.9129 2.36 51.6996 3.08C53.4863 3.77333 55.0463 4.76 56.3796 6.04C57.7129 7.32 58.7529 8.81334 59.4996 10.52C60.2729 12.2267 60.6596 14.0667 60.6596 16.04C60.6596 18.04 60.2863 19.88 59.5396 21.56C58.7929 23.24 57.7396 24.72 56.3796 26C55.0463 27.2533 53.4863 28.24 51.6996 28.96C49.9129 29.6533 47.9663 30 45.8596 30H35.0996Z" fill="#203646"/>
<path d="M64.1602 30V2H85.6802V7.04H69.9602V13.44H80.3202V18.32H69.9602V24.96H85.8402V30H64.1602Z" fill="#203646"/>
<g clip-path="url(#clip0_3227_1127)">
<path d="M89.3398 13.5H109.34V18.5H89.3398V13.5Z" fill="#203646"/>
<path d="M101.84 6L101.84 26H96.8398L96.8398 6L101.84 6Z" fill="#203646"/>
<rect x="104.34" y="13.5" width="5" height="5" fill="#3F6C8D"/>
</g>
<defs>
<clipPath id="clip0_3227_1127">
<rect width="20" height="20" fill="white" transform="translate(89.3398 6)"/>
</clipPath>
</defs>
</svg>
