<?xml version="1.0" encoding="UTF-8" standalone="no"?>
<!-- Created with Inkscape (http://www.inkscape.org/) -->

<svg
   width="2000"
   height="2000"
   id="svg3213"
   version="1.1"
   inkscape:version="1.4.2 (f4327f4, 2025-05-13)"
   sodipodi:docname="ConferenceLogoUS2026.svg"
   inkscape:export-filename="ConferenceLogoUS2026.png"
   inkscape:export-xdpi="57.599998"
   inkscape:export-ydpi="57.599998"
   xmlns:inkscape="http://www.inkscape.org/namespaces/inkscape"
   xmlns:sodipodi="http://sodipodi.sourceforge.net/DTD/sodipodi-0.dtd"
   xmlns:xlink="http://www.w3.org/1999/xlink"
   xmlns="http://www.w3.org/2000/svg"
   xmlns:svg="http://www.w3.org/2000/svg"
   xmlns:rdf="http://www.w3.org/1999/02/22-rdf-syntax-ns#"
   xmlns:cc="http://creativecommons.org/ns#"
   xmlns:dc="http://purl.org/dc/elements/1.1/">
  <defs
     id="defs3215">
    <linearGradient
       id="linearGradient3598">
      <stop
         style="stop-color:#e42429;stop-opacity:1;"
         offset="0"
         id="stop3600" />
      <stop
         style="stop-color:#702527;stop-opacity:1"
         offset="1"
         id="stop3602" />
    </linearGradient>
    <radialGradient
       id="radialGradient3345"
       spreadMethod="pad"
       gradientTransform="matrix(21.80627,0,0,21.80627,539.66992,-334.97705)"
       gradientUnits="userSpaceOnUse"
       r="1"
       cy="0"
       cx="0"
       fy="0"
       fx="0">
      <stop
         id="stop3347"
         offset="0"
         style="stop-opacity:1;stop-color:#e62329" />
      <stop
         id="stop3349"
         offset="0.52681"
         style="stop-opacity:1;stop-color:#9c2529" />
      <stop
         id="stop3351"
         offset="0.52681"
         style="stop-opacity:1;stop-color:#9c2529" />
      <stop
         id="stop3353"
         offset="0.70505"
         style="stop-opacity:1;stop-color:#702527" />
      <stop
         id="stop3355"
         offset="1"
         style="stop-opacity:1;stop-color:#702527" />
    </radialGradient>
    <radialGradient
       id="radialGradient3345-7"
       spreadMethod="pad"
       gradientTransform="matrix(21.80627,0,0,21.80627,539.66992,-334.97705)"
       gradientUnits="userSpaceOnUse"
       r="1"
       cy="0"
       cx="0"
       fy="0"
       fx="0">
      <stop
         id="stop3347-4"
         offset="0"
         style="stop-opacity:1;stop-color:#e62329" />
      <stop
         id="stop3349-0"
         offset="0.52681"
         style="stop-opacity:1;stop-color:#9c2529" />
      <stop
         id="stop3351-9"
         offset="0.52681"
         style="stop-opacity:1;stop-color:#9c2529" />
      <stop
         id="stop3353-4"
         offset="0.70505"
         style="stop-opacity:1;stop-color:#702527" />
      <stop
         id="stop3355-8"
         offset="1"
         style="stop-opacity:1;stop-color:#702527" />
    </radialGradient>
    <radialGradient
       inkscape:collect="always"
       xlink:href="#radialGradient3345-7"
       id="radialGradient3415"
       gradientUnits="userSpaceOnUse"
       gradientTransform="matrix(21.80627,0,0,21.80627,539.66992,-334.97705)"
       spreadMethod="pad"
       cx="0"
       cy="0"
       fx="0"
       fy="0"
       r="1" />
    <radialGradient
       inkscape:collect="always"
       xlink:href="#linearGradient3598"
       id="radialGradient3604"
       cx="1160"
       cy="680"
       fx="1160"
       fy="680"
       r="1000"
       gradientUnits="userSpaceOnUse"
       gradientTransform="matrix(1.7371429,0.00571429,-0.00330195,0.99999455,-852.84039,-6.624867)" />
  </defs>
  <sodipodi:namedview
     id="base"
     pagecolor="#ffffff"
     bordercolor="#666666"
     borderopacity="1.0"
     inkscape:pageopacity="0.0"
     inkscape:pageshadow="2"
     inkscape:zoom="0.49497474"
     inkscape:cx="1397.041"
     inkscape:cy="1407.1425"
     inkscape:document-units="px"
     inkscape:current-layer="layer1"
     showgrid="false"
     fit-margin-top="0"
     fit-margin-left="0"
     fit-margin-right="0"
     fit-margin-bottom="0"
     inkscape:window-width="3200"
     inkscape:window-height="1711"
     inkscape:window-x="2391"
     inkscape:window-y="-9"
     inkscape:window-maximized="1"
     inkscape:pagecheckerboard="0"
     inkscape:showpageshadow="2"
     inkscape:deskcolor="#d1d1d1" />
  <metadata
     id="metadata3218">
    <rdf:RDF>
      <cc:Work
         rdf:about="">
        <dc:format>image/svg+xml</dc:format>
        <dc:type
           rdf:resource="http://purl.org/dc/dcmitype/StillImage" />
      </cc:Work>
    </rdf:RDF>
  </metadata>
  <g
     inkscape:label="Layer 1"
     inkscape:groupmode="layer"
     id="layer1"
     transform="translate(-395.52482,744.06831)">
    <path
       sodipodi:type="arc"
       style="fill:#ffffff;fill-opacity:1;stroke:none"
       id="path4376"
       sodipodi:cx="890.95453"
       sodipodi:cy="1058.5378"
       sodipodi:rx="418.20316"
       sodipodi:ry="420.22345"
       d="m 1309.1577,1058.5378 c 0,232.083 -187.2359,420.2235 -418.20317,420.2235 -230.96723,0 -418.20316,-188.1405 -418.20316,-420.2235 0,-232.08296 187.23593,-420.22341 418.20316,-420.22341 230.96727,0 418.20317,188.14045 418.20317,420.22341 z"
       transform="matrix(2.3911823,0,0,2.3796863,-734.90991,-2263.0563)"
       inkscape:export-filename="C:\Users\HubertusTummescheit\OneDrive - Modelon\MA\Graphics\MA-Logos-master\HighRes\NAModelica2022.png"
       inkscape:export-xdpi="96"
       inkscape:export-ydpi="96" />
    <path
       style="fill:url(#radialGradient3604);fill-opacity:1;stroke:none"
       d="M 1000 0 C 784.01524 4.845454e-014 584.03776 68.483266 420.5625 184.90625 C 444.4576 184.4083 467.32387 191.07113 428.8125 202.34375 C 438.3154 174.73105 409.7642 218.79935 399.6875 206.90625 C 397.86203 205.79159 396.34577 204.7107 395.03125 203.6875 C 376.31338 217.92971 358.11885 232.81365 340.46875 248.3125 C 371.90759 233.07615 425.07942 252.92711 390.59375 277.3125 C 419.15188 270.63636 468.981 300.70498 463.5625 306.9375 C 500.4991 377.08 473.7935 396.98325 456.5625 391.34375 C 415.168 378.73675 339.5066 376.5959 372.9375 320.625 C 369.60254 302.63086 372.08793 291.22587 378 284.5 C 376.91661 285.01528 375.82426 285.51489 374.65625 286.03125 C 360.42675 290.75815 334.5602 309.8833 321.6875 295.125 C 318.52081 281.07827 320.20088 270.3304 324.84375 262.34375 C 307.73773 278.00894 291.1684 294.2549 275.1875 311.0625 C 278.24883 310.96334 281.32365 310.78125 284.4375 310.53125 C 314.9923 324.83805 360.6693 372.2474 383 390.5 C 402.4323 403.8381 432.6199 431.64465 434.25 390.09375 C 479.7274 425.14755 560.8518 461.38795 541.25 369.53125 C 585.589 312.39955 548.27355 438.19885 592.09375 422.28125 C 570.12205 477.43575 673.1597 366.2128 639.625 453 C 613.9391 497.7875 553.50635 457.524 547.96875 509.0625 C 473.31855 525.5848 430.0508 620.35055 522.9375 648.71875 C 572.8971 656.12725 532.46675 768.5169 575.09375 703 C 623.70133 665.4564 600.45727 594.64395 651.78125 557.78125 C 712.65125 556.29455 687.2251 665.27619 743.5 616.0625 C 750.5931 661.43579 785.77335 711.082 789.78125 744.6875 C 757.44495 785.6921 640.06905 742.24305 693.96875 803.15625 C 707.36655 840.10115 718.88115 856.4412 667.65625 849.9375 C 706.09425 794.0718 630.02233 845.77055 580.78125 898.34375 C 536.41575 947.92845 479.0995 979.34471 463.9375 1053.375 C 456.561 1148.0351 440.9572 965.86201 377 1029.25 C 283.0169 976.77501 210.2156 1176.2754 324.8125 1167.375 C 346.514 1117.1506 401.0297 1132.6174 362.4375 1188 C 363.39 1229.59 420.0628 1201.4156 402.6875 1260.125 C 421.1996 1339.0768 509.6504 1262.6104 534.8125 1262.6875 C 520.1281 1329.6316 555.94545 1219.9834 574.09375 1274.9062 C 643.90503 1270.4279 701.5504 1335.5268 757.25 1367 C 770.6136 1464.2363 948.6942 1401.0386 928.1875 1513.7812 C 867.8917 1559.3536 909.08715 1668.7673 817.34375 1689.75 C 796.31825 1740.6918 756.8734 1830.4772 722.5 1827.875 C 750.68579 1873.4832 660.9467 1891.5876 662.5 1941.5938 C 767.93654 1979.3904 881.56077 2000 1000 2000 C 1552.2848 2000 2000 1552.2848 2000 1000 C 2000 447.71525 1552.2848 -2.4822529e-013 1000 0 z M 695.8125 161.03125 C 702.68281 161.05938 713.16538 162.70167 728.125 166.59375 C 756.329 175.21165 854.055 172.32475 864.75 204.59375 C 800.5494 205.77015 802.43885 249.48885 708.28125 288.40625 C 642.77725 288.90915 637.0393 232.67105 703.3125 258.09375 C 681.2063 226.99615 697.1441 226.27696 705.8125 214.65625 C 714.7195 202.71565 789.68445 201.25422 747.84375 199.5 C 713.19442 198.04729 662.71008 160.89573 695.8125 161.03125 z M 641.34375 171.4375 C 647.42896 171.46282 656.04258 174.32963 667.78125 181.21875 C 704.42875 206.00625 676.2916 236.03065 645 225.15625 C 630.06633 207.40477 619.61084 171.34708 641.34375 171.4375 z M 490.875 185.71875 C 499.92363 185.38235 507.23836 204.65773 481.84375 196.03125 C 484.1061 188.53085 487.60209 185.84042 490.875 185.71875 z M 565.53125 189.5625 C 573.34079 189.62082 581.21354 195.6151 578.125 213.0625 C 539.68313 205.84269 552.51536 189.4653 565.53125 189.5625 z M 602.40625 203.125 C 616.46683 202.58866 637.68405 234.79328 593.53125 223.375 C 592.49394 208.5684 596.90429 203.33487 602.40625 203.125 z M 1065.9688 207.90625 C 1088.671 207.75172 1112.1228 209.18932 1120.5938 210.84375 C 1132.3499 216.06855 1026.125 236.2516 1116.4062 222.4375 C 1196.9893 237.8562 1091.1841 230.59975 1094.9062 253.34375 C 1117.7059 254.32822 1185.04 237.09968 1150.4062 278.1875 C 1184.1651 241.60661 1260.8731 263.71003 1187.1875 298.125 C 1150.656 328.6925 1206.7018 360.8851 1162.0312 360.0625 C 1168.4767 400.3813 1175.9007 392.80755 1150.3438 418.96875 C 1056.7595 381.02475 1199.1859 501.7091 1119.5625 460.5 C 1090.6589 435.406 1090.087 493.17345 1136.4688 482.34375 C 1071.0678 519.24855 964.80285 529.31355 945.46875 616.59375 C 941.09995 625.00745 933.3576 635.7114 922.125 633.5625 C 845.8416 592.9085 879.7005 501.9237 895.875 452.875 C 866.0699 446.885 904.3092 309.82095 815.25 325.71875 C 765.3288 288.40045 848.46415 293.5371 794.71875 259.3125 C 830.16165 252.8636 846.15885 254.41235 844.15625 229.15625 C 906.73025 209.33825 963.92975 227.6471 1031.5312 228.4375 C 992.37581 212.865 1028.1317 208.1638 1065.9688 207.90625 z M 441.28125 220.6875 C 463.18776 220.3829 477.88473 252.26729 494.875 222.6875 C 490.0768 237.1153 543.7234 259.82375 488.625 260.84375 C 435.5892 260.86475 454.54245 250.61255 424.84375 227.21875 C 430.78236 222.57166 436.2259 220.75779 441.28125 220.6875 z M 562.65625 249.28125 C 576.99209 249.01242 591.58896 265.67034 552.59375 283.15625 C 541.88019 258.69058 552.19496 249.47742 562.65625 249.28125 z M 601.25 252.75 C 605.02363 252.27205 612.84088 257.86108 625.6875 273.0625 C 626.2619 307.2801 766.2274 297.5754 675.4375 324.125 C 629.44778 340.943 587.13383 254.5379 601.25 252.75 z M 581.59375 279.15625 C 588.92704 279.33022 605.0572 300.0193 580.71875 293.5 C 576.97183 282.66706 578.49747 279.08279 581.59375 279.15625 z M 485.40625 287.28125 C 490.55747 287.01663 510.01356 309.10433 488.0625 298.9375 C 483.54297 290.4175 483.54304 287.37697 485.40625 287.28125 z M 542.125 308.625 C 551.23009 308.43461 555.97403 313.24035 544.84375 325 C 558.58325 336.7723 532.2821 349.3396 522.875 350.5 C 491.51951 327.55022 524.74255 308.98847 542.125 308.625 z M 584.15625 315.71875 C 603.53157 315.94686 623.23399 336.06475 573.84375 339.03125 C 574.46455 342.08415 567.98075 350.4889 564.65625 344.8125 C 561.03881 322.62547 572.53106 315.58188 584.15625 315.71875 z M 637.65625 333.15625 C 642.76644 333.3379 643.88477 341.37066 635.5 362.40625 C 628.9224 394.56495 682.76395 307.79375 679.65625 371.96875 C 742.97925 378.22495 790.64065 464.33855 790.40625 519.34375 C 760.80445 541.63625 737.59245 475.60545 750.46875 538.53125 C 769.33395 590.89575 706.4907 537.08625 734.9375 580.78125 L 722.40625 574.875 C 713.02185 541.8323 621.8521 509.3338 676.0625 509.125 C 755.425 462.1176 671.3633 401.56605 612 399.15625 C 585.43717 383.44862 624.59688 332.69204 637.65625 333.15625 z M 509.15625 390.9375 C 519.31735 391.19356 542.92185 411.96639 510.1875 407.59375 C 502.70081 394.94406 504.53757 390.82111 509.15625 390.9375 z M 682.46875 452.90625 C 691.48233 452.66043 702.93141 476.01845 675.46875 469.84375 C 675.29787 457.32916 678.66301 453.01004 682.46875 452.90625 z M 587.3125 496.4375 C 610.77209 496.42143 651.10954 538.58021 590.8125 522.78125 L 576.8125 532.03125 C 569.46259 505.1815 576.64905 496.44481 587.3125 496.4375 z M 1181.4375 546.78125 C 1217.8608 547.32928 1186.6456 617.25332 1136.5625 592.9375 C 1105.6723 562.3686 1115.1976 537.9057 1149.5938 556.875 C 1163.4172 549.5489 1173.8779 546.66751 1181.4375 546.78125 z M 98.71875 566.28125 C 35.465857 697.48172 -8.7928636e-017 844.59536 0 1000 C 2.6762121e-017 1399.3876 234.15739 1744.0646 572.65625 1904.3125 C 556.1101 1832.6611 576.30307 1755.349 560.375 1682.0938 C 556.8882 1599.4626 455.6949 1563.4846 432.9375 1480.4375 C 393.1424 1430.487 522.9484 1306.6861 436.3125 1302.875 C 383.5644 1319.6968 343.91615 1190.4765 271.28125 1201.1875 C 183.50365 1193.5579 174.56495 1098.9282 143.96875 1036.9375 C 137.21215 995.26661 97.89595 959.95831 123.78125 1028.75 C 139.79515 1073.8187 135.45655 1114.6695 112.90625 1046.6875 C 98.95875 961.96821 34.8483 881.82695 73.125 793.65625 C 107.4377 740.49815 142.7473 694.05874 102.875 636.71875 C 104.29964 614.57464 103.12995 590.10914 98.71875 566.28125 z M 781.6875 762.6875 C 786.96563 762.41761 788.8433 768.43072 781.6875 785.03125 C 812.3848 796.15315 821.915 827.27225 778.25 818.84375 C 726.42464 812.30436 767.09502 763.43367 781.6875 762.6875 z M 429.65625 1120.375 C 433.51352 1120.3397 442.79901 1121.4836 459.9375 1123.9688 C 479.0817 1129.2496 543.48115 1164.8466 484.65625 1160.375 C 471.24602 1135.8376 415.88027 1120.5012 429.65625 1120.375 z M 538.90625 1162.4688 C 565.02699 1162.4634 616.80336 1183.2245 541 1185.25 C 518.58362 1168.1572 525.22396 1162.4715 538.90625 1162.4688 z M 471.875 1174.6875 C 478.94806 1174.0554 503.38575 1192.1415 473.25 1183.25 C 469.08225 1177.1866 469.51731 1174.8982 471.875 1174.6875 z M 597.90625 1180.625 C 606.06848 1180.5877 610.06694 1200.5365 589.8125 1187.7812 C 592.51391 1182.5095 595.40761 1180.6364 597.90625 1180.625 z "
       transform="translate(395.52482,-744.06831)"
       id="path3463"
       inkscape:export-filename="C:\Users\HubertusTummescheit\OneDrive - Modelon\MA\Graphics\MA-Logos-master\HighRes\NAModelica2022.png"
       inkscape:export-xdpi="96"
       inkscape:export-ydpi="96" />
    <g
       id="g3391"
       transform="matrix(85.376026,0,0,85.320883,-40607.992,28602.048)"
       inkscape:export-filename="C:\Users\HubertusTummescheit\OneDrive - Modelon\MA\US2020\USCOnfLogo2.png"
       inkscape:export-xdpi="199.98"
       inkscape:export-ydpi="199.98">
      <g
         id="g3393">
        <g
           id="g3395">
          <g
             id="g3397">
            <path
               inkscape:connector-curvature="0"
               d="m 526.85352,-330.354 c 0,-6.47315 5.24414,-11.72071 11.71289,-11.72071 6.46875,0 11.71289,5.24756 11.71289,11.72071 0,6.47314 -5.24414,11.72021 -11.71289,11.72021 -6.46875,0 -11.71289,-5.24707 -11.71289,-11.72021 z"
               style="fill:url(#radialGradient3415);stroke:none"
               id="path3399" />
          </g>
        </g>
      </g>
    </g>
    <path
       style="fill:#ffffff"
       d="m 5043.886,1538.0103 c -43.5661,-9.4116 17.9955,-27.6899 -22.7369,-30.1736 -64.6737,-11.9753 -68.5705,-104.9469 -63.7915,-151.4283 -36.554,-81.2809 -5.6612,-172.6274 -24.3085,-258.3888 -3.4868,-82.6311 -104.6951,-118.61811 -127.4525,-201.66521 -39.7951,-49.9505 90.0316,-173.7493 3.3957,-177.5604 -52.7481,16.8218 -92.404,-112.3778 -165.0389,-101.6668 -87.7776,-7.6296 -96.7107,-102.2807 -127.3069,-164.2714 -6.7566,-41.67089 -46.0877,-76.96739 -20.2024,-8.1757 16.0139,45.0687 11.6781,85.9132 -10.8722,17.9312 -13.9475,-84.71929 -78.0451,-164.86339 -39.7684,-253.0341 34.3127,-53.15809 69.6098,-99.5745 29.7375,-156.91449 5.3399,-83.0013 -25.6863,-198.8541 -127.7762,-189.9556 -49.148,30.2779 39.3103,-56.6196 -21.2889,-9.3487 -40.7861,52.7142 -119.0799,69.8616 -175.0294,74.6759 42.7315,-12.3973 145.8011,-46.355 75.5939,-84.6019 -38.3386,-62.9911 54.1775,-88.6523 63.8726,-109.5486 -72.112,-8.6988 -6.1547,-74.7704 35.752,-40.7494 -74.4353,-69.8798 107.5783,-110.7618 137.8839,-47.3082 57.2818,47.6892 117.0692,86.7106 192.5626,80.6495 30.5548,14.3068 76.2248,61.6911 98.5555,79.9437 19.4323,13.3381 49.6084,41.1685 51.2385,-0.3824 45.4774,35.0538 126.6296,71.2874 107.0278,-20.5693 44.339,-57.1317 7.0129,68.6479 50.8331,52.7303 -21.9717,55.1545 81.0499,-56.0463 47.5152,30.7409 -25.6859,44.7875 -86.1215,4.5221 -91.6591,56.0606 -74.6502,16.5223 -117.9,111.2783 -25.0133,139.646495 49.9596,7.4085 9.5189,119.812095 52.1459,54.295195 48.6076,-37.543595 25.3599,-108.36919 76.6839,-145.23189 60.87,-1.4867 35.4591,107.484895 91.734,58.2712 7.0931,45.373295 42.2569,95.03039 46.2648,128.6359 -32.3363,41.00459 -149.707,-2.4353 -95.8073,58.47789 13.3978,36.9449 24.9157,53.26891 -26.3092,46.76521 38.438,-55.86571 -37.6411,-4.1428 -86.8822,48.4304 -44.3655,49.5847 -101.6748,80.9962 -116.8368,155.02649 -7.3765,94.6601 -22.9927,-87.51879 -86.9499,-24.1308 -93.9831,-52.47499 -166.7642,147.0171 -52.1673,138.1167 21.7015,-50.2244 76.2033,-34.767 37.6111,20.6156 0.9525,41.59 57.6297,13.4397 40.2544,72.1491 18.5121,78.9518 106.9626,2.479 132.1247,2.5561 -14.6844,66.9441 21.1505,-42.7108 39.2988,12.212 69.8113,-4.4784 127.4428,60.6099 183.1424,92.0831 13.3636,97.2363 191.4457,34.0643 170.939,146.807 -60.2958,45.5723 -19.1049,154.96681 -110.8483,175.94951 -21.0255,50.9418 -60.4758,140.7339 -94.8492,138.1317 31.5946,51.1241 -84.9635,67.6736 -55.0446,133.355 -3.4759,41.5097 -29.444,134.4597 34.2644,149.1234 l -13.2763,6.6107 z m -81.4111,-934.28251 c 11.526,-22.4929 26.4548,16.6599 0,0 z m -48.8111,-2.5359 c -65.2113,-49.7245 115.5099,-3.0865 0,0 z m -67.7344,-2.0057 c -16.671,-24.2535 40.181,11.8553 0,0 z m 11.3985,-22.8723 c -17.1651,-31.4079 -103.0782,-47.7702 -24.7308,-36.4096 19.1442,5.2809 83.5557,40.8812 24.7308,36.4096 z m 293.5943,-341.5434 c -70.5707,-8.9047 30.3644,-96.2903 3.4249,-33.7942 30.6973,11.1219 40.2401,42.2227 -3.4249,33.7942 z m -657.9888,-114.2854 c -390.5317,843.0933 -195.2658,421.5467 0,0 z M 5294.7839,49.4981 c -76.2834,-40.6540002 -42.4174,-131.6392 -26.2429,-180.6879 -29.8051,-5.99 8.4229,-143.0561 -80.6363,-127.1583 -49.9212,-37.3183 33.2152,-32.174 -20.5302,-66.3986 35.4429,-6.4489 51.4556,-4.9023 49.453,-30.1584 62.574,-19.818 119.7849,-1.5212 187.3864,-0.7308 -62.6487,-24.916 66.472,-21.9968 89.0613,-17.585 11.7561,5.2248 -94.488,25.4166 -4.2068,11.6025 80.583,15.4187 -25.2196,8.1429 -21.4974,30.8869 23.1615,1.0001 92.2708,-16.7958 53.7617,26.8445 32.7562,-39.333 113.5086,-17.0789 38.5297,17.9401 -36.5315,30.5675 19.5111,62.763 -25.1595,61.9404 6.4455,40.3188 13.8706,32.7309 -11.6863,58.8921 -93.5843,-37.944 48.8234,82.7587 -30.8,41.5496 -28.9036,-25.094 -29.4575,32.6665 16.9243,21.8368 -65.4009,36.9048 -171.672,46.9674 -191.0061,134.2476 -4.3688,8.4137 -12.1183,19.1274 -23.3509,16.9785 z M 5509.2365,8.8725998 C 5478.3463,-21.6963 5487.8659,-46.1679 5522.2621,-27.1986 c 80.4275,-42.6246 47.4521,65.4337 -13.0256,36.0711998 z m -414.1726,-18.071 C 5085.6795,-42.2411 4994.5234,-74.7435 5048.7338,-74.9523 c 79.3625,-47.0074 -4.6924,-107.5542 -64.0557,-109.964 -36.957,-21.8541 53.3086,-111.5499 23.4961,-36.7567 -6.5776,32.1587 47.2557,-54.6089 44.148,9.5661 63.323,6.2562 110.9809,92.3886 110.7465,147.3938 -29.6018,22.2925 -52.8173,-43.7478 -39.941,19.178 18.8652,52.3644998 -43.9772,-1.4389 -15.5304,42.2560998 l -12.5337,-5.9194 z M 4949.4836,-52.0524 c -23.5197,-85.9192 101.6985,13.7603 13.9937,-9.22 z m -491.3271,-11.6514 c -17.3541,-1.5302 17.354,1.5303 0,0 z m 589.9794,-50.5191 c -0.5756,-42.1544 39.058,8.7818 0,0 z m -165.2879,-62.2467 c -23.9574,-40.479 47.6136,6.3602 0,0 z m -53.6164,-16.2483 c -41.3945,-12.607 -117.0712,-14.7638 -83.6403,-70.7347 -15.7843,-85.166 98.7152,-22.9617 90.6449,-13.679 36.9366,70.1425 10.2264,90.0532 -7.0046,84.4137 z m 66.3148,-40.8638 c -47.7798,-34.9711 54.3495,-59.6945 21.9705,-25.4846 13.7395,11.7723 -12.5634,24.3242 -21.9705,25.4846 z m 41.7636,-5.6875 c -9.6465,-59.1654 88.234,-10.5062 9.2096,-5.7598 0.6208,3.0529 -5.8851,11.4362 -9.2096,5.7598 z m 110.8048,-20.6772 c -58.284,21.3139 -110.6622,-123.1318 -49.7597,-51.0658 0.5744,34.2176 140.5496,24.5162 49.7597,51.0658 z m -353.7723,-29.0031 c -19.3501,-85.8327 142.4927,-48.6606 52.9673,-9.0823 -14.2295,4.7269 -40.0946,23.8406 -52.9673,9.0823 z m 166.4007,3.8033 c -17.0147,-32.0753 29.8908,13.8442 0,0 z m 92.6419,-5.4214 c -12.6212,-36.4899 34.6147,9.2719 0,0 z m 127.5635,-5.0862 c -65.504,0.5029 -71.2447,-55.751 -4.9715,-30.3283 -22.1062,-31.0976 -6.167,-31.80029 2.5014,-43.421 8.907,-11.9406 83.8743,-13.42458 42.0336,-15.1788 -41.8407,-1.75422 -106.7619,-55.5507 -19.7241,-32.9059 28.204,8.6179 125.9411,5.7553 136.6361,38.0243 -64.2006,1.1764 -62.3179,44.8923 -156.4755,83.8097 z m -155.6893,-5.2705 c -25.3951,-57.9927 67.4512,-30.2459 0,0 z m -63.9782,-22.3148 c -53.0358,0.021 -34.0732,-10.2322 -63.7719,-33.626 31.6726,-24.7845 49.126,31.8855 70.0371,-4.5204 -4.7982,14.4278 48.8332,37.1264 -6.2652,38.1464 z m 156.3791,-35.6665 c -19.1151,-22.7219 -30.877,-75.4399 22.7855,-43.9468 36.6475,24.7875 8.5061,54.8212 -22.7855,43.9468 z m -51.4675,-1.7987 c -3.6882,-52.6457 61.43,15.8863 0,0 z m -15.4106,-10.3073 c -61.507,-11.5517 8.2361,-46.5264 0,0 z m -178.4116,-6.1531 c -50.6891,-30.9515 103.4032,-26.3129 29.1195,-4.5694 9.5029,-27.6127 -19.0428,16.4625 -29.1195,4.5694 z m 82.1485,-10.8835 c 8.5171,-28.2368 34.5799,11.7467 0,0 z"
       id="path3401"
       inkscape:connector-curvature="0"
       sodipodi:nodetypes="cccccccccccccccccccccccccccccccccccccccccccccccccccccccccccccccccccccccccccccccccccccccccccccccczzccccccccccccccccccccccccccazccccccccccccccccccccc"
       inkscape:export-filename="C:\Users\HubertusTummescheit\OneDrive - Modelon\MA\US2020\USCOnfLogo2.png"
       inkscape:export-xdpi="199.98"
       inkscape:export-ydpi="199.98" />
    <text
       xml:space="preserve"
       style="font-style:normal;font-weight:normal;line-height:0%;font-family:sans-serif;letter-spacing:0px;word-spacing:0px;fill:#ffffff;fill-opacity:1;stroke:none"
       x="5011.4839"
       y="216.34781"
       id="text3403"
       inkscape:export-filename="C:\Users\HubertusTummescheit\OneDrive - Modelon\MA\US2020\USCOnfLogo2.png"
       inkscape:export-xdpi="199.98"
       inkscape:export-ydpi="199.98"><tspan
         sodipodi:role="line"
         id="tspan3405"
         x="5011.4839"
         y="216.34781"
         style="font-style:normal;font-variant:normal;font-weight:bold;font-stretch:normal;font-size:160px;line-height:1.25;font-family:Arial;-inkscape-font-specification:'Arial Bold';text-align:start;text-anchor:start;fill:#ffffff">          American</tspan><tspan
         sodipodi:role="line"
         x="5011.4839"
         y="416.34781"
         id="tspan3407"
         style="font-style:normal;font-variant:normal;font-weight:bold;font-stretch:normal;font-size:160px;line-height:1.25;font-family:Arial;-inkscape-font-specification:'Arial Bold';text-align:start;text-anchor:start;fill:#ffffff">     Modelica </tspan><tspan
         sodipodi:role="line"
         x="5011.4839"
         y="616.34778"
         id="tspan3409"
         style="font-style:normal;font-variant:normal;font-weight:bold;font-stretch:normal;font-size:160px;line-height:1.25;font-family:Arial;-inkscape-font-specification:'Arial Bold';text-align:start;text-anchor:start;fill:#ffffff">Conference</tspan></text>
    <text
       inkscape:transform-center-y="-116.16677"
       inkscape:transform-center-x="1527.772"
       xml:space="preserve"
       style="font-style:normal;font-weight:normal;line-height:0%;font-family:sans-serif;letter-spacing:0px;word-spacing:0px;fill:#ffffff;fill-opacity:1;stroke:none"
       x="5391.5879"
       y="955.05634"
       id="text3411"
       inkscape:export-filename="C:\Users\HubertusTummescheit\OneDrive - Modelon\MA\US2020\USCOnfLogo2.png"
       inkscape:export-xdpi="199.98"
       inkscape:export-ydpi="199.98"><tspan
         sodipodi:role="line"
         id="tspan3413"
         x="5391.5879"
         y="955.05634"
         style="font-style:normal;font-variant:normal;font-weight:bold;font-stretch:normal;font-size:320px;line-height:1.25;font-family:Arial;-inkscape-font-specification:'Arial Bold';fill:#ffffff">2020</tspan></text>
    <text
       xml:space="preserve"
       style="font-style:normal;font-weight:normal;font-size:160px;line-height:0%;font-family:sans-serif;letter-spacing:0px;word-spacing:0px;fill:#ffffff;fill-opacity:1;stroke:none"
       x="1082.0823"
       y="278.3783"
       id="text3109"
       transform="scale(1.0337102,0.96738911)"
       inkscape:export-filename="C:\Users\HubertusTummescheit\OneDrive - Modelon\MA\Graphics\MA-Logos-master\HighRes\NAModelica2022.png"
       inkscape:export-xdpi="96"
       inkscape:export-ydpi="96"><tspan
         sodipodi:role="line"
         id="tspan3111"
         x="1082.0823"
         y="278.3783"
         style="font-style:normal;font-variant:normal;font-weight:bold;font-stretch:normal;font-size:160px;line-height:1.25;font-family:Tahoma;-inkscape-font-specification:'Tahoma Bold';fill:#ffffff">American</tspan></text>
    <text
       xml:space="preserve"
       style="font-style:normal;font-weight:normal;font-size:160px;line-height:0%;font-family:sans-serif;letter-spacing:0px;word-spacing:0px;fill:#ffffff;fill-opacity:1;stroke:none"
       x="1204.7319"
       y="615.95526"
       id="text3117"
       transform="scale(1.0337102,0.96738911)"
       inkscape:export-filename="C:\Users\HubertusTummescheit\OneDrive - Modelon\MA\Graphics\MA-Logos-master\HighRes\NAModelica2022.png"
       inkscape:export-xdpi="96"
       inkscape:export-ydpi="96"><tspan
         sodipodi:role="line"
         id="tspan3119"
         x="1204.7319"
         y="615.95526"
         style="font-style:normal;font-variant:normal;font-weight:bold;font-stretch:normal;font-size:160px;line-height:1.25;font-family:Tahoma;-inkscape-font-specification:'Tahoma Bold';fill:#ffffff">Conference</tspan></text>
    <text
       transform="scale(1.0337102,0.96738911)"
       id="text3121"
       y="782.77948"
       x="1302.9374"
       style="font-style:normal;font-weight:normal;font-size:160px;line-height:0%;font-family:sans-serif;letter-spacing:0px;word-spacing:0px;fill:#ffffff;fill-opacity:1;stroke:none"
       xml:space="preserve"
       inkscape:export-filename="C:\Users\HubertusTummescheit\OneDrive - Modelon\MA\Graphics\MA-Logos-master\HighRes\NAModelica2022.png"
       inkscape:export-xdpi="96"
       inkscape:export-ydpi="96"><tspan
         style="font-style:normal;font-variant:normal;font-weight:bold;font-stretch:normal;font-size:160px;line-height:1.25;font-family:Tahoma;-inkscape-font-specification:'Tahoma Bold';fill:#ffffff"
         y="782.77948"
         x="1302.9374"
         id="tspan3123"
         sodipodi:role="line">  2026</tspan></text>
    <text
       transform="scale(1.0337102,0.96738911)"
       id="text3113"
       y="446.83569"
       x="982.91394"
       style="font-style:normal;font-weight:normal;font-size:160px;line-height:0%;font-family:sans-serif;letter-spacing:0px;word-spacing:0px;fill:#ffffff;fill-opacity:1;stroke:none"
       xml:space="preserve"
       inkscape:export-filename="C:\Users\HubertusTummescheit\OneDrive - Modelon\MA\Graphics\MA-Logos-master\HighRes\NAModelica2022.png"
       inkscape:export-xdpi="96"
       inkscape:export-ydpi="96"><tspan
         style="font-style:normal;font-variant:normal;font-weight:bold;font-stretch:normal;font-size:160px;line-height:1.25;font-family:Tahoma;-inkscape-font-specification:'Tahoma Bold';fill:#ffffff"
         y="446.83569"
         x="982.91394"
         id="tspan3115"
         sodipodi:role="line">Modelica &amp; FMI</tspan></text>
    <flowRoot
       xml:space="preserve"
       id="flowRoot3937"
       style="font-style:normal;font-weight:normal;font-size:40px;line-height:1.25;font-family:sans-serif;letter-spacing:0px;word-spacing:0px;fill:#000000;fill-opacity:1;stroke:none"><flowRegion
         id="flowRegion3939"><rect
           id="rect3941"
           width="3337.5439"
           height="3087.0261"
           x="-836.40631"
           y="-893.0769" /></flowRegion><flowPara
         id="flowPara3943" /></flowRoot>
    <flowRoot
       xml:space="preserve"
       id="flowRoot3945"
       style="font-style:normal;font-weight:normal;font-size:40px;line-height:1.25;font-family:sans-serif;letter-spacing:0px;word-spacing:0px;fill:#000000;fill-opacity:1;stroke:none"><flowRegion
         id="flowRegion3947"><rect
           id="rect3949"
           width="2654.6807"
           height="2642.5591"
           x="3398.1533"
           y="-254.66051" /></flowRegion><flowPara
         id="flowPara3951" /></flowRoot>
    <flowRoot
       xml:space="preserve"
       id="flowRoot3953"
       style="font-style:normal;font-weight:normal;font-size:40px;line-height:1.25;font-family:sans-serif;letter-spacing:0px;word-spacing:0px;fill:#000000;fill-opacity:1;stroke:none"><flowRegion
         id="flowRegion3955"><rect
           id="rect3957"
           width="416.18286"
           height="40.406101"
           x="3406.2344"
           y="-238.49806" /></flowRegion><flowPara
         id="flowPara3959" /></flowRoot>
    <flowRoot
       xml:space="preserve"
       id="flowRoot3961"
       style="font-style:normal;font-weight:normal;font-size:40px;line-height:1.25;font-family:sans-serif;letter-spacing:0px;word-spacing:0px;fill:#000000;fill-opacity:1;stroke:none"><flowRegion
         id="flowRegion3963"><rect
           id="rect3965"
           width="2339.5134"
           height="2295.0667"
           x="3842.6204"
           y="84.750748" /></flowRegion><flowPara
         id="flowPara3967" /></flowRoot>
    <flowRoot
       xml:space="preserve"
       id="flowRoot3969"
       style="font-style:normal;font-weight:normal;font-size:40px;line-height:1.25;font-family:sans-serif;letter-spacing:0px;word-spacing:0px;fill:#000000;fill-opacity:1;stroke:none"
       inkscape:export-filename="C:\Users\HubertusTummescheit\OneDrive - Modelon\MA\US2020\USCOnfLogo1.png"
       inkscape:export-xdpi="199.98"
       inkscape:export-ydpi="199.98"><flowRegion
         id="flowRegion3971"><rect
           id="rect3973"
           width="2198.092"
           height="2109.1985"
           x="3878.9858"
           y="96.872581" /></flowRegion><flowPara
         id="flowPara3975" /></flowRoot>
  </g>
</svg>
