<?xml version="1.0" encoding="utf-8"?>
<!-- Generator: Adobe Illustrator 15.0.0, SVG Export Plug-In . SVG Version: 6.00 Build 0)  -->
<!DOCTYPE svg PUBLIC "-//W3C//DTD SVG 1.1//EN" "http://www.w3.org/Graphics/SVG/1.1/DTD/svg11.dtd">
<svg version="1.1" id="Ebene_1" xmlns="http://www.w3.org/2000/svg" xmlns:xlink="http://www.w3.org/1999/xlink" x="0px" y="0px"
	 width="283.465px" height="90.709px" viewBox="0 0 283.465 90.709" enable-background="new 0 0 283.465 90.709"
	 xml:space="preserve">
<g>
	<path fill-rule="evenodd" clip-rule="evenodd" fill="#71787C" d="M88.532,78.577c-0.164-0.023-0.443-0.049-0.647-0.049
		c-1.04,0-1.979,0.736-1.979,2.068v0.748h-0.788v0.99h0.788v5.635h1.129v-5.635h1.396c0.051-0.316,0.089-0.66,0.089-0.99h-1.485
		v-0.838c0-0.646,0.242-0.938,0.812-0.938c0.178,0,0.482,0.012,0.609,0.037C88.521,79.276,88.532,78.909,88.532,78.577z"/>
	<path fill-rule="evenodd" clip-rule="evenodd" fill="#71787C" d="M94.269,84.657c0,1.863-0.635,2.449-1.663,2.449
		c-1.027,0-1.586-0.596-1.586-2.449c0-1.893,0.674-2.451,1.625-2.451C93.647,82.206,94.269,82.829,94.269,84.657z M95.487,84.657
		c0-2.5-1.207-3.439-2.843-3.439c-1.676,0-2.856,1.244-2.856,3.439c0,2.424,1.117,3.439,2.817,3.439
		C94.23,88.097,95.487,86.968,95.487,84.657z"/>
	<path fill-rule="evenodd" clip-rule="evenodd" fill="#71787C" d="M100.892,81.282c-0.153-0.053-0.367-0.064-0.508-0.064
		c-0.406,0-0.862,0.076-1.586,0.939h-0.063v-0.838c-0.342,0-0.825,0.025-1.128,0.076v6.574h1.128v-4.924
		c0.571-0.559,1.015-0.648,1.472-0.648c0.217,0,0.432,0.039,0.573,0.076C100.842,82.093,100.892,81.663,100.892,81.282z"/>
	<path fill-rule="evenodd" clip-rule="evenodd" fill="#71787C" d="M110.054,79.417h-5.673v1.09h2.182v7.463h1.243v-7.463h2.146
		C110.015,80.165,110.054,79.771,110.054,79.417z"/>
	<path fill-rule="evenodd" clip-rule="evenodd" fill="#71787C" d="M116.728,87.97v-4.748c0-1.459-0.812-2.004-1.878-2.004
		c-0.723,0-1.32,0.203-1.954,0.75h-0.063v-3.439c-0.343,0-0.825,0.037-1.129,0.088v9.354h1.129v-5.205
		c0.519-0.342,1.027-0.518,1.649-0.518c0.837,0,1.104,0.404,1.104,1.039v4.684H116.728z"/>
	<path fill-rule="evenodd" clip-rule="evenodd" fill="#71787C" d="M121.475,82.106c0.85,0,1.333,0.471,1.333,1.563
		c0,0.088,0,0.301-0.013,0.406h-2.767C120.065,82.677,120.599,82.106,121.475,82.106z M123.935,83.907
		c0-1.701-0.824-2.689-2.437-2.689c-1.547,0-2.714,1.078-2.714,3.527c0,2.246,1.053,3.352,3.032,3.352
		c0.635,0,1.497-0.152,2.005-0.434c-0.05-0.342-0.165-0.76-0.278-1.064c-0.395,0.242-1.092,0.42-1.701,0.42
		c-1.408,0-1.827-0.674-1.827-2.057V84.86h3.882C123.923,84.556,123.935,84.187,123.935,83.907z"/>
	<path fill-rule="evenodd" clip-rule="evenodd" fill="#71787C" d="M129.341,81.282c-0.152-0.053-0.369-0.064-0.508-0.064
		c-0.406,0-0.862,0.076-1.586,0.939h-0.063v-0.838c-0.343,0-0.824,0.025-1.13,0.076v6.574h1.13v-4.924
		c0.571-0.559,1.015-0.648,1.473-0.648c0.214,0,0.431,0.039,0.57,0.076C129.291,82.093,129.341,81.663,129.341,81.282z"/>
	<path fill-rule="evenodd" clip-rule="evenodd" fill="#71787C" d="M139.454,87.97v-4.748c0-1.496-0.85-2.004-1.89-2.004
		c-0.736,0-1.333,0.229-2.031,0.889c-0.292-0.648-0.862-0.889-1.536-0.889c-0.672,0-1.142,0.203-1.751,0.75h-0.063v-0.648
		c-0.342,0-0.825,0.025-1.128,0.076v6.574h1.128v-5.205c0.458-0.328,0.926-0.518,1.447-0.518c0.749,0,1.041,0.404,1.041,1.039v4.684
		h1.142v-5.178c0.444-0.355,0.85-0.545,1.445-0.545c0.775,0,1.054,0.418,1.054,1.039v4.684H139.454z"/>
	<path fill-rule="evenodd" clip-rule="evenodd" fill="#71787C" d="M145.1,86.675c-0.404,0.293-1.026,0.494-1.547,0.494
		c-0.697,0-1.003-0.279-1.003-0.965c0-0.771,0.306-1.064,1.195-1.104l1.355-0.063V86.675z M147.309,86.968h-0.734
		c-0.293,0-0.382-0.115-0.382-0.434v-4.67c-0.571-0.443-1.549-0.646-2.423-0.646c-0.646,0-1.18,0.09-1.752,0.254
		c0.013,0.344,0.077,0.762,0.153,1.041c0.368-0.166,1.001-0.279,1.549-0.279c0.507,0,1.064,0.113,1.381,0.293v1.711l-1.318,0.053
		c-1.573,0.063-2.385,0.594-2.385,1.992c0,1.242,0.786,1.814,1.929,1.814c0.659,0,1.243-0.191,1.853-0.688h0.05
		c0.216,0.547,0.66,0.688,1.205,0.688c0.508,0,0.876-0.217,0.876-0.787V86.968z"/>
	<path fill-rule="evenodd" clip-rule="evenodd" fill="#71787C" d="M149.999,87.97v-9.441c-0.342,0-0.825,0.037-1.127,0.088v9.354
		H149.999z"/>
	<path fill-rule="evenodd" clip-rule="evenodd" fill="#71787C" d="M160.024,85.646c0-2.6-3.884-2.461-3.884-4.084
		c0-0.711,0.355-1.207,1.509-1.207c0.547,0,1.27,0.088,1.79,0.23c0.103-0.33,0.177-0.826,0.191-1.105
		c-0.534-0.125-1.257-0.189-1.803-0.189c-1.713,0-2.942,0.838-2.942,2.385c0,2.475,3.882,2.26,3.882,4.086
		c0,0.824-0.508,1.27-1.484,1.27c-0.711,0-1.462-0.127-2.132-0.418c-0.116,0.303-0.229,0.723-0.279,1.09
		c0.685,0.293,1.586,0.395,2.298,0.395C158.934,88.097,160.024,87.144,160.024,85.646z"/>
	<path fill-rule="evenodd" clip-rule="evenodd" fill="#71787C" d="M167.016,81.396c-0.318-0.064-0.813-0.088-1.116-0.088
		l-1.511,4.67c-0.076,0.24-0.151,0.533-0.203,0.799h-0.05c-0.052-0.229-0.141-0.559-0.217-0.787l-1.485-4.682
		c-0.315,0-0.8,0.037-1.114,0.088c0.569,2.195,1.482,4.746,2.27,6.574l-0.341,0.799c-0.267,0.598-0.597,0.836-1.094,0.836
		c-0.342,0-0.735-0.074-1.001-0.188c-0.102,0.277-0.19,0.686-0.229,1.053c0.382,0.203,0.852,0.24,1.168,0.24
		c1.156,0,2.044-0.85,2.755-2.945L167.016,81.396z"/>
	<path fill-rule="evenodd" clip-rule="evenodd" fill="#71787C" d="M172.523,86.128c0-2.246-3.097-1.865-3.097-3.02
		c0-0.609,0.355-0.889,1.016-0.889c0.544,0,1.217,0.09,1.686,0.242c0.078-0.33,0.153-0.736,0.166-1.053
		c-0.495-0.141-1.13-0.191-1.55-0.191c-1.356,0-2.486,0.686-2.486,2.031c0,2.055,3.072,1.623,3.072,2.943
		c0,0.547-0.292,0.863-1.029,0.863c-0.622,0-1.345-0.141-1.864-0.406c-0.128,0.33-0.203,0.66-0.292,1.027
		c0.521,0.279,1.282,0.42,1.929,0.42C171.38,88.097,172.523,87.499,172.523,86.128z"/>
	<path fill-rule="evenodd" clip-rule="evenodd" fill="#71787C" d="M177.941,87.829c-0.026-0.33-0.09-0.709-0.166-1.002
		c-0.254,0.113-0.658,0.203-0.965,0.203c-0.646,0-0.888-0.203-0.888-0.99v-3.705h1.599c0.052-0.33,0.076-0.672,0.076-0.99h-1.675
		V79.72c-0.33,0.027-0.836,0.115-1.144,0.205v1.42h-0.787v0.99h0.787v3.617c0,1.457,0.562,2.145,1.93,2.145
		C177.064,88.097,177.598,87.995,177.941,87.829z"/>
	<path fill-rule="evenodd" clip-rule="evenodd" fill="#71787C" d="M181.862,82.106c0.85,0,1.332,0.471,1.332,1.563
		c0,0.088,0,0.301-0.011,0.406h-2.769C180.454,82.677,180.986,82.106,181.862,82.106z M184.325,83.907
		c0-1.701-0.827-2.689-2.438-2.689c-1.55,0-2.717,1.078-2.717,3.527c0,2.246,1.055,3.352,3.032,3.352c0.637,0,1.5-0.152,2.006-0.434
		c-0.05-0.342-0.165-0.76-0.279-1.064c-0.393,0.242-1.09,0.42-1.7,0.42c-1.408,0-1.827-0.674-1.827-2.057V84.86h3.883
		C184.311,84.556,184.325,84.187,184.325,83.907z"/>
	<path fill-rule="evenodd" clip-rule="evenodd" fill="#71787C" d="M194.844,87.97v-4.748c0-1.496-0.852-2.004-1.893-2.004
		c-0.734,0-1.332,0.229-2.03,0.889c-0.29-0.648-0.86-0.889-1.534-0.889s-1.143,0.203-1.752,0.75h-0.063v-0.648
		c-0.344,0-0.824,0.025-1.13,0.076v6.574h1.13v-5.205c0.456-0.328,0.927-0.518,1.448-0.518c0.747,0,1.041,0.404,1.041,1.039v4.684
		h1.14v-5.178c0.445-0.355,0.852-0.545,1.448-0.545c0.774,0,1.053,0.418,1.053,1.039v4.684H194.844z"/>
	<path fill-rule="evenodd" clip-rule="evenodd" fill="#71787C" d="M201.188,86.128c0-2.246-3.097-1.865-3.097-3.02
		c0-0.609,0.355-0.889,1.015-0.889c0.545,0,1.218,0.09,1.687,0.242c0.077-0.33,0.153-0.736,0.166-1.053
		c-0.494-0.141-1.13-0.191-1.548-0.191c-1.358,0-2.487,0.686-2.487,2.031c0,2.055,3.07,1.623,3.07,2.943
		c0,0.547-0.291,0.863-1.027,0.863c-0.623,0-1.346-0.141-1.866-0.406c-0.127,0.33-0.202,0.66-0.291,1.027
		c0.521,0.279,1.282,0.42,1.929,0.42C200.046,88.097,201.188,87.499,201.188,86.128z"/>
	<path fill-rule="evenodd" clip-rule="evenodd" fill="#71787C" d="M90.639,72.073h-3.743v-2.83h2.602v-1.078h-2.602v-2.461h3.438
		c0.063-0.344,0.102-0.764,0.102-1.092h-4.784v8.553h4.886C90.601,72.81,90.639,72.415,90.639,72.073z"/>
	<path fill-rule="evenodd" clip-rule="evenodd" fill="#71787C" d="M97.707,73.165v-4.732c0-1.537-0.875-2.02-1.877-2.02
		c-0.686,0-1.295,0.178-1.955,0.75h-0.063v-0.648c-0.343,0-0.825,0.027-1.129,0.076v6.574h1.129v-5.203
		c0.507-0.344,1.014-0.52,1.649-0.52c0.825,0,1.104,0.391,1.104,1.039v4.684H97.707z"/>
	<path fill-rule="evenodd" clip-rule="evenodd" fill="#71787C" d="M103.556,68.546c0,0.939-0.469,1.295-1.243,1.295
		c-0.774,0-1.217-0.395-1.217-1.295c0-0.877,0.417-1.307,1.217-1.307C103.087,67.239,103.556,67.593,103.556,68.546z
		 M104.203,73.696c0,0.902-0.659,1.258-1.764,1.258c-1.204,0-1.637-0.318-1.637-1.205c0-0.254,0.064-0.623,0.293-0.852h2.322
		C103.976,72.897,104.203,73.038,104.203,73.696z M105.295,73.597c0-1.32-0.723-1.752-1.828-1.752h-1.979
		c-0.253,0-0.381-0.113-0.381-0.406c0-0.164,0.088-0.506,0.381-0.875c0.229,0.063,0.57,0.127,0.913,0.127
		c1.231,0,2.221-0.66,2.221-2.107c0-0.43-0.114-0.811-0.356-1.092l0.013-0.049l0.875-0.064c0.063-0.266,0.089-0.57,0.089-0.836
		h-1.916c-0.306-0.064-0.698-0.129-1.041-0.129c-1.435,0-2.297,0.902-2.297,2.207c0,0.688,0.279,1.271,0.761,1.602
		c-0.318,0.391-0.61,1.09-0.711,1.482c0.063,0.307,0.204,0.623,0.368,0.891c-0.443,0.457-0.634,0.85-0.634,1.383
		c0,1.09,0.634,1.928,2.614,1.928C104.331,75.905,105.295,74.966,105.295,73.597z"/>
	<path fill-rule="evenodd" clip-rule="evenodd" fill="#71787C" d="M108.314,73.165v-6.623h-1.128v6.623H108.314z M108.417,64.712
		c0-0.379-0.216-0.723-0.66-0.723c-0.457,0-0.673,0.344-0.673,0.723c0,0.371,0.217,0.699,0.661,0.699
		C108.201,65.411,108.417,65.093,108.417,64.712z"/>
	<path fill-rule="evenodd" clip-rule="evenodd" fill="#71787C" d="M115.929,73.165v-4.732c0-1.537-0.876-2.02-1.878-2.02
		c-0.685,0-1.294,0.178-1.954,0.75h-0.064v-0.648c-0.342,0-0.824,0.027-1.128,0.076v6.574h1.128v-5.203
		c0.508-0.344,1.016-0.52,1.65-0.52c0.825,0,1.104,0.391,1.104,1.039v4.684H115.929z"/>
	<path fill-rule="evenodd" clip-rule="evenodd" fill="#71787C" d="M120.675,67.302c0.85,0,1.332,0.471,1.332,1.561
		c0,0.09,0,0.305-0.013,0.406h-2.766C119.266,67.874,119.799,67.302,120.675,67.302z M123.136,69.104
		c0-1.701-0.824-2.691-2.436-2.691c-1.548,0-2.715,1.078-2.715,3.529c0,2.246,1.054,3.35,3.033,3.35
		c0.635,0,1.497-0.152,2.005-0.432c-0.05-0.342-0.165-0.762-0.279-1.066c-0.393,0.24-1.091,0.42-1.701,0.42
		c-1.408,0-1.827-0.674-1.827-2.057v-0.102h3.883C123.124,69.751,123.136,69.382,123.136,69.104z"/>
	<path fill-rule="evenodd" clip-rule="evenodd" fill="#71787C" d="M127.476,67.302c0.851,0,1.333,0.471,1.333,1.561
		c0,0.09,0,0.305-0.012,0.406h-2.768C126.068,67.874,126.6,67.302,127.476,67.302z M129.938,69.104c0-1.701-0.825-2.691-2.436-2.691
		c-1.548,0-2.716,1.078-2.716,3.529c0,2.246,1.054,3.35,3.032,3.35c0.635,0,1.498-0.152,2.005-0.432
		c-0.05-0.342-0.165-0.762-0.278-1.066c-0.394,0.24-1.092,0.42-1.701,0.42c-1.409,0-1.827-0.674-1.827-2.057v-0.102h3.882
		C129.925,69.751,129.938,69.382,129.938,69.104z"/>
	<path fill-rule="evenodd" clip-rule="evenodd" fill="#71787C" d="M135.343,66.478c-0.152-0.051-0.369-0.064-0.507-0.064
		c-0.407,0-0.864,0.078-1.586,0.939h-0.064v-0.838c-0.343,0-0.824,0.027-1.13,0.076v6.574h1.13v-4.924
		c0.571-0.559,1.015-0.648,1.472-0.648c0.215,0,0.432,0.039,0.571,0.076C135.292,67.29,135.343,66.858,135.343,66.478z"/>
	<path fill-rule="evenodd" clip-rule="evenodd" fill="#71787C" d="M138.186,73.165v-6.623h-1.13v6.623H138.186z M138.287,64.712
		c0-0.379-0.216-0.723-0.66-0.723c-0.457,0-0.672,0.344-0.672,0.723c0,0.371,0.215,0.699,0.659,0.699
		C138.071,65.411,138.287,65.093,138.287,64.712z"/>
	<path fill-rule="evenodd" clip-rule="evenodd" fill="#71787C" d="M145.799,73.165v-4.732c0-1.537-0.875-2.02-1.879-2.02
		c-0.685,0-1.294,0.178-1.953,0.75h-0.063v-0.648c-0.343,0-0.825,0.027-1.13,0.076v6.574h1.13v-5.203
		c0.507-0.344,1.015-0.52,1.648-0.52c0.824,0,1.104,0.391,1.104,1.039v4.684H145.799z"/>
	<path fill-rule="evenodd" clip-rule="evenodd" fill="#71787C" d="M151.649,68.546c0,0.939-0.471,1.295-1.244,1.295
		c-0.774,0-1.219-0.395-1.219-1.295c0-0.877,0.419-1.307,1.219-1.307C151.179,67.239,151.649,67.593,151.649,68.546z
		 M152.294,73.696c0,0.902-0.658,1.258-1.764,1.258c-1.202,0-1.636-0.318-1.636-1.205c0-0.254,0.065-0.623,0.292-0.852h2.321
		C152.068,72.897,152.294,73.038,152.294,73.696z M153.388,73.597c0-1.32-0.724-1.752-1.828-1.752h-1.979
		c-0.253,0-0.382-0.113-0.382-0.406c0-0.164,0.088-0.506,0.382-0.875c0.227,0.063,0.57,0.127,0.913,0.127
		c1.231,0,2.22-0.66,2.22-2.107c0-0.43-0.113-0.811-0.355-1.092l0.013-0.049l0.876-0.064c0.064-0.266,0.088-0.57,0.088-0.836h-1.916
		c-0.303-0.064-0.696-0.129-1.038-0.129c-1.436,0-2.296,0.902-2.296,2.207c0,0.688,0.278,1.271,0.759,1.602
		c-0.316,0.391-0.609,1.09-0.711,1.482c0.064,0.307,0.203,0.623,0.368,0.891c-0.444,0.457-0.634,0.85-0.634,1.383
		c0,1.09,0.634,1.928,2.614,1.928C152.422,75.905,153.388,74.966,153.388,73.597z"/>
	<path fill-rule="evenodd" clip-rule="evenodd" fill="#71787C" d="M162.713,70.843c0-2.602-3.882-2.461-3.882-4.086
		c0-0.709,0.354-1.207,1.511-1.207c0.545,0,1.269,0.09,1.789,0.23c0.102-0.332,0.178-0.826,0.189-1.105
		c-0.533-0.127-1.256-0.191-1.801-0.191c-1.715,0-2.944,0.838-2.944,2.387c0,2.475,3.881,2.26,3.881,4.086
		c0,0.826-0.505,1.27-1.483,1.27c-0.712,0-1.46-0.127-2.133-0.42c-0.113,0.305-0.227,0.725-0.278,1.092
		c0.686,0.293,1.587,0.395,2.297,0.395C161.622,73.292,162.713,72.339,162.713,70.843z"/>
	<path fill-rule="evenodd" clip-rule="evenodd" fill="#71787C" d="M166.977,67.302c0.853,0,1.332,0.471,1.332,1.561
		c0,0.09,0,0.305-0.011,0.406h-2.768C165.568,67.874,166.102,67.302,166.977,67.302z M169.439,69.104
		c0-1.701-0.825-2.691-2.437-2.691c-1.55,0-2.717,1.078-2.717,3.529c0,2.246,1.054,3.35,3.034,3.35c0.634,0,1.498-0.152,2.003-0.432
		c-0.049-0.342-0.162-0.762-0.278-1.066c-0.392,0.24-1.091,0.42-1.7,0.42c-1.408,0-1.827-0.674-1.827-2.057v-0.102h3.884
		C169.427,69.751,169.439,69.382,169.439,69.104z"/>
	<path fill-rule="evenodd" clip-rule="evenodd" fill="#71787C" d="M174.845,66.478c-0.153-0.051-0.367-0.064-0.508-0.064
		c-0.405,0-0.863,0.078-1.587,0.939h-0.062v-0.838c-0.342,0-0.826,0.027-1.129,0.076v6.574h1.129v-4.924
		c0.57-0.559,1.014-0.648,1.47-0.648c0.218,0,0.434,0.039,0.573,0.076C174.793,67.29,174.845,66.858,174.845,66.478z"/>
	<path fill-rule="evenodd" clip-rule="evenodd" fill="#71787C" d="M181.354,66.591c-0.318-0.049-0.749-0.076-1.093-0.076
		l-1.521,4.67c-0.077,0.242-0.126,0.482-0.178,0.799h-0.064c-0.037-0.291-0.09-0.545-0.165-0.773l-1.547-4.695
		c-0.33,0-0.823,0.027-1.13,0.076c0.608,2.184,1.421,4.529,2.221,6.574h1.218C179.958,70.97,180.705,68.849,181.354,66.591z"/>
	<path fill-rule="evenodd" clip-rule="evenodd" fill="#71787C" d="M184.172,73.165v-6.623h-1.13v6.623H184.172z M184.273,64.712
		c0-0.379-0.217-0.723-0.662-0.723c-0.456,0-0.671,0.344-0.671,0.723c0,0.371,0.215,0.699,0.658,0.699
		C184.057,65.411,184.273,65.093,184.273,64.712z"/>
	<path fill-rule="evenodd" clip-rule="evenodd" fill="#71787C" d="M190.974,72.909c-0.04-0.354-0.142-0.748-0.242-1.064
		c-0.393,0.229-0.965,0.355-1.446,0.355c-1.218,0-1.778-0.508-1.778-2.436c0-1.715,0.622-2.26,1.65-2.26
		c0.468,0,0.978,0.076,1.422,0.268c0.113-0.344,0.203-0.762,0.24-1.092c-0.467-0.178-1.179-0.268-1.726-0.268
		c-1.522,0-2.803,1.016-2.803,3.555c0,2.207,1.014,3.324,2.967,3.324C189.755,73.292,190.54,73.165,190.974,72.909z"/>
	<path fill-rule="evenodd" clip-rule="evenodd" fill="#71787C" d="M195.109,67.302c0.849,0,1.332,0.471,1.332,1.561
		c0,0.09,0,0.305-0.012,0.406h-2.768C193.701,67.874,194.233,67.302,195.109,67.302z M197.57,69.104
		c0-1.701-0.825-2.691-2.436-2.691c-1.549,0-2.716,1.078-2.716,3.529c0,2.246,1.054,3.35,3.031,3.35
		c0.637,0,1.499-0.152,2.006-0.432c-0.049-0.342-0.165-0.762-0.278-1.066c-0.392,0.24-1.091,0.42-1.7,0.42
		c-1.409,0-1.827-0.674-1.827-2.057v-0.102h3.882C197.558,69.751,197.57,69.382,197.57,69.104z"/>
	<path fill-rule="evenodd" clip-rule="evenodd" fill="#71787C" d="M203.509,71.325c0-2.248-3.095-1.865-3.095-3.021
		c0-0.607,0.355-0.887,1.014-0.887c0.545,0,1.218,0.088,1.688,0.24c0.076-0.33,0.152-0.736,0.164-1.055
		c-0.493-0.139-1.129-0.189-1.545-0.189c-1.361,0-2.49,0.686-2.49,2.031c0,2.055,3.071,1.625,3.071,2.943
		c0,0.545-0.292,0.863-1.027,0.863c-0.621,0-1.345-0.141-1.866-0.406c-0.126,0.33-0.202,0.66-0.292,1.027
		c0.521,0.279,1.284,0.42,1.93,0.42C202.367,73.292,203.509,72.696,203.509,71.325z"/>
	<path fill-rule="evenodd" clip-rule="evenodd" fill="#71787C" d="M211.39,71.87c-0.406,0.291-1.029,0.496-1.548,0.496
		c-0.697,0-1.004-0.279-1.004-0.965c0-0.775,0.307-1.066,1.194-1.105l1.357-0.064V71.87z M213.596,72.161h-0.734
		c-0.291,0-0.38-0.113-0.38-0.43V67.06c-0.572-0.443-1.548-0.646-2.424-0.646c-0.646,0-1.181,0.09-1.752,0.256
		c0.012,0.342,0.076,0.76,0.151,1.037c0.368-0.162,1.003-0.277,1.549-0.277c0.508,0,1.064,0.115,1.384,0.291v1.715l-1.321,0.051
		c-1.572,0.063-2.385,0.596-2.385,1.992c0,1.242,0.787,1.814,1.929,1.814c0.659,0,1.243-0.189,1.853-0.686h0.053
		c0.214,0.545,0.658,0.686,1.203,0.686c0.508,0,0.875-0.217,0.875-0.787V72.161z"/>
	<path fill-rule="evenodd" clip-rule="evenodd" fill="#71787C" d="M220.183,73.165v-4.732c0-1.537-0.875-2.02-1.878-2.02
		c-0.685,0-1.295,0.178-1.954,0.75h-0.063v-0.648c-0.343,0-0.826,0.027-1.129,0.076v6.574h1.129v-5.203
		c0.506-0.344,1.014-0.52,1.648-0.52c0.825,0,1.104,0.391,1.104,1.039v4.684H220.183z"/>
	<path fill-rule="evenodd" clip-rule="evenodd" fill="#71787C" d="M227.57,73.165v-9.441c-0.344,0-0.84,0.039-1.144,0.088v2.83
		c-0.382-0.139-0.862-0.229-1.283-0.229c-1.751,0-2.906,1.041-2.906,3.643c0,2.258,0.914,3.236,2.322,3.236
		c0.686,0,1.246-0.178,1.804-0.686h0.063v0.559H227.57z M226.427,71.819c-0.482,0.318-0.977,0.443-1.512,0.443
		c-0.963,0-1.458-0.494-1.458-2.346c0-1.93,0.621-2.5,1.739-2.5c0.392,0,0.912,0.1,1.23,0.279V71.819z"/>
	<path fill-rule="evenodd" clip-rule="evenodd" fill="#71787C" d="M237.592,70.843c0-2.602-3.882-2.461-3.882-4.086
		c0-0.709,0.354-1.207,1.509-1.207c0.545,0,1.271,0.09,1.791,0.23c0.102-0.332,0.178-0.826,0.189-1.105
		c-0.531-0.127-1.258-0.191-1.802-0.191c-1.714,0-2.943,0.838-2.943,2.387c0,2.475,3.882,2.26,3.882,4.086
		c0,0.826-0.508,1.27-1.485,1.27c-0.71,0-1.457-0.127-2.131-0.42c-0.113,0.305-0.229,0.725-0.279,1.092
		c0.688,0.293,1.587,0.395,2.298,0.395C236.502,73.292,237.592,72.339,237.592,70.843z"/>
	<path fill-rule="evenodd" clip-rule="evenodd" fill="#71787C" d="M243.646,69.853c0,1.865-0.635,2.449-1.663,2.449
		c-1.027,0-1.586-0.598-1.586-2.449c0-1.891,0.674-2.449,1.623-2.449C243.023,67.403,243.646,68.024,243.646,69.853z
		 M244.865,69.853c0-2.5-1.207-3.439-2.846-3.439c-1.675,0-2.854,1.244-2.854,3.439c0,2.424,1.117,3.439,2.816,3.439
		C243.607,73.292,244.865,72.161,244.865,69.853z"/>
	<path fill-rule="evenodd" clip-rule="evenodd" fill="#71787C" d="M249.89,63.774c-0.166-0.025-0.447-0.051-0.648-0.051
		c-1.042,0-1.979,0.736-1.979,2.068v0.75h-0.787v0.988h0.787v5.635h1.127V67.53h1.396c0.052-0.318,0.089-0.66,0.089-0.988h-1.485
		v-0.838c0-0.648,0.242-0.939,0.813-0.939c0.179,0,0.481,0.012,0.609,0.039C249.875,64.472,249.89,64.104,249.89,63.774z"/>
	<path fill-rule="evenodd" clip-rule="evenodd" fill="#71787C" d="M254.989,73.024c-0.025-0.328-0.09-0.711-0.163-1.002
		c-0.254,0.115-0.661,0.203-0.966,0.203c-0.648,0-0.891-0.203-0.891-0.99V67.53h1.603c0.049-0.33,0.073-0.672,0.073-0.988h-1.676
		v-1.625c-0.327,0.023-0.835,0.113-1.142,0.203v1.422h-0.783v0.988h0.783v3.617c0,1.459,0.56,2.145,1.929,2.145
		C254.113,73.292,254.646,73.19,254.989,73.024z"/>
	<path fill-rule="evenodd" clip-rule="evenodd" fill="#71787C" d="M264.835,66.591c-0.289-0.049-0.697-0.076-1.014-0.076
		l-0.951,4.48c-0.065,0.291-0.115,0.582-0.153,0.9h-0.051c-0.049-0.318-0.126-0.648-0.203-0.889l-1.408-4.465h-1.091l-1.396,4.453
		c-0.089,0.279-0.154,0.621-0.189,0.9h-0.065c-0.024-0.279-0.076-0.621-0.126-0.877l-0.977-4.504c-0.318,0-0.788,0.027-1.105,0.076
		c0.393,2.234,0.926,4.506,1.562,6.574h1.154l1.409-4.504c0.076-0.242,0.153-0.521,0.189-0.828h0.052
		c0.038,0.307,0.102,0.586,0.177,0.814l1.459,4.518h1.143C263.924,70.97,264.443,68.825,264.835,66.591z"/>
	<path fill-rule="evenodd" clip-rule="evenodd" fill="#71787C" d="M269.963,71.87c-0.404,0.291-1.029,0.496-1.548,0.496
		c-0.697,0-1.004-0.279-1.004-0.965c0-0.775,0.307-1.066,1.193-1.105l1.358-0.064V71.87z M272.171,72.161h-0.735
		c-0.292,0-0.381-0.113-0.381-0.43V67.06c-0.573-0.443-1.549-0.646-2.424-0.646c-0.647,0-1.18,0.09-1.752,0.256
		c0.013,0.342,0.075,0.76,0.153,1.037c0.367-0.162,1.001-0.277,1.547-0.277c0.509,0,1.067,0.115,1.384,0.291v1.715l-1.32,0.051
		c-1.573,0.063-2.385,0.596-2.385,1.992c0,1.242,0.786,1.814,1.929,1.814c0.661,0,1.243-0.189,1.853-0.686h0.052
		c0.214,0.545,0.659,0.686,1.204,0.686c0.508,0,0.876-0.217,0.876-0.787V72.161z"/>
	<path fill-rule="evenodd" clip-rule="evenodd" fill="#71787C" d="M277.018,66.478c-0.153-0.051-0.367-0.064-0.508-0.064
		c-0.405,0-0.86,0.078-1.587,0.939h-0.062v-0.838c-0.342,0-0.826,0.027-1.129,0.076v6.574h1.129v-4.924
		c0.57-0.559,1.014-0.648,1.47-0.648c0.218,0,0.434,0.039,0.573,0.076C276.968,67.29,277.018,66.858,277.018,66.478z"/>
	<path fill-rule="evenodd" clip-rule="evenodd" fill="#71787C" d="M280.951,67.302c0.85,0,1.334,0.471,1.334,1.561
		c0,0.09,0,0.305-0.014,0.406h-2.767C279.544,67.874,280.077,67.302,280.951,67.302z M283.414,69.104
		c0-1.701-0.826-2.691-2.438-2.691c-1.548,0-2.716,1.078-2.716,3.529c0,2.246,1.054,3.35,3.034,3.35
		c0.634,0,1.498-0.152,2.003-0.432c-0.049-0.342-0.165-0.762-0.277-1.066c-0.394,0.24-1.092,0.42-1.7,0.42
		c-1.408,0-1.828-0.674-1.828-2.057v-0.102h3.883C283.399,69.751,283.414,69.382,283.414,69.104z"/>
</g>
<path fill="#5E6A71" d="M50.532,0h2.373c5.409,0,9.793,4.383,9.793,9.792l0.037,13.905c2.013-1.324,4.299-1.76,7.028-1.924
	c0.622-0.037,1.902,0.035,2.508,0.105v12.913l-1.107-0.014c-4.541,0-8.224,2.703-8.224,8.803c0,6.372,4.807,8.8,8.224,8.8
	l1.377,0.002l0.061,12.711c-0.605,0.07-2.217,0.104-2.84,0.104c-7.219,0-13.479-4.758-16.586-11.73
	c-2.061-4.536-2.266-9.208-2.541-14.36C50.58,38.294,50.532,0,50.532,0L50.532,0z M29.754,0h2.372c5.409,0,9.793,4.383,9.793,9.792
	l0.06,28.036c0.046,1.524,0.064,7.274,0.821,9.146c0.969,2.399,2.851,4.272,5.209,5.033V65.17
	c-6.839-0.41-12.705-5.095-15.657-11.808c-2.015-4.432-2.22-9.104-2.495-14.256C29.802,38.294,29.754,0,29.754,0L29.754,0z M9.24,0
	h2.373c5.408,0,9.792,4.383,9.792,9.792l0.06,28.036c0.047,1.524,0.064,7.274,0.821,9.146c0.969,2.399,2.85,4.272,5.209,5.033V65.17
	c-6.84-0.41-12.705-5.095-15.658-11.808c-1.437-3.161-1.954-6.446-2.23-9.943c-0.119-0.811-0.239-1.759-0.575-2.551
	C7.461,37.167,3.778,35.074,0,35.038v-13.06c3.26-0.011,6.453,0.799,9.288,2.31L9.24,0L9.24,0z"/>
<g>
	<path fill="#981E32" d="M92.899,37.628h-4.018v14.62h-3.24v-14.62h-4.174v-2.853h11.692C93.159,35.683,93.055,36.747,92.899,37.628
		z"/>
	<path fill="#981E32" d="M105.266,52.248h-9.644V34.775h3.241v14.596h6.637C105.499,50.33,105.396,51.314,105.266,52.248z"/>
	<path fill="#981E32" d="M115.039,42.319c2.281,3.11,4.329,6.222,6.455,9.774c-1.063,0.207-2.386,0.311-3.37,0.311l-5.081-7.727
		l-1.711,2.023v5.547h-3.189V34.775h3.189v7.7h0.156l6.248-7.855c0.881,0,2.541,0.129,3.396,0.311L115.039,42.319z"/>
	<path fill="#981E32" d="M122.375,45.793v-2.462h4.874v2.462H122.375z"/>
	<path fill="#981E32" d="M139.562,37.628h-4.018v14.62h-3.24v-14.62h-4.174v-2.853h11.692
		C139.821,35.683,139.718,36.747,139.562,37.628z"/>
	<path fill="#981E32" d="M149.983,52.248V42.89c0-1.063-0.338-1.814-2.022-1.814c-1.114,0-1.996,0.313-2.826,0.881v10.292h-2.955
		v-19.08c0.83-0.104,2.022-0.207,2.955-0.207v7.026h0.156c1.244-1.115,2.358-1.531,3.732-1.531c2.308,0,3.914,1.245,3.914,4.148
		v9.644H149.983z"/>
	<path fill="#981E32" d="M166.316,46.234h-7.623v0.233c0,2.203,0.7,3.241,3.268,3.241c1.218,0,2.773-0.365,3.577-0.831
		c0.284,0.777,0.544,1.866,0.675,2.775c-1.115,0.544-3.034,0.855-4.304,0.855c-4.148,0-6.456-2.282-6.456-6.846
		c0-4.873,2.438-7.207,5.781-7.207c3.552,0,5.185,2.229,5.185,5.781C166.419,44.808,166.394,45.612,166.316,46.234z M158.72,44.237
		h4.692c0.025-0.154,0.025-0.596,0.025-0.752c0-1.918-0.752-2.773-2.254-2.773C159.628,40.712,158.745,41.774,158.72,44.237z"/>
	<path fill="#981E32" d="M175.934,41.671c-0.311-0.078-0.778-0.129-1.219-0.129c-0.933,0-1.788,0.207-2.722,0.934v9.772h-2.955
		V38.819c0.83-0.104,2.022-0.182,2.955-0.182v1.736h0.156c1.348-1.762,2.229-1.918,3.085-1.918c0.259,0,0.673,0.053,0.984,0.156
		C176.219,39.622,176.09,40.686,175.934,41.671z"/>
	<path fill="#981E32" d="M193.224,52.248v-9.386c0-1.088-0.44-1.787-1.84-1.787c-0.985,0-1.764,0.313-2.489,0.881v10.292h-2.955
		V42.89c0-1.141-0.44-1.814-1.789-1.814c-0.907,0-1.763,0.313-2.54,0.881v10.292h-2.956V38.819c0.83-0.104,2.022-0.182,2.956-0.182
		v1.35h0.155c1.244-1.115,2.178-1.531,3.5-1.531c1.349,0,2.437,0.468,3.033,1.764c1.348-1.348,2.514-1.764,3.966-1.764
		c2.204,0,3.915,1.141,3.915,4.148v9.644H193.224z"/>
	<path fill="#981E32" d="M204.657,52.509c-3.552,0-5.964-2.127-5.964-7.026c0-4.434,2.516-7.026,6.041-7.026
		c3.423,0,6.015,1.972,6.015,7.026C210.749,50.096,208.078,52.509,204.657,52.509z M204.709,40.997
		c-1.736,0-2.827,1.142-2.827,4.485c0,3.317,0.908,4.484,2.775,4.484c1.865,0,2.929-1.141,2.929-4.484
		C207.586,42.215,206.55,40.997,204.709,40.997z"/>
	<path fill="#981E32" d="M226.483,52.509c-5.081,0-7.673-3.19-7.673-9.023c0-6.273,3.292-8.969,7.907-8.969
		c1.658,0,3.681,0.285,4.95,0.829c-0.052,0.856-0.284,2.022-0.518,2.955c-1.088-0.569-2.8-0.933-4.252-0.933
		c-2.852,0-4.613,1.244-4.613,6.246c0,4.408,1.554,6.041,4.25,6.041c0.7,0,1.738-0.104,2.282-0.312v-3.577h-2.644
		c-0.156-0.829-0.26-1.865-0.26-2.773h6.093v8.349C230.787,51.963,228.531,52.509,226.483,52.509z"/>
	<path fill="#981E32" d="M249.842,52.248v-9.386c0-1.088-0.44-1.787-1.841-1.787c-0.984,0-1.763,0.313-2.488,0.881v10.292h-2.956
		V42.89c0-1.141-0.44-1.814-1.788-1.814c-0.907,0-1.764,0.313-2.541,0.881v10.292h-2.955V38.819c0.83-0.104,2.022-0.182,2.955-0.182
		v1.35h0.156c1.244-1.115,2.177-1.531,3.5-1.531c1.348,0,2.437,0.468,3.033,1.764c1.348-1.348,2.514-1.764,3.966-1.764
		c2.203,0,3.915,1.141,3.915,4.148v9.644H249.842z"/>
	<path fill="#981E32" d="M261.481,52.509c-2.023,0-3.863-0.469-5.264-1.558V33.168c0.83-0.104,2.022-0.207,2.956-0.207v6.923h0.155
		c1.089-1.09,2.101-1.428,3.37-1.428c2.748,0,4.873,1.789,4.873,6.508C267.572,49.786,265.318,52.509,261.481,52.509z
		 M261.791,41.075c-0.984,0-1.893,0.313-2.617,0.934v7.362c0.544,0.388,1.373,0.57,2.151,0.57c2.152,0,3.085-1.245,3.085-4.692
		C264.41,42.009,263.503,41.075,261.791,41.075z"/>
	<path fill="#981E32" d="M280.225,52.248v-7.647h-6.688v7.647h-3.241V34.775h3.241v6.922h6.688v-6.922h3.24v17.473H280.225z"/>
</g>
</svg>
