<?xml version="1.0" encoding="UTF-8"?>
<svg id="XRG-Logo" xmlns="http://www.w3.org/2000/svg" xmlns:xlink="http://www.w3.org/1999/xlink" viewBox="0 0 510.7 224.35">
  <defs>
    <style>
      .cls-1 {
        fill: url(#Unbenannter_Verlauf-3);
      }

      .cls-2 {
        fill: url(#Unbenannter_Verlauf_299);
      }

      .cls-3 {
        fill: url(#Unbenannter_Verlauf_149-7);
      }

      .cls-3, .cls-4, .cls-5, .cls-6, .cls-7, .cls-8 {
        fill-rule: evenodd;
      }

      .cls-9 {
        fill: url(#Unbenannter_Verlauf_139);
      }

      .cls-10 {
        fill: url(#Unbenannter_Verlauf_299-3);
      }

      .cls-11 {
        fill: url(#Unbenannter_Verlauf_49);
      }

      .cls-12 {
        fill: url(#Unbenannter_Verlauf_149-13);
      }

      .cls-13 {
        fill: url(#Unbenannter_Verlauf_24-2);
      }

      .cls-14 {
        fill: url(#Unbenannter_Verlauf_146);
      }

      .cls-15 {
        fill: url(#Unbenannter_Verlauf_56-2);
      }

      .cls-4 {
        fill: url(#Unbenannter_Verlauf_149-3);
      }

      .cls-16 {
        fill: url(#Unbenannter_Verlauf_192);
      }

      .cls-17 {
        fill: url(#Unbenannter_Verlauf_78);
      }

      .cls-18 {
        fill: url(#Unbenannter_Verlauf_47);
      }

      .cls-19 {
        fill: url(#Unbenannter_Verlauf_3);
      }

      .cls-20 {
        fill: url(#Unbenannter_Verlauf_24-3);
      }

      .cls-21 {
        fill: #1d1d1b;
      }

      .cls-22 {
        fill: url(#Unbenannter_Verlauf_149-2);
      }

      .cls-23 {
        fill: url(#Unbenannter_Verlauf_24-8);
      }

      .cls-24 {
        fill: url(#Unbenannter_Verlauf_192-3);
      }

      .cls-25 {
        fill: url(#Unbenannter_Verlauf_175-3);
      }

      .cls-26 {
        fill: url(#Unbenannter_Verlauf_127);
      }

      .cls-27 {
        fill: url(#Unbenannter_Verlauf_149-15);
      }

      .cls-28 {
        fill: url(#Unbenannter_Verlauf_24-4);
      }

      .cls-29 {
        fill: url(#Unbenannter_Verlauf_24-9);
      }

      .cls-30 {
        fill: url(#Unbenannter_Verlauf_24-7);
      }

      .cls-31 {
        fill: url(#Unbenannter_Verlauf_131);
      }

      .cls-32 {
        fill: none;
      }

      .cls-33 {
        fill: url(#Unbenannter_Verlauf_115);
      }

      .cls-34 {
        fill: url(#Unbenannter_Verlauf_24-6);
      }

      .cls-35 {
        fill: url(#Unbenannter_Verlauf_56);
      }

      .cls-5 {
        fill: url(#Unbenannter_Verlauf_149-10);
      }

      .cls-36 {
        fill: url(#Unbenannter_Verlauf_24-5);
      }

      .cls-6 {
        fill: url(#Unbenannter_Verlauf-2);
      }

      .cls-37 {
        fill: url(#Unbenannter_Verlauf_294);
      }

      .cls-38 {
        fill: url(#Unbenannter_Verlauf_140);
      }

      .cls-39 {
        fill: url(#Unbenannter_Verlauf_117);
      }

      .cls-40 {
        fill: url(#Unbenannter_Verlauf_192-2);
      }

      .cls-41 {
        fill: url(#Unbenannter_Verlauf_149-6);
      }

      .cls-7 {
        fill: url(#Unbenannter_Verlauf_149-9);
      }

      .cls-42 {
        fill: url(#Unbenannter_Verlauf_9-3);
      }

      .cls-43 {
        fill: url(#Unbenannter_Verlauf_56-4);
      }

      .cls-44 {
        fill: url(#Unbenannter_Verlauf_175);
      }

      .cls-45 {
        fill: url(#Unbenannter_Verlauf_149-11);
      }

      .cls-46 {
        fill: url(#Unbenannter_Verlauf_45-2);
      }

      .cls-47 {
        fill: url(#Unbenannter_Verlauf_294-2);
      }

      .cls-48 {
        fill: url(#Unbenannter_Verlauf_80);
      }

      .cls-49 {
        fill: url(#Unbenannter_Verlauf_24);
      }

      .cls-8 {
        fill: url(#Unbenannter_Verlauf_149-14);
      }

      .cls-50 {
        fill: url(#Unbenannter_Verlauf_294-3);
      }

      .cls-51 {
        fill: url(#Unbenannter_Verlauf);
      }

      .cls-52 {
        fill: url(#Unbenannter_Verlauf_149-5);
      }

      .cls-53 {
        fill: url(#Unbenannter_Verlauf_299-2);
      }

      .cls-54 {
        fill: url(#Unbenannter_Verlauf_175-2);
      }

      .cls-55 {
        fill: url(#Unbenannter_Verlauf_149-12);
      }

      .cls-56 {
        fill: url(#Unbenannter_Verlauf_9-2);
      }

      .cls-57 {
        fill: url(#Unbenannter_Verlauf_9);
      }

      .cls-58 {
        fill: url(#Unbenannter_Verlauf_56-3);
      }

      .cls-59 {
        fill: url(#Unbenannter_Verlauf_24-10);
      }

      .cls-60 {
        fill: url(#Unbenannter_Verlauf_149);
      }

      .cls-61 {
        fill: url(#Unbenannter_Verlauf_82);
      }

      .cls-62 {
        fill: #f7a600;
      }

      .cls-63 {
        fill: url(#Unbenannter_Verlauf_122);
      }

      .cls-64 {
        fill: url(#Unbenannter_Verlauf_149-4);
      }

      .cls-65 {
        fill: url(#Unbenannter_Verlauf_24-11);
      }

      .cls-66 {
        fill: url(#Unbenannter_Verlauf_149-8);
      }

      .cls-67 {
        fill: url(#Unbenannter_Verlauf_45);
      }
    </style>
    <linearGradient id="Unbenannter_Verlauf_9" data-name="Unbenannter Verlauf 9" x1="1.87" y1="39.6" x2="125.12" y2="39.6" gradientUnits="userSpaceOnUse">
      <stop offset="0" stop-color="#ed750a"/>
      <stop offset="1" stop-color="#fbc300"/>
    </linearGradient>
    <linearGradient id="Unbenannter_Verlauf_294" data-name="Unbenannter Verlauf 294" x1="11.57" y1="25.04" x2="1.69" y2="42.57" gradientUnits="userSpaceOnUse">
      <stop offset="0" stop-color="#e84e0f"/>
      <stop offset="1" stop-color="#c54409"/>
    </linearGradient>
    <linearGradient id="Unbenannter_Verlauf_299" data-name="Unbenannter Verlauf 299" x1="0" y1="48.54" x2="126.99" y2="48.54" gradientUnits="userSpaceOnUse">
      <stop offset="0" stop-color="#c4390a"/>
      <stop offset=".15" stop-color="#c53d09"/>
      <stop offset=".33" stop-color="#cb4b08"/>
      <stop offset=".51" stop-color="#d46107"/>
      <stop offset=".7" stop-color="#e08004"/>
      <stop offset=".89" stop-color="#f0a801"/>
      <stop offset="1" stop-color="#fbc300"/>
    </linearGradient>
    <linearGradient id="Unbenannter_Verlauf_175" data-name="Unbenannter Verlauf 175" x1="10.41" y1="29.77" x2="115.28" y2="29.17" gradientUnits="userSpaceOnUse">
      <stop offset="0" stop-color="#f9b233"/>
      <stop offset=".13" stop-color="#f6a42b"/>
      <stop offset=".5" stop-color="#f08218"/>
      <stop offset=".8" stop-color="#ed6d0c"/>
      <stop offset="1" stop-color="#ec6608"/>
    </linearGradient>
    <linearGradient id="Unbenannter_Verlauf_192" data-name="Unbenannter Verlauf 192" x1="115.18" y1="24.86" x2="125.37" y2="42.39" gradientUnits="userSpaceOnUse">
      <stop offset="0" stop-color="#ffde00"/>
      <stop offset="1" stop-color="#ffd301"/>
    </linearGradient>
    <linearGradient id="Unbenannter_Verlauf_9-2" data-name="Unbenannter Verlauf 9" y1="75.9" y2="75.9" xlink:href="#Unbenannter_Verlauf_9"/>
    <linearGradient id="Unbenannter_Verlauf_294-2" data-name="Unbenannter Verlauf 294" x1="11.57" y1="61.34" x2="1.69" y2="78.87" xlink:href="#Unbenannter_Verlauf_294"/>
    <linearGradient id="Unbenannter_Verlauf_299-2" data-name="Unbenannter Verlauf 299" y1="84.84" y2="84.84" xlink:href="#Unbenannter_Verlauf_299"/>
    <linearGradient id="Unbenannter_Verlauf_175-2" data-name="Unbenannter Verlauf 175" x1="10.41" y1="66.07" x2="115.28" y2="65.47" xlink:href="#Unbenannter_Verlauf_175"/>
    <linearGradient id="Unbenannter_Verlauf_192-2" data-name="Unbenannter Verlauf 192" x1="115.18" y1="61.16" x2="125.37" y2="78.69" xlink:href="#Unbenannter_Verlauf_192"/>
    <linearGradient id="Unbenannter_Verlauf_9-3" data-name="Unbenannter Verlauf 9" y1="111.25" y2="111.25" xlink:href="#Unbenannter_Verlauf_9"/>
    <linearGradient id="Unbenannter_Verlauf_294-3" data-name="Unbenannter Verlauf 294" y1="96.69" y2="114.22" xlink:href="#Unbenannter_Verlauf_294"/>
    <linearGradient id="Unbenannter_Verlauf_299-3" data-name="Unbenannter Verlauf 299" y1="120.19" y2="120.19" xlink:href="#Unbenannter_Verlauf_299"/>
    <linearGradient id="Unbenannter_Verlauf_175-3" data-name="Unbenannter Verlauf 175" y1="101.42" y2="100.82" xlink:href="#Unbenannter_Verlauf_175"/>
    <linearGradient id="Unbenannter_Verlauf_192-3" data-name="Unbenannter Verlauf 192" x1="115.18" y1="96.51" x2="125.37" y2="114.04" xlink:href="#Unbenannter_Verlauf_192"/>
    <linearGradient id="Unbenannter_Verlauf" data-name="Unbenannter Verlauf" x1="195.26" y1="-42.93" x2="195.26" y2="152.28" gradientUnits="userSpaceOnUse">
      <stop offset="0" stop-color="#fff"/>
      <stop offset="1" stop-color="#000"/>
    </linearGradient>
    <linearGradient id="Unbenannter_Verlauf-2" data-name="Unbenannter Verlauf" x1="319.72" y1="-42.93" x2="319.72" y2="152.28" xlink:href="#Unbenannter_Verlauf"/>
    <linearGradient id="Unbenannter_Verlauf-3" data-name="Unbenannter Verlauf" x1="440.19" y1="-42.93" x2="440.19" y2="152.28" xlink:href="#Unbenannter_Verlauf"/>
    <linearGradient id="Unbenannter_Verlauf_24" data-name="Unbenannter Verlauf 24" x1="155.91" y1="-35.03" x2="296.58" y2="133.87" gradientUnits="userSpaceOnUse">
      <stop offset="0" stop-color="#c6c6c6"/>
      <stop offset="1" stop-color="#3c3c3b"/>
    </linearGradient>
    <linearGradient id="Unbenannter_Verlauf_24-2" data-name="Unbenannter Verlauf 24" x1="143.72" y1="4.4" x2="184.9" y2="72.16" xlink:href="#Unbenannter_Verlauf_24"/>
    <linearGradient id="Unbenannter_Verlauf_24-3" data-name="Unbenannter Verlauf 24" x1="185.2" y1="76.56" x2="132.34" y2="153.7" xlink:href="#Unbenannter_Verlauf_24"/>
    <linearGradient id="Unbenannter_Verlauf_45" data-name="Unbenannter Verlauf 45" x1="145.89" y1="5.44" x2="164.01" y2="5.28" gradientUnits="userSpaceOnUse">
      <stop offset="0" stop-color="#c6c6c6"/>
      <stop offset="1" stop-color="#ededed"/>
    </linearGradient>
    <linearGradient id="Unbenannter_Verlauf_47" data-name="Unbenannter Verlauf 47" x1="193.7" y1="51.96" x2="166.75" y2="9.38" gradientUnits="userSpaceOnUse">
      <stop offset="0" stop-color="#c6c6c6"/>
      <stop offset="1" stop-color="#ededed"/>
    </linearGradient>
    <linearGradient id="Unbenannter_Verlauf_24-4" data-name="Unbenannter Verlauf 24" x1="114.46" y1="-.51" x2="255.13" y2="168.38" xlink:href="#Unbenannter_Verlauf_24"/>
    <linearGradient id="Unbenannter_Verlauf_78" data-name="Unbenannter Verlauf 78" x1="207.13" y1="73.78" x2="252.63" y2="149.11" gradientUnits="userSpaceOnUse">
      <stop offset="0" stop-color="#c6c6c6"/>
      <stop offset=".88" stop-color="#3c3c3b"/>
      <stop offset=".94" stop-color="#3a3a39"/>
      <stop offset=".96" stop-color="#333332"/>
      <stop offset=".98" stop-color="#282826"/>
      <stop offset=".99" stop-color="#1d1d1b"/>
    </linearGradient>
    <linearGradient id="Unbenannter_Verlauf_56" data-name="Unbenannter Verlauf 56" x1="252.52" y1="147.81" x2="229.6" y2="148.06" gradientUnits="userSpaceOnUse">
      <stop offset="0" stop-color="#1d1d1b"/>
      <stop offset=".09" stop-color="#272726"/>
      <stop offset=".24" stop-color="#333332"/>
      <stop offset=".45" stop-color="#3a3a39"/>
      <stop offset="1" stop-color="#3c3c3b"/>
    </linearGradient>
    <linearGradient id="Unbenannter_Verlauf_45-2" data-name="Unbenannter Verlauf 45" x1="226.05" y1="5.14" x2="251.29" y2="5.53" xlink:href="#Unbenannter_Verlauf_45"/>
    <linearGradient id="Unbenannter_Verlauf_49" data-name="Unbenannter Verlauf 49" x1="249.02" y1="5.96" x2="208.9" y2="70.13" gradientUnits="userSpaceOnUse">
      <stop offset="0" stop-color="#c6c6c6"/>
      <stop offset=".13" stop-color="#bcbcbc"/>
      <stop offset=".36" stop-color="#a2a2a2"/>
      <stop offset=".65" stop-color="#777"/>
      <stop offset=".99" stop-color="#3d3d3c"/>
      <stop offset="1" stop-color="#3c3c3b"/>
    </linearGradient>
    <linearGradient id="Unbenannter_Verlauf_56-2" data-name="Unbenannter Verlauf 56" x1="137.63" y1="147.92" x2="159.51" y2="147.85" xlink:href="#Unbenannter_Verlauf_56"/>
    <linearGradient id="Unbenannter_Verlauf_24-5" data-name="Unbenannter Verlauf 24" x1="197.81" y1="89.66" x2="158.07" y2="146.7" xlink:href="#Unbenannter_Verlauf_24"/>
    <linearGradient id="Unbenannter_Verlauf_82" data-name="Unbenannter Verlauf 82" x1="292.75" y1="79.01" x2="292.75" y2="14.07" gradientUnits="userSpaceOnUse">
      <stop offset="0" stop-color="#c6c6c6"/>
      <stop offset=".46" stop-color="#8d8d8c"/>
      <stop offset="1" stop-color="#3c3c3b"/>
    </linearGradient>
    <linearGradient id="Unbenannter_Verlauf_115" data-name="Unbenannter Verlauf 115" x1="310.46" y1="76.34" x2="316.27" y2="18.02" gradientUnits="userSpaceOnUse">
      <stop offset=".09" stop-color="#c6c6c6"/>
      <stop offset="1" stop-color="#3c3c3b"/>
    </linearGradient>
    <linearGradient id="Unbenannter_Verlauf_80" data-name="Unbenannter Verlauf 80" x1="311.68" y1="-1.91" x2="321.7" y2="88.87" gradientUnits="userSpaceOnUse">
      <stop offset="0" stop-color="#ededed"/>
      <stop offset=".51" stop-color="#b2b2b2"/>
      <stop offset="1" stop-color="#3c3c3b"/>
    </linearGradient>
    <linearGradient id="Unbenannter_Verlauf_24-6" data-name="Unbenannter Verlauf 24" x1="251.99" y1="-5.74" x2="381.65" y2="171.29" xlink:href="#Unbenannter_Verlauf_24"/>
    <linearGradient id="Unbenannter_Verlauf_56-3" data-name="Unbenannter Verlauf 56" x1="244.62" y1="-.34" x2="374.28" y2="176.69" xlink:href="#Unbenannter_Verlauf_56"/>
    <linearGradient id="Unbenannter_Verlauf_24-7" data-name="Unbenannter Verlauf 24" x1="238.29" y1="4.29" x2="367.96" y2="181.32" xlink:href="#Unbenannter_Verlauf_24"/>
    <linearGradient id="Unbenannter_Verlauf_24-8" data-name="Unbenannter Verlauf 24" x1="291.86" y1="87.06" x2="300.47" y2="87.18" xlink:href="#Unbenannter_Verlauf_24"/>
    <linearGradient id="Unbenannter_Verlauf_24-9" data-name="Unbenannter Verlauf 24" x1="292.62" y1="81.21" x2="292.78" y2="149.06" xlink:href="#Unbenannter_Verlauf_24"/>
    <linearGradient id="Unbenannter_Verlauf_24-10" data-name="Unbenannter Verlauf 24" x1="274.72" y1="5.06" x2="274.72" y2="148.95" xlink:href="#Unbenannter_Verlauf_24"/>
    <linearGradient id="Unbenannter_Verlauf_56-4" data-name="Unbenannter Verlauf 56" x1="198.24" y1="33.62" x2="327.91" y2="210.66" xlink:href="#Unbenannter_Verlauf_56"/>
    <linearGradient id="Unbenannter_Verlauf_131" data-name="Unbenannter Verlauf 131" x1="453.34" y1="70.14" x2="453.34" y2="97.82" gradientUnits="userSpaceOnUse">
      <stop offset="0" stop-color="#dadada"/>
      <stop offset="1" stop-color="#3c3c3b"/>
    </linearGradient>
    <linearGradient id="Unbenannter_Verlauf_139" data-name="Unbenannter Verlauf 139" x1="455.87" y1="90.78" x2="488.91" y2="90.78" gradientUnits="userSpaceOnUse">
      <stop offset="0" stop-color="#706f6f"/>
      <stop offset="1" stop-color="#3c3c3b"/>
    </linearGradient>
    <linearGradient id="Unbenannter_Verlauf_127" data-name="Unbenannter Verlauf 127" x1="511.72" y1="74.65" x2="447.91" y2="74.65" gradientUnits="userSpaceOnUse">
      <stop offset="0" stop-color="#c6c6c6"/>
      <stop offset="1" stop-color="#ededed"/>
    </linearGradient>
    <linearGradient id="Unbenannter_Verlauf_146" data-name="Unbenannter Verlauf 146" x1="400.4" y1="116.62" x2="392.9" y2="39.84" gradientUnits="userSpaceOnUse">
      <stop offset="0" stop-color="#c6c6c6"/>
      <stop offset=".5" stop-color="#fff"/>
      <stop offset="1" stop-color="#878787"/>
    </linearGradient>
    <linearGradient id="Unbenannter_Verlauf_140" data-name="Unbenannter Verlauf 140" x1="492.41" y1="97.04" x2="419.2" y2="129.14" gradientUnits="userSpaceOnUse">
      <stop offset="0" stop-color="#3c3c3b"/>
      <stop offset="1" stop-color="#c6c6c6"/>
    </linearGradient>
    <linearGradient id="Unbenannter_Verlauf_122" data-name="Unbenannter Verlauf 122" x1="381.08" y1="25.4" x2="381.56" y2="126.36" gradientUnits="userSpaceOnUse">
      <stop offset="0" stop-color="#b2b2b2"/>
      <stop offset="1" stop-color="#3c3c3b"/>
    </linearGradient>
    <linearGradient id="Unbenannter_Verlauf_3" data-name="Unbenannter Verlauf 3" x1="404.17" y1="149.33" x2="519.41" y2="91.71" gradientUnits="userSpaceOnUse">
      <stop offset="0" stop-color="#3c3c3b"/>
      <stop offset="1" stop-color="#bbbaba"/>
    </linearGradient>
    <linearGradient id="Unbenannter_Verlauf_117" data-name="Unbenannter Verlauf 117" x1="397.9" y1="-4.97" x2="489.06" y2="53.25" gradientUnits="userSpaceOnUse">
      <stop offset="0" stop-color="#b2b2b2"/>
      <stop offset="1" stop-color="#ededed"/>
    </linearGradient>
    <linearGradient id="Unbenannter_Verlauf_24-11" data-name="Unbenannter Verlauf 24" x1="409.71" y1="-52.79" x2="572.39" y2="113.72" xlink:href="#Unbenannter_Verlauf_24"/>
    <linearGradient id="Unbenannter_Verlauf_149" data-name="Unbenannter Verlauf 149" x1="398.91" y1="33.54" x2="487.32" y2="28.28" gradientUnits="userSpaceOnUse">
      <stop offset="0" stop-color="#878787"/>
      <stop offset="1" stop-color="#3c3c3b"/>
    </linearGradient>
    <linearGradient id="Unbenannter_Verlauf_149-2" data-name="Unbenannter Verlauf 149" x1="17.25" y1="161.77" x2="17.25" y2="227.9" xlink:href="#Unbenannter_Verlauf_149"/>
    <linearGradient id="Unbenannter_Verlauf_149-3" data-name="Unbenannter Verlauf 149" x1="43.96" y1="161.77" x2="43.96" y2="227.9" xlink:href="#Unbenannter_Verlauf_149"/>
    <linearGradient id="Unbenannter_Verlauf_149-4" data-name="Unbenannter Verlauf 149" x1="78.64" y1="161.77" x2="78.64" y2="227.9" xlink:href="#Unbenannter_Verlauf_149"/>
    <linearGradient id="Unbenannter_Verlauf_149-5" data-name="Unbenannter Verlauf 149" x1="122.04" y1="161.77" x2="122.04" y2="227.9" xlink:href="#Unbenannter_Verlauf_149"/>
    <linearGradient id="Unbenannter_Verlauf_149-6" data-name="Unbenannter Verlauf 149" x1="146.88" y1="161.77" x2="146.88" y2="227.9" xlink:href="#Unbenannter_Verlauf_149"/>
    <linearGradient id="Unbenannter_Verlauf_149-7" data-name="Unbenannter Verlauf 149" x1="172.29" y1="161.77" x2="172.29" y2="227.9" xlink:href="#Unbenannter_Verlauf_149"/>
    <linearGradient id="Unbenannter_Verlauf_149-8" data-name="Unbenannter Verlauf 149" x1="201.56" y1="161.77" x2="201.56" y2="227.9" xlink:href="#Unbenannter_Verlauf_149"/>
    <linearGradient id="Unbenannter_Verlauf_149-9" data-name="Unbenannter Verlauf 149" x1="216.96" y1="161.77" x2="216.96" y2="227.9" xlink:href="#Unbenannter_Verlauf_149"/>
    <linearGradient id="Unbenannter_Verlauf_149-10" data-name="Unbenannter Verlauf 149" x1="243.91" y1="161.77" x2="243.91" y2="227.9" xlink:href="#Unbenannter_Verlauf_149"/>
    <linearGradient id="Unbenannter_Verlauf_149-11" data-name="Unbenannter Verlauf 149" x1="280.02" y1="161.77" x2="280.02" y2="227.9" xlink:href="#Unbenannter_Verlauf_149"/>
    <linearGradient id="Unbenannter_Verlauf_149-12" data-name="Unbenannter Verlauf 149" x1="351.88" y1="161.77" x2="351.88" y2="227.9" xlink:href="#Unbenannter_Verlauf_149"/>
    <linearGradient id="Unbenannter_Verlauf_149-13" data-name="Unbenannter Verlauf 149" x1="404.4" y1="161.77" x2="404.4" y2="227.9" xlink:href="#Unbenannter_Verlauf_149"/>
    <linearGradient id="Unbenannter_Verlauf_149-14" data-name="Unbenannter Verlauf 149" x1="450.28" y1="161.77" x2="450.28" y2="227.9" xlink:href="#Unbenannter_Verlauf_149"/>
    <linearGradient id="Unbenannter_Verlauf_149-15" data-name="Unbenannter Verlauf 149" x1="491.01" y1="161.77" x2="491.01" y2="227.9" xlink:href="#Unbenannter_Verlauf_149"/>
  </defs>
  <g>
    <g>
      <g>
        <line class="cls-32" x1="115.18" y1="24.77" x2="125.12" y2="41.97"/>
        <line class="cls-32" x1="1.87" y1="41.97" x2="11.81" y2="24.77"/>
        <path class="cls-21" d="M125.12,41.97c-18.94,8.02-39.76,12.46-61.62,12.46S20.81,49.99,1.87,41.97h123.24Z"/>
        <g>
          <path class="cls-57" d="M63.49,34.75c-18.27,0-35.72-3.55-51.69-9.98L1.87,41.97c18.94,8.02,39.76,12.46,61.62,12.46s42.68-4.44,61.62-12.46l-9.93-17.21c-15.97,6.43-33.41,9.98-51.69,9.98Z"/>
          <path class="cls-62" d="M63.49,55.74c-21.55,0-42.45-4.23-62.13-12.56l-1.36-.58,11.24-19.47,1.05.42c16.29,6.56,33.51,9.89,51.2,9.89s34.91-3.33,51.2-9.89l1.05-.42,11.24,19.47-1.36.58c-19.68,8.34-40.58,12.56-62.13,12.56ZM3.75,41.34c18.95,7.82,39.05,11.79,59.74,11.79s40.79-3.96,59.74-11.79l-8.62-14.94c-16.29,6.41-33.48,9.66-51.12,9.66s-34.83-3.25-51.12-9.66l-8.62,14.94Z"/>
        </g>
      </g>
      <path class="cls-32" d="M3.75,41.34c18.95,7.82,39.05,11.79,59.74,11.79s40.79-3.96,59.74-11.79l-8.62-14.94c-16.29,6.41-33.48,9.66-51.12,9.66s-34.77-3.24-51.04-9.62l.59,1.75-.59-1.75s-.06-.02-.08-.03l-8.62,14.94Z"/>
      <g>
        <path class="cls-32" d="M3.75,41.34s0,0,0,0l.21-.07-.21.07c18.95,7.82,39.04,11.78,59.74,11.78s40.79-3.96,59.74-11.79l-8.62-14.94c-16.29,6.41-33.48,9.66-51.12,9.66s-34.77-3.24-51.04-9.62c-.03-.01-.06-.02-.08-.03l-8.62,14.94Z"/>
        <path class="cls-37" d="M3.75,41.34l8.62-14.94s.06.02.08.03l-1.1-3.26-.12-.05L.02,42.57l3.74-1.23s0,0,0,0Z"/>
      </g>
      <path class="cls-2" d="M123.2,41.35c-18.94,7.81-39.02,11.77-59.71,11.77s-40.78-3.96-59.74-11.78L.02,42.57l-.02.03,1.36.58c19.68,8.34,40.58,12.56,62.13,12.56s42.45-4.23,62.13-12.56l1.36-.58h0s-3.78-1.25-3.78-1.25Z"/>
      <g>
        <path class="cls-44" d="M115.75,23.13l-1.05.42c-16.29,6.56-33.51,9.89-51.2,9.89s-34.91-3.33-51.2-9.89l-.94-.38,1.1,3.26c16.26,6.39,33.43,9.62,51.04,9.62s34.83-3.25,51.12-9.66l.02.03,1.16-3.23-.04-.07Z"/>
        <path class="cls-16" d="M126.98,42.59l-11.19-19.39-1.16,3.23,8.61,14.91s-.02,0-.04.01l3.78,1.23Z"/>
      </g>
    </g>
    <g>
      <g>
        <line class="cls-32" x1="115.18" y1="61.07" x2="125.12" y2="78.27"/>
        <line class="cls-32" x1="1.87" y1="78.27" x2="11.81" y2="61.07"/>
        <path class="cls-21" d="M125.12,78.27c-18.94,8.02-39.76,12.46-61.62,12.46s-42.68-4.44-61.62-12.46h123.24Z"/>
        <g>
          <path class="cls-56" d="M63.49,71.05c-18.27,0-35.72-3.55-51.69-9.98L1.87,78.27c18.94,8.02,39.76,12.46,61.62,12.46s42.68-4.44,61.62-12.46l-9.93-17.21c-15.97,6.43-33.41,9.98-51.69,9.98Z"/>
          <path class="cls-62" d="M63.49,92.04c-21.55,0-42.45-4.23-62.13-12.56l-1.36-.58,11.24-19.47,1.05.42c16.29,6.56,33.51,9.89,51.2,9.89s34.91-3.33,51.2-9.89l1.05-.42,11.24,19.47-1.36.58c-19.68,8.34-40.58,12.56-62.13,12.56ZM3.75,77.64c18.95,7.82,39.05,11.79,59.74,11.79s40.79-3.96,59.74-11.79l-8.62-14.94c-16.29,6.41-33.48,9.66-51.12,9.66s-34.83-3.25-51.12-9.66l-8.62,14.94Z"/>
        </g>
      </g>
      <path class="cls-32" d="M3.75,77.64c18.95,7.82,39.05,11.79,59.74,11.79s40.79-3.96,59.74-11.79l-8.62-14.94c-16.29,6.41-33.48,9.66-51.12,9.66s-34.77-3.24-51.04-9.62l.59,1.75-.59-1.75s-.06-.02-.08-.03l-8.62,14.94Z"/>
      <g>
        <path class="cls-32" d="M3.75,77.64s0,0,0,0l.21-.07-.21.07c18.95,7.82,39.04,11.78,59.74,11.78s40.79-3.96,59.74-11.79l-8.62-14.94c-16.29,6.41-33.48,9.66-51.12,9.66s-34.77-3.24-51.04-9.62c-.03-.01-.06-.02-.08-.03l-8.62,14.94Z"/>
        <path class="cls-47" d="M3.75,77.64l8.62-14.94s.06.02.08.03l-1.1-3.26-.12-.05L.02,78.87l3.74-1.23s0,0,0,0Z"/>
      </g>
      <path class="cls-53" d="M123.2,77.65c-18.94,7.81-39.02,11.77-59.71,11.77s-40.78-3.96-59.74-11.78L.02,78.87l-.02.03,1.36.58c19.68,8.34,40.58,12.56,62.13,12.56s42.45-4.23,62.13-12.56l1.36-.58h0s-3.78-1.25-3.78-1.25Z"/>
      <g>
        <path class="cls-54" d="M115.75,59.43l-1.05.42c-16.29,6.56-33.51,9.89-51.2,9.89s-34.91-3.33-51.2-9.89l-.94-.38,1.1,3.26c16.26,6.39,33.43,9.62,51.04,9.62s34.83-3.25,51.12-9.66l.02.03,1.16-3.23-.04-.07Z"/>
        <path class="cls-40" d="M126.98,78.89l-11.19-19.39-1.16,3.23,8.61,14.91s-.02,0-.04.01l3.78,1.23Z"/>
      </g>
    </g>
    <g>
      <g>
        <line class="cls-32" x1="115.18" y1="96.42" x2="125.12" y2="113.62"/>
        <line class="cls-32" x1="1.87" y1="113.62" x2="11.81" y2="96.42"/>
        <path class="cls-21" d="M125.12,113.62c-18.94,8.02-39.76,12.46-61.62,12.46s-42.68-4.44-61.62-12.46h123.24Z"/>
        <g>
          <path class="cls-42" d="M63.49,106.4c-18.27,0-35.72-3.55-51.69-9.98L1.87,113.62c18.94,8.02,39.76,12.46,61.62,12.46s42.68-4.44,61.62-12.46l-9.93-17.21c-15.97,6.43-33.41,9.98-51.69,9.98Z"/>
          <path class="cls-62" d="M63.49,127.39c-21.55,0-42.45-4.23-62.13-12.56l-1.36-.58,11.24-19.47,1.05.42c16.29,6.56,33.51,9.89,51.2,9.89s34.91-3.33,51.2-9.89l1.05-.42,11.24,19.47-1.36.58c-19.68,8.34-40.58,12.56-62.13,12.56ZM3.75,112.99c18.95,7.82,39.05,11.79,59.74,11.79s40.79-3.96,59.74-11.79l-8.62-14.94c-16.29,6.41-33.48,9.66-51.12,9.66s-34.83-3.25-51.12-9.66l-8.62,14.94Z"/>
        </g>
      </g>
      <path class="cls-32" d="M3.75,112.99c18.95,7.82,39.05,11.79,59.74,11.79s40.79-3.96,59.74-11.79l-8.62-14.94c-16.29,6.41-33.48,9.66-51.12,9.66s-34.77-3.24-51.04-9.62l.59,1.75-.59-1.75s-.06-.02-.08-.03l-8.62,14.94Z"/>
      <g>
        <path class="cls-32" d="M3.75,112.99s0,0,0,0l.21-.07-.21.07c18.95,7.82,39.04,11.78,59.74,11.78s40.79-3.96,59.74-11.79l-8.62-14.94c-16.29,6.41-33.48,9.66-51.12,9.66s-34.77-3.24-51.04-9.62c-.03-.01-.06-.02-.08-.03l-8.62,14.94Z"/>
        <path class="cls-50" d="M3.75,112.99l8.62-14.94s.06.02.08.03l-1.1-3.26-.12-.05L.02,114.22l3.74-1.23s0,0,0,0Z"/>
      </g>
      <path class="cls-10" d="M123.2,113c-18.94,7.81-39.02,11.77-59.71,11.77s-40.78-3.96-59.74-11.78L.02,114.22l-.02.03,1.36.58c19.68,8.34,40.58,12.56,62.13,12.56s42.45-4.23,62.13-12.56l1.36-.58h0s-3.78-1.25-3.78-1.25Z"/>
      <g>
        <path class="cls-25" d="M115.75,94.78l-1.05.42c-16.29,6.56-33.51,9.89-51.2,9.89s-34.91-3.33-51.2-9.89l-.94-.38,1.1,3.26c16.26,6.39,33.43,9.62,51.04,9.62s34.83-3.25,51.12-9.66l.02.03,1.16-3.23-.04-.07Z"/>
        <path class="cls-24" d="M126.98,114.24l-11.19-19.39-1.16,3.23,8.61,14.91s-.02,0-.04.01l3.78,1.23Z"/>
      </g>
    </g>
  </g>
  <g>
    <polygon class="cls-51" points="185.45 73.18 138.48 147.85 159.29 147.85 195.96 89.44 231.24 147.85 252.05 147.85 206.66 73.18 249.67 5.31 228.46 5.31 195.96 57.3 165.43 5.31 144.23 5.31 185.45 73.18 185.45 73.18"/>
    <path class="cls-6" d="M319.05,85.34c10.39-1.29,18.78-5.76,25.19-13.43,6.41-7.66,9.62-16.78,9.62-27.34,0-7.08-1.7-13.78-5.1-20.09-3.4-6.31-8.05-11.21-13.94-14.68-5.13-2.96-10.67-4.83-16.63-5.6-5.96-.77-13.17-1.16-21.63-1.16h-21.92v145.67h18.08v-61.63h7.5l42.69,61.63h21.92l-45.77-63.37h0ZM292.7,19.27h4.81c5.13,0,9.94.32,14.42.97,4.49.64,8.62,1.87,12.4,3.67,3.78,1.8,6.83,4.48,9.13,8.02,2.31,3.54,3.46,8.02,3.46,13.43s-1.06,10.08-3.17,13.62c-2.12,3.54-5,6.25-8.65,8.11-3.65,1.87-7.66,3.16-12.02,3.86-4.36.71-9.23,1.06-14.61,1.06h-5.77V19.27h0Z"/>
    <path class="cls-1" d="M453.28,74.59v16.13h36.47c-.12,5.63-1.56,10.97-4.3,16.04-2.74,5.06-6.33,9.57-10.75,13.5-4.43,3.94-9.35,7-14.77,9.19-5.42,2.19-10.88,3.28-16.36,3.28-7.35,0-14.4-1.59-21.13-4.78-6.73-3.19-12.62-7.53-17.67-13.04-5.05-5.5-8.98-11.72-11.78-18.66-2.81-6.94-4.21-14.04-4.21-21.29,0-7.75,1.43-15.13,4.3-22.13,2.87-7,6.86-13.16,11.97-18.48,5.11-5.31,11.13-9.44,18.05-12.38,6.92-2.94,14.24-4.41,21.97-4.41,8.48,0,16.71,2.09,24.69,6.28,7.98,4.19,14.52,9.78,19.64,16.79l12.34-11.82c-6.86-8.63-15.37-15.35-25.53-20.16-10.16-4.81-20.79-7.22-31.89-7.22-9.97,0-19.42,1.91-28.33,5.72-8.91,3.81-16.74,9.16-23.47,16.04-6.73,6.88-11.97,14.82-15.71,23.82-3.74,9-5.61,18.51-5.61,28.51s1.84,18.88,5.52,27.76c3.68,8.88,8.79,16.76,15.33,23.63,6.55,6.88,14.18,12.25,22.91,16.13,8.73,3.88,17.89,5.81,27.49,5.81s18.51-1.72,26.74-5.16c8.23-3.44,15.34-8.28,21.32-14.54,5.99-6.25,10.6-13.57,13.84-21.95,3.24-8.38,4.86-17.38,4.86-27.01v-5.63h-55.92Z"/>
  </g>
  <polygon class="cls-32" points="187.22 73.25 141.19 146.41 158.46 146.41 195.98 86.63 232.08 146.41 249.38 146.41 204.89 73.22 246.94 6.87 229.29 6.87 195.92 60.25 164.57 6.87 147.08 6.87 149.05 7.96 147.08 6.87 146.89 6.87 187.22 73.25"/>
  <polygon class="cls-32" points="187.22 73.25 141.23 146.34 143.11 145.33 141.23 146.34 141.19 146.41 158.46 146.41 195.98 86.63 232.08 146.41 249.38 146.41 204.89 73.22 246.94 6.87 229.29 6.87 195.92 60.25 164.57 6.87 147.08 6.87 146.89 6.87 187.22 73.25"/>
  <polygon class="cls-49" points="196 54.46 195.98 54.43 195.93 60.22 229.29 6.87 229.32 6.87 227.62 3.88 196 54.46"/>
  <g>
    <polygon class="cls-13" points="146.89 6.87 147.08 6.87 141.66 3.87 141.56 3.87 183.66 73.18 187.19 73.2 146.89 6.87"/>
    <polygon class="cls-20" points="183.66 73.18 183.69 73.22 135.87 149.23 141.23 146.34 187.22 73.25 187.19 73.2 183.66 73.18"/>
  </g>
  <g>
    <polygon class="cls-67" points="141.66 3.87 147.08 6.87 164.57 6.87 164.59 6.89 166.28 3.87 141.66 3.87"/>
    <polygon class="cls-18" points="166.29 3.87 166.28 3.87 164.59 6.89 195.92 60.25 195.93 60.22 195.98 54.43 166.29 3.87"/>
  </g>
  <polygon class="cls-28" points="232.08 146.41 195.98 86.63 195.92 86.72 195.92 92.37 195.93 92.35 230.39 149.41 230.43 149.41 232.13 146.41 232.08 146.41"/>
  <g>
    <polygon class="cls-17" points="254.71 149.41 208.42 73.25 208.44 73.23 204.9 73.21 204.89 73.22 249.38 146.41 249.38 146.41 254.7 149.41 254.71 149.41"/>
    <polygon class="cls-35" points="230.43 149.41 254.7 149.41 249.38 146.41 232.13 146.41 230.43 149.41"/>
  </g>
  <g>
    <polygon class="cls-46" points="252.4 3.87 227.63 3.87 227.62 3.88 229.32 6.87 246.94 6.87 246.92 6.9 252.39 3.87 252.4 3.87"/>
    <polygon class="cls-11" points="246.92 6.9 204.9 73.21 208.44 73.23 252.39 3.87 246.92 6.9"/>
  </g>
  <g>
    <polygon class="cls-15" points="158.46 146.41 141.19 146.41 141.23 146.34 135.87 149.23 135.76 149.41 160.06 149.41 158.47 146.39 158.46 146.41"/>
    <polygon class="cls-36" points="195.92 92.37 195.92 86.72 158.47 146.39 160.06 149.41 160.12 149.41 195.92 92.37"/>
  </g>
  <g>
    <path class="cls-32" d="M312.84,69.53c4.19-.68,8.08-1.93,11.58-3.72,3.38-1.73,6.09-4.27,8.05-7.55,1.96-3.29,2.96-7.61,2.96-12.85s-1.08-9.33-3.22-12.61c-2.14-3.29-5.01-5.81-8.52-7.48-3.63-1.73-7.65-2.92-11.97-3.54-4.39-.63-9.17-.95-14.21-.95h-3.31v49.74h4.27c5.28,0,10.11-.35,14.38-1.04Z"/>
    <path class="cls-32" d="M276.12,147.27h15.08v-61.63h9.79l42.69,61.63h18.2l-45.54-63.04,2.52-.31c9.95-1.23,18.1-5.57,24.23-12.9,6.15-7.35,9.27-16.22,9.27-26.37,0-6.8-1.65-13.32-4.92-19.38-3.25-6.04-7.75-10.78-13.38-14.1-4.92-2.84-10.33-4.66-16.06-5.41-5.87-.76-13.08-1.15-21.44-1.15h-20.22l1.51,1.47-1.51-1.47h-.2v142.67ZM291.2,17.83h6.31c5.18,0,10.1.33,14.64.98,4.62.66,8.94,1.94,12.84,3.8,4.02,1.91,7.3,4.79,9.75,8.55,2.46,3.77,3.7,8.56,3.7,14.25s-1.14,10.63-3.38,14.39c-2.25,3.77-5.37,6.69-9.26,8.68-3.77,1.93-7.96,3.28-12.46,4.01-4.42.72-9.42,1.08-14.86,1.08h-7.27V17.83Z"/>
  </g>
  <path class="cls-32" d="M298.47,70.57c5.28,0,10.11-.35,14.38-1.04,4.19-.68,8.08-1.93,11.58-3.72,3.38-1.73,6.09-4.27,8.05-7.55,1.96-3.29,2.96-7.61,2.96-12.85s-1.08-9.33-3.22-12.61c-2.14-3.29-5.01-5.81-8.52-7.48-3.63-1.73-7.65-2.92-11.97-3.54-4.39-.63-9.17-.95-14.21-.95h-3.31s.67.65.67.65l-.67-.65v49.74h4.27Z"/>
  <g>
    <path class="cls-32" d="M294.31,70.57l4.71-4.64-4.71,4.64h4.16c5.28,0,10.11-.35,14.38-1.04,4.19-.68,8.08-1.93,11.58-3.72,3.38-1.73,6.09-4.27,8.05-7.55,1.96-3.29,2.96-7.61,2.96-12.85s-1.08-9.33-3.22-12.61c-2.14-3.29-5.01-5.81-8.52-7.48-3.63-1.73-7.65-2.92-11.97-3.54-4.39-.63-9.17-.95-14.21-.95h-3.31v49.74h.11Z"/>
    <polygon class="cls-61" points="294.2 70.57 294.2 20.83 291.2 17.92 291.2 73.57 291.27 73.57 294.31 70.57 294.2 70.57"/>
    <path class="cls-33" d="M334.72,31.16c-2.45-3.76-5.73-6.64-9.75-8.55-3.9-1.86-8.22-3.14-12.84-3.8-4.53-.65-9.46-.98-14.64-.98h-6.31v.09l3,2.91h0s3.31,0,3.31,0c5.04,0,9.82.32,14.21.95,4.32.62,8.34,1.81,11.97,3.54,3.51,1.67,6.38,4.19,8.52,7.48,2.13,3.28,3.22,7.52,3.22,12.61s-1,9.56-2.96,12.85c-1.96,3.28-4.67,5.82-8.05,7.55-3.49,1.79-7.39,3.04-11.58,3.72-4.26.69-9.1,1.04-14.38,1.04h-4.16l-3.04,3h7.2c5.44,0,10.44-.36,14.86-1.08,4.5-.73,8.69-2.08,12.46-4.01,3.89-1.99,7.01-4.91,9.26-8.68,2.25-3.76,3.38-8.6,3.38-14.39s-1.25-10.47-3.7-14.25Z"/>
  </g>
  <g>
    <path class="cls-32" d="M318.86,83.91c9.95-1.23,18.1-5.57,24.23-12.9,6.15-7.35,9.27-16.22,9.27-26.37,0-6.8-1.65-13.32-4.92-19.38-3.25-6.04-7.75-10.78-13.38-14.1-4.92-2.84-10.33-4.66-16.06-5.41-5.87-.76-13.08-1.15-21.44-1.15h-20.42v142.67h15.08v-61.63h9.79l42.69,61.63h18.2l-45.53-63.03-5.49-2.3,5.49,2.3h0s2.52-.32,2.52-.32Z"/>
    <path class="cls-48" d="M296.55,4.6c8.36,0,15.57.39,21.44,1.15,5.74.74,11.14,2.56,16.06,5.41,5.63,3.32,10.13,8.06,13.38,14.1,3.26,6.06,4.92,12.58,4.92,19.38,0,10.15-3.12,19.02-9.27,26.37-6.13,7.33-14.28,11.67-24.23,12.9l-2.52.31h0s5.4,2.28,5.4,2.28c9.59-1.72,17.53-6.27,23.63-13.57,6.61-7.91,9.96-17.43,9.96-28.3,0-7.3-1.77-14.3-5.28-20.8-3.51-6.53-8.39-11.66-14.51-15.27-5.28-3.05-11.06-5-17.19-5.79-6-.78-13.34-1.17-21.83-1.17h-23.29l3.07,3h20.22Z"/>
  </g>
  <path class="cls-34" d="M321.7,86.52s.04,0,.05-.01l-5.4-2.27,45.53,63.03h-.03l5.81,2.87-45.95-63.62Z"/>
  <polygon class="cls-58" points="367.65 150.14 361.85 147.27 343.68 147.27 342.11 150.27 367.75 150.27 367.65 150.14"/>
  <polygon class="cls-30" points="343.68 147.27 300.99 85.64 300.95 85.64 299.39 88.64 299.41 88.64 342.1 150.27 342.11 150.27 343.68 147.27 343.68 147.27"/>
  <polygon class="cls-23" points="300.95 85.64 291.2 85.64 291.2 85.69 294.21 88.64 299.39 88.64 300.95 85.64"/>
  <polygon class="cls-29" points="294.2 88.64 294.21 88.64 291.2 85.69 291.2 147.26 294.2 150.23 294.2 88.64"/>
  <g>
    <polygon class="cls-59" points="276.12 4.6 276.32 4.6 273.26 1.6 273.12 1.6 273.12 150.2 276.12 147.12 276.12 4.6"/>
    <polygon class="cls-43" points="291.2 147.26 291.2 147.27 276.12 147.27 276.12 147.12 273.12 150.2 273.12 150.27 294.2 150.27 294.2 150.23 291.2 147.26"/>
  </g>
  <path class="cls-32" d="M454.78,89.28h36.5l-.03,1.53c-.13,5.84-1.64,11.47-4.48,16.72-2.81,5.19-6.54,9.88-11.08,13.91-4.53,4.04-9.65,7.22-15.21,9.46-5.58,2.25-11.27,3.39-16.93,3.39-7.54,0-14.87-1.66-21.77-4.93-6.88-3.26-12.98-7.76-18.14-13.38-5.15-5.61-9.21-12.04-12.07-19.11-2.86-7.09-4.32-14.44-4.32-21.85,0-7.91,1.49-15.55,4.41-22.7,2.92-7.14,7.05-13.52,12.27-18.95,5.23-5.44,11.47-9.72,18.54-12.72,7.07-3,14.66-4.53,22.56-4.53,8.68,0,17.22,2.17,25.38,6.46,7.62,4,14.05,9.33,19.12,15.86l10.12-9.69c-6.54-7.91-14.65-14.19-24.13-18.68-9.91-4.7-20.42-7.08-31.24-7.08-9.72,0-19.06,1.88-27.74,5.6-8.69,3.72-16.42,9-22.99,15.71-6.57,6.71-11.75,14.56-15.4,23.35-3.65,8.78-5.5,18.18-5.5,27.93s1.82,18.53,5.4,27.19c3.59,8.67,8.65,16.46,15.04,23.17,6.38,6.7,13.93,12.02,22.43,15.79,8.49,3.77,17.54,5.69,26.88,5.69s18.16-1.7,26.16-5.04c8-3.34,15-8.12,20.81-14.19,5.82-6.08,10.37-13.3,13.52-21.45,3.16-8.16,4.76-17.07,4.76-26.47v-4.13h-52.79l1.29,1.29-1.29-1.29h-.13v13.13Z"/>
  <g>
    <path class="cls-32" d="M454.78,89.28h.07l2.92-3.1-2.92,3.1h36.43l-.03,1.53c-.13,5.84-1.64,11.47-4.48,16.72-2.81,5.19-6.54,9.88-11.08,13.91-4.53,4.04-9.65,7.22-15.21,9.46-5.58,2.25-11.27,3.39-16.93,3.39-7.54,0-14.87-1.66-21.77-4.93-6.88-3.26-12.98-7.76-18.14-13.38-5.15-5.61-9.21-12.04-12.07-19.11-2.86-7.09-4.32-14.44-4.32-21.85,0-7.91,1.49-15.55,4.41-22.7,2.92-7.14,7.05-13.52,12.27-18.95,5.23-5.44,11.47-9.72,18.54-12.72,7.07-3,14.66-4.53,22.56-4.53,8.68,0,17.22,2.17,25.38,6.46,7.62,4,14.05,9.33,19.12,15.86l10.12-9.69c-6.54-7.91-14.65-14.19-24.13-18.68-9.91-4.7-20.42-7.08-31.24-7.08-9.72,0-19.06,1.88-27.74,5.6-8.69,3.72-16.42,9-22.99,15.71-6.57,6.71-11.75,14.56-15.4,23.35-3.65,8.78-5.5,18.18-5.5,27.93s1.82,18.53,5.4,27.19c3.59,8.67,8.65,16.46,15.04,23.17,6.38,6.7,13.93,12.02,22.43,15.79,8.49,3.77,17.54,5.69,26.88,5.69s18.16-1.7,26.16-5.04c8-3.34,15-8.12,20.81-14.19,5.82-6.08,10.37-13.3,13.52-21.45,3.16-8.16,4.76-17.07,4.76-26.47v-4.13h-52.92v13.13Z"/>
    <polygon class="cls-31" points="454.78 89.28 454.78 76.15 454.91 76.15 451.91 73.15 451.78 73.15 451.78 92.28 452.02 92.28 454.85 89.28 454.78 89.28"/>
  </g>
  <polygon class="cls-9" points="454.85 89.28 452.02 92.28 488.15 92.28 491.23 89.28 454.85 89.28"/>
  <polygon class="cls-26" points="451.91 73.15 454.91 76.15 507.69 76.15 510.61 73.15 451.91 73.15"/>
  <path class="cls-32" d="M422.49,20.66c7.07-3,14.66-4.53,22.56-4.53,8.68,0,17.22,2.17,25.38,6.46,7.62,4,14.05,9.33,19.12,15.86l10.12-9.69c-6.54-7.91-14.65-14.19-24.13-18.68-9.91-4.7-20.42-7.08-31.24-7.08-9.72,0-19.06,1.88-27.74,5.6-8.69,3.72-16.42,9-22.99,15.71-1.35,1.38-2.63,2.82-3.86,4.29l10.3,9.32c1.23-1.58,2.54-3.09,3.93-4.54,5.23-5.44,11.47-9.72,18.54-12.72Z"/>
  <g>
    <path class="cls-14" d="M405.86,113.96c-4.9-5.34-8.77-11.47-11.5-18.21-2.72-6.73-4.1-13.7-4.1-20.73,0-7.52,1.41-14.78,4.19-21.57,2.01-4.92,4.63-9.44,7.8-13.52l-2.23-2.02c-3.4,4.34-6.2,9.17-8.34,14.41-2.93,7.15-4.41,14.79-4.41,22.7,0,7.41,1.45,14.76,4.32,21.85,2.86,7.07,6.92,13.5,12.07,19.11.22.24.45.46.67.7l2.3-1.93c-.25-.27-.52-.52-.77-.8Z"/>
    <path class="cls-38" d="M421.78,129.37c6.9,3.27,14.23,4.93,21.77,4.93,5.65,0,11.35-1.14,16.93-3.39,5.56-2.24,10.68-5.43,15.21-9.46,4.54-4.04,8.26-8.72,11.08-13.91,2.84-5.25,4.35-10.88,4.48-16.72l.03-1.53h-.05l-3.08,3h.03c-.33,4.81-1.69,9.46-4.05,13.82-2.65,4.89-6.16,9.29-10.43,13.1-4.28,3.8-9.1,6.81-14.34,8.92-5.22,2.11-10.54,3.17-15.8,3.17-7.1,0-13.99-1.56-20.49-4.64-6.19-2.93-11.72-6.94-16.44-11.9l-2.3,1.93c5.01,5.29,10.88,9.56,17.46,12.68Z"/>
    <path class="cls-63" d="M393.12,125.95c-6.39-6.71-11.45-14.51-15.04-23.17-3.58-8.66-5.4-17.8-5.4-27.19s1.85-19.16,5.5-27.93c2.9-6.98,6.78-13.36,11.54-19.06l-2.23-2.01c-4.99,5.95-9.05,12.62-12.08,19.92-3.8,9.15-5.73,18.93-5.73,29.08s1.89,19.31,5.63,28.34c3.72,8.98,8.96,17.06,15.58,24.03l2.3-1.93s-.05-.05-.07-.07Z"/>
    <path class="cls-19" d="M510.61,73.15l-2.92,3h0v4.13c0,9.4-1.6,18.31-4.76,26.47-3.15,8.15-7.7,15.37-13.52,21.45-5.81,6.07-12.81,10.85-20.81,14.19-8,3.35-16.81,5.04-26.16,5.04s-18.39-1.91-26.88-5.69c-8.47-3.76-15.99-9.05-22.36-15.72l-2.3,1.93s.04.04.06.06c6.65,6.99,14.52,12.53,23.39,16.47,8.88,3.94,18.33,5.94,28.1,5.94s18.95-1.77,27.32-5.27c8.38-3.5,15.73-8.51,21.83-14.88,6.09-6.37,10.86-13.92,14.15-22.44,3.29-8.51,4.96-17.78,4.96-27.55v-7.13h-.09Z"/>
  </g>
  <path class="cls-39" d="M502.89,27.95c-6.97-8.77-15.74-15.7-26.06-20.59-10.31-4.89-21.26-7.37-32.53-7.37-10.13,0-19.86,1.96-28.92,5.84-9.05,3.87-17.11,9.38-23.95,16.37-1.38,1.41-2.68,2.88-3.94,4.38l2.23,2.01c1.23-1.47,2.51-2.91,3.86-4.29,6.56-6.7,14.3-11.99,22.99-15.71,8.68-3.71,18.02-5.6,27.74-5.6,10.82,0,21.33,2.38,31.24,7.08,9.48,4.49,17.59,10.77,24.13,18.67l4.06.26-.85-1.06Z"/>
  <g>
    <path class="cls-65" d="M503.74,29.02h0s-4.06-.27-4.06-.27c0,0,0,0,0,0l-10.12,9.69s-.02-.02-.02-.03l-.38,4.52.02.03,14.57-13.95Z"/>
    <path class="cls-60" d="M470.43,22.59c-8.16-4.28-16.7-6.46-25.38-6.46-7.9,0-15.49,1.52-22.56,4.53-7.07,3-13.31,7.28-18.54,12.72-1.39,1.45-2.7,2.96-3.93,4.54l2.23,2.02c1.21-1.56,2.49-3.06,3.86-4.48,4.95-5.14,10.85-9.19,17.55-12.04,6.7-2.85,13.9-4.29,21.39-4.29,8.19,0,16.26,2.06,23.99,6.11,7.74,4.06,14.17,9.56,19.12,16.34l.99,1.35.38-4.52c-5.07-6.52-11.49-11.84-19.1-15.84Z"/>
  </g>
  <path class="cls-22" d="M31.69,178.77c-1.41-2.49-3.23-4.39-5.48-5.72-2.25-1.32-4.81-1.99-7.67-2.01-2.62,0-5.07.54-7.34,1.59-2.27,1.05-4.12,2.56-5.53,4.53-1.41,1.97-2.14,4.34-2.18,7.11.1,3.5,1.22,6.24,3.37,8.21,2.15,1.97,4.73,3.56,7.75,4.75l3.53,1.49c2.3.86,4.32,2.02,6.07,3.48,1.75,1.46,2.66,3.53,2.76,6.22-.05,2.76-.93,5.09-2.66,7s-3.98,2.9-6.78,2.98c-2.82-.05-5.17-.97-7.04-2.74-1.87-1.77-2.83-4.09-2.87-6.96l-6.44,1.36c.62,4.19,2.35,7.6,5.2,10.23,2.85,2.63,6.38,3.99,10.6,4.07,4.69-.08,8.56-1.58,11.61-4.48,3.05-2.9,4.63-6.72,4.74-11.45-.07-4.2-1.28-7.48-3.62-9.84-2.34-2.36-5.36-4.21-9.06-5.56l-3.66-1.42c-1.69-.59-3.28-1.46-4.76-2.62-1.48-1.16-2.27-2.73-2.37-4.71.1-2.26,1.02-4.03,2.75-5.31,1.73-1.28,3.66-1.93,5.8-1.95,1.92,0,3.53.41,4.84,1.21,1.31.81,2.44,2.01,3.37,3.6l5.08-3.05h0Z"/>
  <path class="cls-4" d="M47.01,191.53h-6.1v31.74h6.1v-31.74h0ZM43.96,172.74c-1.18.03-2.17.44-2.96,1.25-.79.8-1.21,1.81-1.24,3.02.03,1.18.44,2.16,1.24,2.93.79.77,1.78,1.17,2.96,1.2,1.18-.03,2.17-.43,2.96-1.2.79-.77,1.21-1.75,1.24-2.93-.03-1.22-.44-2.22-1.24-3.02-.79-.8-1.78-1.22-2.96-1.25h0Z"/>
  <path class="cls-64" d="M62.7,191.53h-6.1v31.74h6.1v-15.6c-.03-1.7.09-3.44.38-5.22.29-1.78.94-3.29,1.95-4.52,1.01-1.23,2.59-1.87,4.73-1.92,1.85.05,3.18.65,4.02,1.79.83,1.14,1.35,2.51,1.56,4.11.21,1.6.29,3.12.26,4.55v16.82h6.1v-15.6c-.03-1.68.09-3.41.36-5.2.28-1.78.92-3.29,1.92-4.53,1-1.24,2.57-1.89,4.71-1.94,1.76.04,3.07.54,3.91,1.5.85.96,1.4,2.15,1.65,3.57.25,1.42.37,2.82.34,4.22v17.97h6.1v-18.99c.03-2.43-.26-4.68-.87-6.75-.61-2.06-1.67-3.73-3.21-5-1.53-1.27-3.68-1.92-6.43-1.95-2.04.02-3.92.54-5.65,1.54-1.73,1-3.1,2.37-4.12,4.08-1.01-1.78-2.27-3.15-3.79-4.13-1.51-.98-3.3-1.48-5.37-1.49-1.76.03-3.37.51-4.84,1.43-1.47.92-2.66,2.09-3.57,3.51h-.14v-3.99h0Z"/>
  <path class="cls-52" d="M108.62,191.53v18.25c-.03,4.41,1.04,7.92,3.2,10.54,2.16,2.62,5.57,3.97,10.22,4.03,4.66-.06,8.06-1.41,10.22-4.03,2.16-2.62,3.23-6.14,3.2-10.54v-18.25h-6.1v17.57c.07,2.62-.39,4.85-1.4,6.69-1.01,1.84-2.98,2.79-5.93,2.87-2.95-.08-4.92-1.04-5.93-2.87-1.01-1.84-1.47-4.07-1.4-6.69v-17.57h-6.1Z"/>
  <polygon class="cls-41" points="149.93 164.4 143.83 164.4 143.83 223.27 149.93 223.27 149.93 164.4 149.93 164.4"/>
  <path class="cls-3" d="M172.33,218.94c-3.24-.11-5.72-1.28-7.44-3.53-1.72-2.24-2.59-4.91-2.6-8.01.02-3.06.91-5.7,2.65-7.91,1.75-2.22,4.21-3.38,7.39-3.49,3.31.09,5.85,1.22,7.63,3.38,1.77,2.17,2.67,4.84,2.69,8.02-.01,3.21-.9,5.91-2.66,8.11-1.76,2.19-4.31,3.34-7.65,3.43h0ZM188.4,191.53h-6.1v5.28h-.14c-1.26-1.92-2.82-3.43-4.68-4.54-1.86-1.11-3.96-1.67-6.31-1.69-3.09.04-5.75.84-7.99,2.38-2.23,1.54-3.96,3.56-5.16,6.07-1.21,2.51-1.82,5.23-1.83,8.17,0,3.07.6,5.9,1.78,8.49,1.18,2.59,2.9,4.66,5.16,6.24,2.26,1.58,5.01,2.38,8.25,2.43,2.29-.03,4.35-.58,6.18-1.67,1.84-1.09,3.37-2.54,4.61-4.36h.14v4.94h6.1v-31.74h0Z"/>
  <polygon class="cls-66" points="203.29 197.22 209.26 197.22 209.26 191.53 203.29 191.53 203.29 179.39 197.19 179.39 197.19 191.53 193.87 191.53 193.87 197.22 197.19 197.22 197.19 223.27 203.29 223.27 203.29 197.22 203.29 197.22"/>
  <path class="cls-7" d="M220.01,191.53h-6.1v31.74h6.1v-31.74h0ZM216.96,172.74c-1.18.03-2.17.44-2.96,1.25-.79.8-1.21,1.81-1.24,3.02.03,1.18.44,2.16,1.24,2.93.79.77,1.78,1.17,2.96,1.2,1.18-.03,2.17-.43,2.96-1.2.79-.77,1.21-1.75,1.24-2.93-.03-1.22-.44-2.22-1.24-3.02-.79-.8-1.78-1.22-2.96-1.25h0Z"/>
  <path class="cls-5" d="M243.91,190.58c-4.86.1-8.88,1.72-12.04,4.85-3.16,3.13-4.8,7.14-4.91,12.03.11,4.89,1.75,8.9,4.91,12.03,3.16,3.13,7.18,4.75,12.04,4.85,4.86-.11,8.88-1.72,12.04-4.85,3.16-3.13,4.8-7.14,4.91-12.03-.11-4.89-1.75-8.9-4.91-12.03-3.16-3.13-7.18-4.75-12.04-4.85h0ZM243.91,196.41c3.09.08,5.66,1.17,7.69,3.27,2.03,2.09,3.09,4.69,3.16,7.79-.08,3.07-1.13,5.66-3.16,7.77-2.03,2.11-4.6,3.2-7.69,3.29-3.09-.09-5.66-1.18-7.69-3.29-2.03-2.11-3.09-4.7-3.16-7.77.07-3.1,1.13-5.7,3.16-7.79,2.03-2.09,4.6-3.18,7.69-3.27h0Z"/>
  <path class="cls-45" d="M272.58,191.53h-6.1v31.74h6.1v-14.58c-.05-1.97.05-3.92.29-5.85.24-1.93.92-3.54,2.04-4.83,1.12-1.29,2.96-1.96,5.54-2.01,3.02.04,4.97.88,5.84,2.51.87,1.63,1.25,3.83,1.15,6.58v18.18h6.1v-18.92c.09-3.96-.67-7.22-2.27-9.78-1.6-2.56-4.6-3.89-8.98-3.98-1.97,0-3.81.45-5.52,1.34-1.71.89-3.06,2.18-4.05,3.88h-.14v-4.26h0Z"/>
  <path class="cls-55" d="M356.63,197.5v5.82h13.23c-.15,2.82-1.05,5.37-2.7,7.65-1.66,2.29-3.74,4.11-6.24,5.46-2.51,1.36-5.11,2.05-7.81,2.09-3.73-.06-7.08-1.07-10.07-3.04-2.98-1.96-5.36-4.52-7.11-7.68-1.76-3.16-2.65-6.55-2.7-10.18.04-3.87.96-7.36,2.75-10.48,1.79-3.12,4.22-5.6,7.29-7.45,3.07-1.85,6.53-2.79,10.39-2.83,3.17.03,6.17.8,9.01,2.29,2.83,1.49,5.19,3.51,7.07,6.06l4.47-4.27c-2.57-3.17-5.67-5.61-9.31-7.31-3.64-1.7-7.48-2.56-11.51-2.58-4.96.06-9.44,1.28-13.42,3.67-3.98,2.39-7.15,5.6-9.49,9.63-2.35,4.03-3.55,8.52-3.6,13.49.05,4.79,1.23,9.18,3.52,13.17,2.29,3.99,5.38,7.2,9.26,9.62,3.88,2.42,8.23,3.66,13.06,3.72,4.81-.05,9.02-1.15,12.64-3.31,3.62-2.16,6.45-5.11,8.48-8.83,2.03-3.72,3.06-7.95,3.1-12.68v-2.03h-20.28Z"/>
  <path class="cls-12" d="M388.45,191.53h-6.1v31.74h6.1v-15.6c-.03-1.7.09-3.44.38-5.22.29-1.78.94-3.29,1.95-4.52,1.01-1.23,2.59-1.87,4.73-1.92,1.85.05,3.19.65,4.02,1.79.83,1.14,1.35,2.51,1.56,4.11.21,1.6.29,3.12.26,4.55v16.82h6.1v-15.6c-.03-1.68.09-3.41.36-5.2.28-1.78.92-3.29,1.92-4.53,1-1.24,2.57-1.89,4.71-1.94,1.76.04,3.07.54,3.91,1.5.85.96,1.4,2.15,1.65,3.57.25,1.42.37,2.82.34,4.22v17.97h6.1v-18.99c.02-2.43-.27-4.68-.87-6.75-.61-2.06-1.67-3.73-3.21-5-1.53-1.27-3.68-1.92-6.43-1.95-2.04.02-3.92.54-5.65,1.54-1.73,1-3.1,2.37-4.12,4.08-1.01-1.78-2.27-3.15-3.79-4.13-1.51-.98-3.3-1.48-5.37-1.49-1.75.03-3.37.51-4.84,1.43-1.48.92-2.67,2.09-3.57,3.51h-.14v-3.99h0Z"/>
  <path class="cls-8" d="M449.97,218.94c-3.24-.11-5.72-1.28-7.44-3.53-1.72-2.24-2.59-4.91-2.6-8.01.02-3.06.91-5.7,2.65-7.91,1.75-2.22,4.21-3.38,7.39-3.49,3.31.09,5.85,1.22,7.63,3.38,1.77,2.17,2.67,4.84,2.69,8.02-.01,3.21-.9,5.91-2.66,8.11-1.76,2.19-4.31,3.34-7.65,3.43h0ZM434.17,223.27h6.1v-4.94h.14c1.24,1.82,2.78,3.28,4.63,4.36,1.85,1.09,3.9,1.64,6.16,1.67,3.26-.04,6.02-.85,8.28-2.43,2.26-1.57,3.97-3.65,5.14-6.24,1.17-2.58,1.76-5.41,1.77-8.49-.01-2.94-.63-5.66-1.83-8.17-1.21-2.51-2.92-4.53-5.15-6.07-2.22-1.54-4.87-2.33-7.94-2.38-2.38.02-4.5.59-6.37,1.69-1.86,1.11-3.43,2.62-4.69,4.54h-.14v-32.41h-6.1v58.87h0Z"/>
  <polygon class="cls-27" points="478.83 192.75 478.83 172.13 472.47 172.13 472.47 223.27 478.83 223.27 478.83 198.71 503.19 198.71 503.19 223.27 509.56 223.27 509.56 172.13 503.19 172.13 503.19 192.75 478.83 192.75 478.83 192.75"/>
</svg>