<?xml version="1.0" encoding="UTF-8" standalone="no"?>
<!DOCTYPE svg PUBLIC "-//W3C//DTD SVG 1.1//EN" "http://www.w3.org/Graphics/SVG/1.1/DTD/svg11.dtd">
<svg width="100%" height="100%" viewBox="0 0 53 53" version="1.1" xmlns="http://www.w3.org/2000/svg" xmlns:xlink="http://www.w3.org/1999/xlink" xml:space="preserve" xmlns:serif="http://www.serif.com/" style="fill-rule:evenodd;clip-rule:evenodd;stroke-linejoin:round;stroke-miterlimit:2;">
    <g id="Layer1" transform="matrix(0.963486,0,0,0.962264,0.933947,1)">
        <circle cx="26.5" cy="26.5" r="26.5"/>
    </g>
    <g id="BMW-logo-white-default-53px">
        <g id="BMW-logo">
            <g id="BMW-logo-white">
                <g id="BMW-Logo-103x115-White-NEW">
                    <path id="Shape" d="M26.435,0C11.836,0 0,11.836 0,26.435C0,41.034 11.836,52.869 26.435,52.869C41.034,52.869 52.869,41.034 52.869,26.435C52.869,11.836 41.034,0 26.435,0ZM51.15,26.435C51.15,40.084 40.086,51.15 26.435,51.15C12.784,51.15 1.719,40.084 1.719,26.435C1.719,12.785 12.785,1.719 26.435,1.719C40.084,1.719 51.15,12.785 51.15,26.435Z" style="fill:white;fill-rule:nonzero;"/>
                    <g id="Group" transform="matrix(1,0,0,1,7.30499,3.1085)">
                        <path id="W_60_" d="M31.941,12.111C32.3,12.496 32.818,13.118 33.109,13.496L38.462,10.098C38.194,9.748 37.768,9.217 37.45,8.842L34.06,11.083L33.828,11.282L34.001,11.031L35.498,8.043L34.439,6.985L31.45,8.482L31.199,8.654L31.399,8.422L33.642,5.034C33.247,4.699 32.868,4.391 32.384,4.018L28.987,9.366C29.417,9.697 29.985,10.183 30.347,10.515L33.545,8.855L33.751,8.704L33.6,8.909L31.941,12.111Z" style="fill:white;fill-rule:nonzero;"/>
                        <path id="M_60_" d="M19.795,5.333L21.258,2.056L21.351,1.766L21.324,2.069L21.478,6.447C21.991,6.495 22.521,6.567 23.043,6.654L22.806,0.169C22.075,0.089 21.348,0.031 20.62,0L19.179,3.576L19.128,3.842L19.077,3.576L17.638,0C16.91,0.031 16.183,0.089 15.452,0.169L15.215,6.654C15.737,6.567 16.267,6.497 16.78,6.447L16.934,2.069L16.907,1.766L17,2.056L18.463,5.333L19.795,5.333Z" style="fill:white;fill-rule:nonzero;"/>
                        <path id="B_x5F_22d_60_" d="M7.966,10.501C8.811,9.61 9.29,8.581 8.444,7.599C7.984,7.066 7.212,6.949 6.571,7.212L6.508,7.237L6.528,7.181C6.623,6.927 6.683,6.119 5.995,5.561C5.659,5.289 5.238,5.188 4.812,5.232C4.018,5.312 3.407,5.855 1.744,7.709C1.242,8.269 0.511,9.151 0.073,9.723L4.641,14.057C6.155,12.381 6.772,11.758 7.966,10.501ZM2.005,9.441C2.925,8.315 3.903,7.294 4.346,6.89C4.486,6.763 4.638,6.635 4.823,6.585C5.123,6.503 5.432,6.716 5.502,7.024C5.572,7.333 5.378,7.627 5.162,7.869C4.675,8.418 2.891,10.284 2.891,10.284L2.005,9.441ZM3.794,11.138C3.794,11.138 5.532,9.301 6.099,8.713C6.324,8.48 6.469,8.339 6.624,8.262C6.825,8.164 7.044,8.144 7.24,8.275C7.432,8.404 7.521,8.626 7.473,8.847C7.415,9.109 7.201,9.36 7.024,9.551C6.784,9.807 4.723,12.013 4.72,12.016L3.794,11.138Z" style="fill:white;fill-rule:nonzero;"/>
                    </g>
                    <path id="Path" d="M42.111,26.435L26.435,26.435L26.435,10.759C35.098,10.759 42.111,17.771 42.111,26.435Z" style="fill:white;fill-rule:nonzero;"/>
                    <path id="Path1" serif:id="Path" d="M26.435,26.435L26.435,42.111C17.771,42.111 10.759,35.098 10.759,26.435L26.435,26.435Z" style="fill:white;fill-rule:nonzero;"/>
                    <path id="Path2" serif:id="Path" d="M26.435,10.759L26.435,26.435L10.759,26.435C10.759,17.771 17.771,10.759 26.435,10.759Z" style="fill:rgb(0,102,177);fill-rule:nonzero;"/>
                    <path id="Path3" serif:id="Path" d="M42.111,26.435C42.111,35.098 35.098,42.111 26.435,42.111L26.435,26.435L42.111,26.435Z" style="fill:rgb(0,102,177);fill-rule:nonzero;"/>
                </g>
            </g>
        </g>
    </g>
</svg>
