<?xml version="1.0" encoding="UTF-8"?>
<svg xmlns="http://www.w3.org/2000/svg" version="1.0" viewBox="0 0 794 242">
  <g fill="#f00">
    <path d="M94.19 233.04H7.09l43.43-75.31h87.1"/>
    <path d="M181.05 233.04h86.87l-43.43-75.31h-86.87"/>
    <path d="M181.05 82.4 137.62 7.09l-43.43 75.3 43.43 75.34"/>
  </g>
  <path d="M307 200.96h34.93v-12.6h-34.94v-15.55h39.3v-12.64h-54v72.87h54.92V220.4h-40.22"/>
  <path d="m306.07 93.86 15.4 54.17h14.25l15.4-54.17v54.17h13.79V75.18h-21.15l-15.16 51.13-15.17-51.13h-21.15v72.85h13.8"/>
  <path d="M626.66 148.03h14.71V75.18h-14.7v72.85z"/>
  <path d="M638.61 233.04h14.71v-72.87h-14.7v72.87z"/>
  <path d="M771.9 148.03h14.71V75.18h-14.7v72.85z"/>
  <path d="M370.65 148.03h14.7V75.18h-14.7v72.85z"/>
  <path d="M751.45 103.59h-29.18V75.18h-14.48v72.85h14.48V116.2h29.18v31.83h14.25V75.18h-14.25"/>
  <path d="M407.2 148.03h14.93V87.77h17.7V75.18h-50.56v12.6h17.92"/>
  <path d="M540.94 233.04h14.94v-60.23h17.93v-12.64h-50.56v12.64h17.7"/>
  <path d="M531.06 150.05c18.62 0 28.96-8.5 28.96-24.8V75.19h-14.7v51.43c0 6.28-5.3 11.5-14.26 11.5-11.26 0-14.48-6.19-14.48-11.5V75.18h-14.25v50.08c0 17.53 10.8 24.8 28.73 24.8"/>
  <path d="M420.06 200.96h34.7v-12.6h-34.7v-15.55h39.07v-12.64h-53.78v72.87h54.93V220.4h-40.22"/>
  <path d="M598.17 86.74c3.9 0 8.5 3.72 8.5 8.62a9.1 9.1 0 0 1-9.42 9.19h-17.47V86.74h18.39zM597.02 137h-17.24v-21.12h17c6.21 0 11.27 3.52 11.27 10.6 0 5.97-4.6 10.52-11.03 10.52m-16.78 11.03h21.15c13.78 0 21.83-8.2 21.83-19.7 0-9.25-6.67-17.2-14.02-19.05 6.43-1.6 11.49-8.15 11.49-16.2 0-10.73-7.81-17.9-22.52-17.9H565.3v72.85"/>
  <path d="M592.2 192.52V172.7h17.69c5.97 0 9.88 4.2 9.88 9.95 0 4.07-3.45 9.88-9.42 9.88h-18.16zm29.18 5.54c6.2-1.88 12.87-7.5 12.87-17.6 0-12.96-8.74-20.39-23.67-20.39h-33.33v72.85h14.94v-28.7h12.41c7.59 0 11.72 3.93 12.87 9.12 1.38 5.73 1.15 14.25 2.53 19.58h14.94c-1.38-5.58-2.3-13.16-2.76-19.14-.46-9.86-5.75-13.81-10.8-15.72"/>
  <path d="M366.74 160.17h-14.7v72.87h48.95V220.4h-34.25"/>
  <path d="M464.65 117.24c11.72 2.04 18.38 4.25 18.38 11.3 0 4.76-4.6 9.31-14.48 9.31s-14.94-5.56-14.94-12.2H439.6c0 12.68 8.28 24.24 29.65 24.24 20.22 0 29.19-10.77 29.19-23.07 0-11.5-7.59-18.78-20.92-21.44-13.1-2.53-21.83-3.06-21.83-11.26 0-5.63 5.06-8.99 13.1-8.99 8.27 0 13.1 4.16 13.1 11.15h14.25c0-11.5-8.73-23.33-28.04-23.33-13.33 0-27.12 7.7-27.12 22.1 0 12.1 8.74 19.59 23.68 22.19"/>
  <path d="M669.87 117.24c11.95 2.04 18.61 4.25 18.61 11.3 0 4.76-4.82 9.31-14.47 9.31-9.89 0-14.94-5.56-14.94-12.2h-14.02c0 12.68 8.04 24.24 29.65 24.24 20.22 0 29.18-10.77 29.18-23.07 0-11.5-7.58-18.78-21.14-21.44-12.87-2.53-21.83-3.06-21.83-11.26 0-5.63 5.28-8.99 13.1-8.99 8.5 0 13.32 4.16 13.32 11.15h14.25c0-11.5-8.73-23.33-28.03-23.33-13.33 0-27.35 7.7-27.35 22.1 0 12.1 8.96 19.59 23.67 22.19"/>
  <path d="M493.37 221.78c-11.72 0-18.61-11.63-18.61-25.49 0-13.86 6.66-25.48 18.61-25.48 9.2 0 13.8 5.58 15.63 12.45h15.4c-2.53-14.27-13.56-24.84-31.26-24.84-22.29 0-33.78 17.05-33.78 38.06 0 21.07 11.95 38.12 33.78 38.12 17.47 0 29.19-10.15 31.26-25.74H509c-1.84 7.33-6.67 12.92-15.63 12.92"/>
  <path d="M691.01 221.78c-11.95 0-18.84-11.63-18.84-25.49 0-13.86 6.66-25.48 18.84-25.48 8.96 0 13.56 5.58 15.63 12.45h15.17c-2.53-14.27-13.56-24.84-31.26-24.84-22.29 0-33.55 17.05-33.55 38.06 0 21.07 11.72 38.12 33.55 38.12 17.47 0 29.19-10.15 31.49-25.74h-15.4c-2.07 7.33-6.9 12.92-15.63 12.92"/>
</svg>