<?xml version="1.0" encoding="UTF-8" standalone="no"?>
<svg
   width="1280"
   height="720"
   overflow="hidden"
   version="1.1"
   id="svg55"
   sodipodi:docname="Modelica_and_FMI_Confernce_Logo.svg"
   inkscape:export-filename="Modelica_and_FMI_Confernce_Logo.png"
   inkscape:export-xdpi="1600"
   inkscape:export-ydpi="1600"
   inkscape:version="1.3.2 (091e20e, 2023-11-25, custom)"
   xmlns:inkscape="http://www.inkscape.org/namespaces/inkscape"
   xmlns:sodipodi="http://sodipodi.sourceforge.net/DTD/sodipodi-0.dtd"
   xmlns="http://www.w3.org/2000/svg"
   xmlns:svg="http://www.w3.org/2000/svg">
  <sodipodi:namedview
     id="namedview55"
     pagecolor="#ffffff"
     bordercolor="#000000"
     borderopacity="0.25"
     inkscape:showpageshadow="2"
     inkscape:pageopacity="0.0"
     inkscape:pagecheckerboard="0"
     inkscape:deskcolor="#d1d1d1"
     inkscape:zoom="2.1820313"
     inkscape:cx="640"
     inkscape:cy="360.21482"
     inkscape:window-width="3840"
     inkscape:window-height="2036"
     inkscape:window-x="-12"
     inkscape:window-y="-12"
     inkscape:window-maximized="1"
     inkscape:current-layer="svg55" />
  <defs
     id="defs5">
    <clipPath
       id="clip0">
      <rect
         x="0"
         y="0"
         width="1280"
         height="720"
         id="rect1" />
    </clipPath>
    <clipPath
       id="clip1">
      <rect
         x="867"
         y="293"
         width="192"
         height="153"
         id="rect2" />
    </clipPath>
    <clipPath
       id="clip2">
      <rect
         x="867"
         y="293"
         width="192"
         height="153"
         id="rect3" />
    </clipPath>
    <clipPath
       id="clip3">
      <rect
         x="867"
         y="293"
         width="192"
         height="153"
         id="rect4" />
    </clipPath>
    <clipPath
       id="clip4">
      <rect
         x="866"
         y="293"
         width="193"
         height="153"
         id="rect5" />
    </clipPath>
  </defs>
  <g
     clip-path="url(#clip0)"
     id="g55">
    <rect
       x="0"
       y="0"
       width="1280"
       height="720"
       fill="#FFFFFF"
       id="rect6" />
    <g
       id="g17">
      <g
         id="g16">
        <g
           id="g15">
          <path
             d="M346.896 145.772C346.896 153.302 353.001 159.408 360.531 159.408 368.064 159.408 374.17 153.302 374.17 145.772 374.17 138.24 368.064 132.134 360.531 132.134 353.001 132.134 346.896 138.24 346.896 145.772"
             fill="#DE1D31"
             transform="matrix(1 0 0 -1 275.064 455.999)"
             id="path6" />
          <path
             d="M85.1162 47.0055 43.4601 0 79.9178 0 105.126 30.8346C97.1844 34.4969 90.3358 40.0844 85.1162 47.0055ZM385.298 236.629C368.277 236.007 349.178 217.532 349.178 217.74 349.386 228.326 341.498 238.497 326.966 236.214 312.438 233.93 294.169 215.664 293.962 215.664 294.585 223.344 289.49 232.372 281.507 235.383 270.11 239.684 253.206 236.484 231.341 212.273 214.142 193.229 170.454 143.416 154 124.749 159.824 121.297 164.92 116.767 169.027 111.407L221.308 176.016C221.308 176.016 251.602 215.738 268.222 219.607 281.979 222.81 284.123 209.656 279.015 197.395 268.624 172.459 243.103 130.97 243.103 130.97 243.103 130.97 278.808 177.26 284.827 184.941 290.847 192.621 320.947 230.402 334.232 217.117 347.18 204.171 308.285 148.198 308.285 148.198L328.213 173.94C328.213 173.94 368.691 227.08 386.336 220.437 403.982 213.795 374.917 165.221 374.917 165.428 374.917 165.428 392.324 178.696 401.697 207.152 405.983 220.165 402.32 237.252 385.298 236.629"
             fill="#707A84"
             transform="matrix(1 0 0 -1 275.064 455.999)"
             id="path7" />
          <path
             d="M0.00677411 104.618C0.00677411 116.057 9.22476 125.72 22.9971 125.72 30.2167 125.72 36.3254 123.054 40.3231 118.947 44.4335 123.054 50.4296 125.72 57.6497 125.72 71.534 125.72 80.3081 116.057 80.3081 104.618L80.3013 54.3569 67.6384 54.3569 67.6452 102.728C67.6452 110.614 63.649 114.946 57.4293 114.946 51.3185 114.946 46.5427 110.614 46.5427 102.728L46.5365 54.3569 33.7647 54.3569 33.771 102.728C33.771 110.614 28.9957 114.946 22.7761 114.946 16.6654 114.946 12.6671 110.614 12.6671 102.728L12.6608 54.3569 0.000521085 54.3569 0.00677411 104.618"
             fill="#1F262F"
             transform="matrix(1 0 0 -1 275.064 455.999)"
             id="path8" />
          <path
             d="M198.148 65.6344C205.369 65.6344 211.143 71.4063 211.143 78.6276 211.143 85.8467 205.369 91.6229 198.148 91.6229 190.931 91.6229 185.156 85.8467 185.156 78.6276 185.156 71.4063 190.931 65.6344 198.148 65.6344ZM211.034 124.499 223.807 124.499 223.807 79.0715C223.807 64.9688 212.365 53.419 198.148 53.419 184.044 53.419 172.603 64.9688 172.603 79.0715 172.603 93.2877 183.378 104.73 197.259 104.73 203.258 104.73 208.146 101.952 211.034 99.5069L211.034 124.499"
             fill="#1F262F"
             transform="matrix(1 0 0 -1 275.064 455.999)"
             id="path9" />
          <path
             d="M140.3 78.9064C140.3 86.2922 135.305 92.5849 127.219 92.5849 119.133 92.5849 114.143 86.2922 114.143 78.9064 114.143 71.52 119.133 65.2274 127.219 65.2274 135.305 65.2274 140.3 71.52 140.3 78.9064ZM152.479 78.9064C152.479 65.0287 141.296 54.0474 127.219 54.0474 113.142 54.0474 101.962 65.0287 101.962 78.9064 101.962 92.8809 113.142 103.763 127.219 103.763 141.296 103.763 152.479 92.8809 152.479 78.9064"
             fill="#1F262F"
             transform="matrix(1 0 0 -1 275.064 455.999)"
             id="path10" />
          <path
             d="M279.448 83.2965C279.244 87.3901 275.452 92.8809 267.565 92.8809 259.876 92.8809 256.385 87.4928 255.986 83.2965ZM291.426 79.1049C291.426 78.206 291.426 76.4114 291.327 74.612L255.986 74.612C256.881 70.4204 261.773 65.0287 269.261 65.0287 277.547 65.0287 282.24 69.8233 282.24 69.8233L288.23 60.8362C288.23 60.8362 280.742 54.0474 269.261 54.0474 254.887 54.0474 243.806 65.0287 243.806 78.9064 243.806 92.7833 253.891 103.763 267.565 103.763 280.542 103.763 291.426 93.6827 291.426 79.1049"
             fill="#1F262F"
             transform="matrix(1 0 0 -1 275.064 455.999)"
             id="path11" />
          <path
             d="M314.924 124.499 327.383 124.499 327.383 54.3569 314.924 54.3569 314.924 124.499"
             fill="#1F262F"
             transform="matrix(1 0 0 -1 275.064 455.999)"
             id="path12" />
          <path
             d="M424.381 71.0182 432.267 63.0304C432.267 63.0304 425.479 54.0474 412.701 54.0474 398.526 54.0474 387.244 65.0287 387.244 78.9064 387.244 92.8809 398.526 103.763 412.701 103.763 425.381 103.763 432.067 94.9765 432.067 94.9765L423.781 87.5902C423.781 87.5902 419.891 92.5849 412.701 92.5849 404.613 92.5849 399.425 86.2922 399.425 78.9064 399.425 71.52 404.613 65.2274 412.701 65.2274 420.786 65.2274 424.381 71.0182 424.381 71.0182"
             fill="#1F262F"
             transform="matrix(1 0 0 -1 275.064 455.999)"
             id="path13" />
          <path
             d="M354.003 103.724 366.565 103.724 366.565 54.3569 354.003 54.3569 354.003 103.724"
             fill="#1F262F"
             transform="matrix(1 0 0 -1 275.064 455.999)"
             id="path14" />
          <path
             d="M475.23 65.2274C467.143 65.2274 462.154 71.52 462.154 78.9064 462.154 86.2922 467.143 92.5849 475.23 92.5849 483.316 92.5849 488.309 86.2922 488.309 78.9064 488.309 71.52 483.316 65.2274 475.23 65.2274ZM488.309 103.724 488.309 100.231C484.503 102.466 480.044 103.763 475.23 103.763 461.152 103.763 449.973 92.8809 449.973 78.9064 449.973 65.0287 461.152 54.0474 475.23 54.0474 480.044 54.0474 484.503 55.3574 488.309 57.6013L488.309 54.3246 500.87 54.3246 500.87 103.724 488.309 103.724"
             fill="#1F262F"
             transform="matrix(1 0 0 -1 275.064 455.999)"
             id="path15" />
        </g>
      </g>
    </g>
    <text
       fill="#707A84"
       font-family="Century Gothic,Century Gothic_MSFontService,sans-serif"
       font-weight="700"
       font-size="88"
       transform="translate(798.41 403)"
       id="text17">&amp;</text>
    <text
       fill="#7C878E"
       font-family="Century Gothic,Century Gothic_MSFontService,sans-serif"
       font-style="italic"
       font-weight="700"
       font-size="88"
       transform="translate(265.075 286)"
       id="text18">16</text>
    <text
       fill="#7C878E"
       font-family="Century Gothic,Century Gothic_MSFontService,sans-serif"
       font-style="italic"
       font-weight="400"
       font-size="59"
       transform="translate(363.742 260)"
       id="text19">th</text>
    <text
       fill="#CC193A"
       font-family="Century Gothic,Century Gothic_MSFontService,sans-serif"
       font-weight="700"
       font-size="72"
       transform="translate(645.062 504)"
       id="text20">Conference</text>
    <rect
       x="392"
       y="434"
       width="490"
       height="10"
       fill="#CC193A"
       id="rect20" />
    <path
       d="M0 10 0 0 8 10Z"
       fill="#CC193A"
       fill-rule="evenodd"
       transform="matrix(-1 0 0 1 392 434)"
       id="path20" />
    <g
       clip-path="url(#clip1)"
       id="g54">
      <g
         clip-path="url(#clip2)"
         id="g53">
        <g
           clip-path="url(#clip3)"
           id="g52">
          <g
             clip-path="url(#clip4)"
             id="g51">
            <path
               d="M0 0.373042 0 10.1322 21.1043 10.1274 28.799 3.4639 36.8517 10.1274 188.252 10.1274 188.252 0.373042 0 0.373042"
               fill="#CC193A"
               transform="matrix(1 0 0 -1.00154 868.67 444.13)"
               id="path21" />
            <path
               d="M145.898 43.4159 145.898 84.2659C145.898 91.4963 142.232 96.7167 134.997 99.7832 132.796 100.298 131.241 100.511 130.032 100.511 123.623 100.511 118.688 97.2284 115.358 90.7468 114.502 88.5537 114.098 85.9306 114.098 82.8351L114.187 43.4159 102.153 43.4159 102.059 85.0789C102.059 92.5398 98.065 100.511 86.8441 100.511 73.4607 100.511 70.4498 88.9837 70.4498 84.9467L70.4498 43.4159 58.4155 43.4159 58.4794 83.9637C58.4794 102.125 68.6267 112.541 86.3202 112.541 94.3519 112.541 101.399 109.343 107.272 103.041L108.187 102.057 109.09 103.053C114.903 109.463 122.112 112.715 130.517 112.715 157.622 112.715 157.933 86.6763 157.933 85.5685L157.933 43.4159 145.898 43.4159"
               fill="#2A3741"
               transform="matrix(1 0 0 -1.00154 868.67 444.13)"
               id="path22" />
            <path
               d="M176.043 43.4159 176.043 84.0272 188.235 84.0272 188.235 43.4159 176.043 43.4159"
               fill="#2A3741"
               transform="matrix(1 0 0 -1.00154 868.67 444.13)"
               id="path23" />
            <path
               d="M176.064 94.8602 176.064 110.412 188.256 110.412 188.256 94.8602 176.064 94.8602"
               fill="#2A3741"
               transform="matrix(1 0 0 -1.00154 868.67 444.13)"
               id="path24" />
            <path
               d="M23.0504 14.8634 23.0504 100.511 0.463912 100.511 0.698259 112.541 23.0504 112.541 23.0504 120.44C23.0504 129.344 26.359 136.983 32.8787 143.146 35.2717 144.96 37.9503 146.451 40.7395 147.493 43.9416 148.482 47.6764 149.005 51.7725 149.031L51.7725 136.992C43.946 136.92 38.8873 134.037 36.7281 128.42 35.6378 125.55 35.0882 122.867 35.0882 120.44L35.0882 112.541 58.4794 112.541C53.9398 108.338 51.4238 102.649 50.5934 100.511L35.0882 100.511 35.0882 14.8891 28.833 9.86389 23.0504 14.8634"
               fill="#2A3741"
               transform="matrix(1 0 0 -1.00154 868.67 444.13)"
               id="path25" />
            <path
               d="M235.266 99.6502 247.162 99.6502 247.162 96.3793 235.266 96.3793 235.266 83.3394 231.832 83.3394 231.832 111.955 247.98 111.955 247.98 108.685 235.266 108.685 235.266 99.6502"
               fill="#2A3741"
               transform="matrix(1 0 0 -1.00154 868.67 444.13)"
               id="path26" />
            <path
               d="M254.113 90.0849 254.113 102.225 257.546 102.225 257.546 90.6567C257.546 87.4271 259.55 86.0372 262.084 86.0372 265.272 86.0372 266.786 89.1445 266.786 89.1445L266.786 102.225 270.22 102.225 270.22 83.3394 267.031 83.3394 267.031 86.2415C267.031 86.2415 265.314 82.849 261.226 82.849 257.465 82.849 254.113 85.4241 254.113 90.0849"
               fill="#2A3741"
               transform="matrix(1 0 0 -1.00154 868.67 444.13)"
               id="path27" />
            <path
               d="M293.195 95.4806 293.195 83.3394 289.761 83.3394 289.761 94.9076C289.761 98.138 287.759 99.5275 285.223 99.5275 282.158 99.5275 280.523 96.3393 280.523 96.3393L280.523 83.3394 277.089 83.3394 277.089 102.225 280.278 102.225 280.278 99.5685C280.278 99.5685 281.994 102.716 286.083 102.716 289.844 102.716 293.195 100.141 293.195 95.4806"
               fill="#2A3741"
               transform="matrix(1 0 0 -1.00154 868.67 444.13)"
               id="path28" />
            <path
               d="M316.213 86.4872C316.213 86.4872 313.473 82.849 308.487 82.849 302.926 82.849 298.756 87.2229 298.756 92.7829 298.756 98.3011 302.926 102.716 308.487 102.716 313.31 102.716 316.008 99.3227 316.008 99.3227L313.678 97.238C313.678 97.238 311.838 99.5275 308.487 99.5275 304.685 99.5275 302.191 96.5024 302.191 92.7829 302.191 89.062 304.685 86.0372 308.487 86.0372 312.165 86.0372 314.005 88.7349 314.005 88.7349L316.213 86.4872"
               fill="#2A3741"
               transform="matrix(1 0 0 -1.00154 868.67 444.13)"
               id="path29" />
            <path
               d="M319.566 102.225 323.244 102.225 323.244 107.99 326.679 107.99 326.679 102.225 332.564 102.225 332.564 99.1185 326.679 99.1185 326.679 88.9393C326.679 87.1002 327.578 86.0372 329.417 86.0372 330.48 86.0372 331.585 86.8142 331.585 86.8142L332.851 83.9937C331.216 83.0937 330.031 82.849 328.927 82.849 326.229 82.849 323.244 84.6068 323.244 88.7763L323.244 99.1185 319.566 99.1185 319.566 102.225"
               fill="#2A3741"
               transform="matrix(1 0 0 -1.00154 868.67 444.13)"
               id="path30" />
            <path
               d="M338.821 102.225 342.254 102.225 342.254 83.3394 338.821 83.3394ZM340.538 110.606C341.805 110.606 342.867 109.543 342.867 108.276 342.867 107.009 341.805 105.946 340.538 105.946 339.27 105.946 338.207 107.009 338.207 108.276 338.207 109.543 339.27 110.606 340.538 110.606"
               fill="#2A3741"
               transform="matrix(1 0 0 -1.00154 868.67 444.13)"
               id="path31" />
            <path
               d="M364.452 92.7829C364.452 96.5024 361.959 99.5275 358.158 99.5275 354.355 99.5275 351.861 96.5024 351.861 92.7829 351.861 89.062 354.355 86.0372 358.158 86.0372 361.959 86.0372 364.452 89.062 364.452 92.7829ZM367.887 92.7829C367.887 87.2229 363.716 82.849 358.158 82.849 352.597 82.849 348.427 87.2229 348.427 92.7829 348.427 98.3424 352.597 102.716 358.158 102.716 363.716 102.716 367.887 98.3424 367.887 92.7829"
               fill="#2A3741"
               transform="matrix(1 0 0 -1.00154 868.67 444.13)"
               id="path32" />
            <path
               d="M389.554 95.4806 389.554 83.3394 386.12 83.3394 386.12 94.9076C386.12 98.138 384.117 99.5275 381.582 99.5275 378.517 99.5275 376.881 96.3393 376.881 96.3393L376.881 83.3394 373.447 83.3394 373.447 102.225 376.636 102.225 376.636 99.5685C376.636 99.5685 378.353 102.716 382.441 102.716 386.202 102.716 389.554 100.141 389.554 95.4806"
               fill="#2A3741"
               transform="matrix(1 0 0 -1.00154 868.67 444.13)"
               id="path33" />
            <path
               d="M408.687 88.7349 408.687 91.3923C408.687 91.3923 406.807 92.7416 403.741 92.7416 400.797 92.7416 398.958 91.2698 398.958 89.3076 398.958 86.8546 401.165 85.8741 403.29 85.8741 406.643 85.8741 408.687 88.7349 408.687 88.7349ZM412.121 95.7662 412.121 83.3394 408.973 83.3394 408.973 86.0784C408.973 86.0784 406.848 82.849 402.555 82.849 399.162 82.849 395.525 85.2197 395.525 89.3076 395.525 92.9872 398.754 95.6033 403.005 95.6033 406.48 95.6033 408.687 94.0502 408.687 94.0502L408.687 95.0719C408.687 98.9958 405.417 99.5275 403.905 99.5275 401.043 99.5275 398.263 97.9337 398.263 97.9337L396.832 100.795C396.832 100.795 399.775 102.716 403.905 102.716 409.463 102.716 412.121 99.2828 412.121 95.7662"
               fill="#2A3741"
               transform="matrix(1 0 0 -1.00154 868.67 444.13)"
               id="path34" />
            <path
               d="M419.725 114.244 423.159 114.244 423.159 83.3394 419.725 83.3394 419.725 114.244"
               fill="#2A3741"
               transform="matrix(1 0 0 -1.00154 868.67 444.13)"
               id="path35" />
            <path
               d="M235.266 70.5307 245.118 54.5463 254.929 70.5307 258.241 70.5307 258.241 41.9151 254.806 41.9151 254.806 64.3168 245.037 48.4147 235.266 64.2755 235.266 41.9151 231.832 41.9151 231.832 70.5307 235.266 70.5307"
               fill="#2A3741"
               transform="matrix(1 0 0 -1.00154 868.67 444.13)"
               id="path36" />
            <path
               d="M280.563 51.3581C280.563 55.0777 278.069 58.103 274.268 58.103 270.466 58.103 267.972 55.0777 267.972 51.3581 267.972 47.6377 270.466 44.6125 274.268 44.6125 278.069 44.6125 280.563 47.6377 280.563 51.3581ZM283.998 51.3581C283.998 45.7986 279.827 41.4247 274.268 41.4247 268.708 41.4247 264.539 45.7986 264.539 51.3581 264.539 56.9181 268.708 61.292 274.268 61.292 279.827 61.292 283.998 56.9181 283.998 51.3581"
               fill="#2A3741"
               transform="matrix(1 0 0 -1.00154 868.67 444.13)"
               id="path37" />
            <path
               d="M305.707 45.0625C305.707 45.0625 302.967 41.4247 297.98 41.4247 292.42 41.4247 288.25 45.7986 288.25 51.3581 288.25 56.8768 292.42 61.292 297.98 61.292 302.803 61.292 305.502 57.8986 305.502 57.8986L303.171 55.8138C303.171 55.8138 301.332 58.103 297.98 58.103 294.178 58.103 291.685 55.0777 291.685 51.3581 291.685 47.6377 294.178 44.6125 297.98 44.6125 301.659 44.6125 303.498 47.3103 303.498 47.3103L305.707 45.0625"
               fill="#2A3741"
               transform="matrix(1 0 0 -1.00154 868.67 444.13)"
               id="path38" />
            <path
               d="M314.864 51.0724 314.864 41.9151 311.43 41.9151 311.43 72.8198 314.864 72.8198 314.864 52.4212 322.959 60.8016 327.455 60.8016 318.625 51.8898 328.191 41.9151 323.408 41.9151 314.864 51.0724"
               fill="#2A3741"
               transform="matrix(1 0 0 -1.00154 868.67 444.13)"
               id="path39" />
            <path
               d="M331.259 53.5247 342.173 53.5247 342.173 50.2542 331.259 50.2542 331.259 53.5247"
               fill="#2A3741"
               transform="matrix(1 0 0 -1.00154 868.67 444.13)"
               id="path40" />
            <path
               d="M365.925 70.5307 369.359 70.5307 369.359 52.4616C369.359 45.9617 365.476 41.4247 358.934 41.4247 352.394 41.4247 348.511 45.9617 348.511 52.4616L348.511 70.5307 351.945 70.5307C351.945 70.5307 351.945 62.2724 351.945 52.8299 351.945 48.2104 353.988 44.6943 358.934 44.6943 363.881 44.6943 365.925 48.2104 365.925 52.8299 365.925 62.2724 365.925 70.5307 365.925 70.5307"
               fill="#2A3741"
               transform="matrix(1 0 0 -1.00154 868.67 444.13)"
               id="path41" />
            <path
               d="M380.398 47.842C380.398 47.842 382.197 44.6125 385.958 44.6125 389.8 44.6125 392.212 47.6377 392.212 51.3581 392.212 55.0777 389.8 58.103 385.958 58.103 382.197 58.103 380.398 54.8733 380.398 54.8733ZM380.112 60.8016 380.112 58.0624C380.112 58.0624 381.993 61.292 386.49 61.292 391.599 61.292 395.646 56.9181 395.646 51.3581 395.646 45.7986 391.599 41.4247 386.49 41.4247 383.015 41.4247 381.053 43.3864 380.398 44.2451L380.398 32.5129 376.965 32.5129 376.965 60.8016 380.112 60.8016"
               fill="#2A3741"
               transform="matrix(1 0 0 -1.00154 868.67 444.13)"
               id="path42" />
            <path
               d="M232.404 29.106 235.839 29.106 235.839 0.489564 232.404 0.489564 232.404 29.106"
               fill="#2A3741"
               transform="matrix(1 0 0 -1.00154 868.67 444.13)"
               id="path43" />
            <path
               d="M260.121 12.6308 260.121 0.489564 256.688 0.489564 256.688 12.0587C256.688 15.2886 254.685 16.6778 252.149 16.6778 249.084 16.6778 247.449 13.4899 247.449 13.4899L247.449 0.489564 244.015 0.489564 244.015 19.3769 247.204 19.3769 247.204 16.7191C247.204 16.7191 248.92 19.8664 253.009 19.8664 256.77 19.8664 260.121 17.2913 260.121 12.6308"
               fill="#2A3741"
               transform="matrix(1 0 0 -1.00154 868.67 444.13)"
               id="path44" />
            <path
               d="M265.356 19.3769 269.033 19.3769 269.033 25.1404 272.468 25.1404 272.468 19.3769 278.354 19.3769 278.354 16.2695 272.468 16.2695 272.468 6.08955C272.468 4.25086 273.367 3.18782 275.206 3.18782 276.269 3.18782 277.373 3.96477 277.373 3.96477L278.641 1.14435C277.005 0.243913 275.82 0 274.716 0 272.018 0 269.033 1.75739 269.033 5.92694L269.033 16.2695 265.356 16.2695 265.356 19.3769"
               fill="#2A3741"
               transform="matrix(1 0 0 -1.00154 868.67 444.13)"
               id="path45" />
            <path
               d="M297.978 11.5678C297.856 13.6939 295.934 16.6778 292.132 16.6778 288.044 16.6778 286.369 13.53 286.124 11.5678ZM301.33 9.81041C301.33 9.44215 301.33 9.15606 301.29 8.70607L286.041 8.70607C286.246 5.84563 288.984 3.18782 292.54 3.18782 296.261 3.18782 298.224 5.96825 298.224 5.96825L300.39 3.71999C300.39 3.71999 297.529 -7.90863e-16 292.54 -7.90863e-16 286.818 -7.90863e-16 282.689 4.33217 282.689 9.93389 282.689 15.4526 286.451 19.8664 292.132 19.8664 297.407 19.8664 301.33 15.9021 301.33 9.81041"
               fill="#2A3741"
               transform="matrix(1 0 0 -1.00154 868.67 444.13)"
               id="path46" />
            <path
               d="M318.091 19.3769 316.825 16.2695C316.825 16.2695 316.089 16.6778 314.659 16.6778 311.674 16.6778 310.325 13.4899 310.325 13.4899L310.325 0.489564 306.891 0.489564 306.891 19.3769 310.08 19.3769 310.08 16.4743C310.08 16.4743 311.756 19.8664 315.353 19.8664 316.906 19.8664 318.091 19.3769 318.091 19.3769"
               fill="#2A3741"
               transform="matrix(1 0 0 -1.00154 868.67 444.13)"
               id="path47" />
            <path
               d="M320.628 19.3769 324.553 19.3769 324.553 25.876C324.553 29.8817 327.659 31.8852 330.357 31.8852 331.461 31.8852 332.688 31.6817 334.323 30.7821L333.055 27.9617C333.055 27.9617 331.911 28.6964 330.848 28.6964 329.008 28.6964 327.986 27.5121 327.986 25.6713L327.986 19.3769 332.892 19.3769 332.892 16.2695 327.986 16.2695 327.986 0.489564 324.553 0.489564 324.553 16.2695 320.628 16.2695 320.628 19.3769"
               fill="#2A3741"
               transform="matrix(1 0 0 -1.00154 868.67 444.13)"
               id="path48" />
            <path
               d="M350.021 5.88564 350.021 8.54389C350.021 8.54389 348.141 9.89172 345.075 9.89172 342.131 9.89172 340.292 8.41997 340.292 6.45912 340.292 4.00478 342.499 3.02521 344.624 3.02521 347.977 3.02521 350.021 5.88564 350.021 5.88564ZM353.455 12.9169 353.455 0.489564 350.307 0.489564 350.307 3.22912C350.307 3.22912 348.181 0 343.888 0 340.496 0 336.858 2.37087 336.858 6.45912 336.858 10.1378 340.087 12.7543 344.339 12.7543 347.814 12.7543 350.021 11.2004 350.021 11.2004L350.021 12.2222C350.021 16.1469 346.751 16.6778 345.238 16.6778 342.377 16.6778 339.596 15.0852 339.596 15.0852L338.166 17.9456C338.166 17.9456 341.109 19.8664 345.238 19.8664 350.797 19.8664 353.455 16.433 353.455 12.9169"
               fill="#2A3741"
               transform="matrix(1 0 0 -1.00154 868.67 444.13)"
               id="path49" />
            <path
               d="M376.473 3.63738C376.473 3.63738 373.733 0 368.746 0 363.186 0 359.017 4.37304 359.017 9.93389 359.017 15.4526 363.186 19.8664 368.746 19.8664 373.569 19.8664 376.268 16.4743 376.268 16.4743L373.937 14.3895C373.937 14.3895 372.097 16.6778 368.746 16.6778 364.944 16.6778 362.451 13.6526 362.451 9.93389 362.451 6.21303 364.944 3.18782 368.746 3.18782 372.425 3.18782 374.264 5.88564 374.264 5.88564L376.473 3.63738"
               fill="#2A3741"
               transform="matrix(1 0 0 -1.00154 868.67 444.13)"
               id="path50" />
            <path
               d="M395.441 11.5678C395.319 13.6939 393.398 16.6778 389.595 16.6778 385.507 16.6778 383.831 13.53 383.586 11.5678ZM398.792 9.81041C398.792 9.44215 398.792 9.15606 398.752 8.70607L383.504 8.70607C383.71 5.84563 386.448 3.18782 390.004 3.18782 393.725 3.18782 395.686 5.96825 395.686 5.96825L397.853 3.71999C397.853 3.71999 394.991 -7.90863e-16 390.004 -7.90863e-16 384.281 -7.90863e-16 380.151 4.33217 380.151 9.93389 380.151 15.4526 383.913 19.8664 389.595 19.8664 394.869 19.8664 398.792 15.9021 398.792 9.81041"
               fill="#2A3741"
               transform="matrix(1 0 0 -1.00154 868.67 444.13)"
               id="path51" />
          </g>
        </g>
      </g>
    </g>
  </g>
</svg>
