<?xml version="1.0" encoding="UTF-8"?>
<svg id="CLAYTEX" xmlns="http://www.w3.org/2000/svg" viewBox="0 0 1678.97 344.38">
  <defs>
    <style>
      .cls-1 {
        fill: #3eb1c8;
      }

      .cls-1, .cls-2 {
        stroke-width: 0px;
      }

      .cls-2 {
        fill: #232323;
      }
    </style>
  </defs>
  <g id="A_Technia_Company" data-name="A Technia Company">
    <path class="cls-2" d="M25.2,290.69h7.13l19.75,52.56h-7.36l-4.96-14.04h-22l-4.96,14.04h-7.36l19.75-52.56ZM37.51,323.05l-3.6-10.21c-1.73-4.81-3.38-9.61-5.11-14.42h-.08c-1.73,4.81-3.38,9.61-5.11,14.42l-3.6,10.21h17.5Z"/>
    <path class="cls-2" d="M99.01,296.92h-18.02v-6.23h43.03v6.23h-18.02v46.33h-6.98v-46.33Z"/>
    <path class="cls-2" d="M133.58,290.69h36.12v6.23h-29.06v16.9h26.13v6.23h-26.13v16.97h29.13v6.23h-36.19v-52.56Z"/>
    <path class="cls-2" d="M176.56,316.9c0-16.67,9.69-27.33,25.83-27.33,14.94,0,23.2,9.61,24.25,21.25h-7.21c-.6-7.96-6.53-15.02-17.04-15.02-11.49,0-18.55,8.03-18.55,21.1s8.11,21.25,18.55,21.25,16.14-7.66,17.04-14.04h7.21c-1.35,10.81-9.76,20.27-24.25,20.27-15.39,0-25.83-10.81-25.83-27.48Z"/>
    <path class="cls-2" d="M238.46,290.69h6.98v23.05h26.66v-23.05h6.98v52.56h-6.98v-23.28h-26.66v23.28h-6.98v-52.56Z"/>
    <path class="cls-2" d="M300.81,300.08h-.15l.08,9.01v34.17h-6.98v-52.56h9.39l27.93,43.1h.15l-.08-9.01v-34.09h6.91v52.56h-9.31l-27.93-43.18Z"/>
    <path class="cls-2" d="M352.7,290.69h6.98v52.56h-6.98v-52.56Z"/>
    <path class="cls-2" d="M388.87,290.69h7.13l19.75,52.56h-7.36l-4.96-14.04h-22l-4.96,14.04h-7.36l19.75-52.56ZM401.18,323.05l-3.6-10.21c-1.73-4.81-3.38-9.61-5.11-14.42h-.08c-1.73,4.81-3.38,9.61-5.11,14.42l-3.6,10.21h17.5Z"/>
    <path class="cls-2" d="M446.53,316.9c0-16.67,9.69-27.33,25.83-27.33,14.94,0,23.2,9.61,24.25,21.25h-7.21c-.6-7.96-6.53-15.02-17.04-15.02-11.49,0-18.55,8.03-18.55,21.1s8.11,21.25,18.55,21.25,16.14-7.66,17.04-14.04h7.21c-1.35,10.81-9.76,20.27-24.25,20.27-15.39,0-25.83-10.81-25.83-27.48Z"/>
    <path class="cls-2" d="M505.65,316.97c0-17.57,11.94-27.41,25.68-27.41s25.68,9.84,25.68,27.41-11.94,27.41-25.68,27.41-25.68-9.84-25.68-27.41ZM531.33,338.15c10.14,0,18.4-7.06,18.4-21.17s-8.26-21.18-18.4-21.18-18.4,7.06-18.4,21.18,8.26,21.17,18.4,21.17Z"/>
    <path class="cls-2" d="M568.98,290.69h10.21l15.69,44.83h.15l15.69-44.83h10.21v52.56h-6.83v-33.49c0-3,.08-6.01.08-9.01h-.15l-15.09,42.5h-7.96l-15.09-42.5h-.15c0,3,.08,6.01.08,9.01v33.49h-6.83v-52.56Z"/>
    <path class="cls-2" d="M635.65,290.69h22.45c10.51,0,18.1,5.93,18.1,15.92s-7.58,15.62-18.1,15.62h-15.47v21.02h-6.98v-52.56ZM657.28,315.99c7.21,0,11.64-3.53,11.64-9.39s-4.43-9.69-11.64-9.69h-14.64v19.07h14.64Z"/>
    <path class="cls-2" d="M697.62,290.69h7.13l19.75,52.56h-7.36l-4.96-14.04h-22l-4.96,14.04h-7.36l19.75-52.56ZM709.93,323.05l-3.6-10.21c-1.73-4.81-3.38-9.61-5.11-14.42h-.08c-1.73,4.81-3.38,9.61-5.11,14.42l-3.6,10.21h17.5Z"/>
    <path class="cls-2" d="M741.12,300.08h-.15l.07,9.01v34.17h-6.98v-52.56h9.39l27.93,43.1h.15l-.08-9.01v-34.09h6.91v52.56h-9.31l-27.93-43.18Z"/>
    <path class="cls-2" d="M805.86,322.38l-18.1-31.69h7.88l13.67,25.46h.15l13.67-25.46h7.88l-18.17,31.69v20.87h-6.98v-20.87Z"/>
  </g>
  <g id="CLAYTEX-2" data-name="CLAYTEX">
    <path class="cls-1" d="M184.32,59.2c-16.64-17.6-40.96-29.12-67.84-29.12-47.68,0-86.4,34.56-86.4,77.12s38.72,77.44,86.4,77.44c22.72,0,44.16-8.64,60.48-22.4,11.2-9.28,27.84-8.64,38.72.64-8.32,12.8-19.52,24-33.28,32.64-19.52,12.48-42.24,18.88-65.92,18.88C52.16,214.4,0,166.4,0,107.2S52.16,0,116.48,0c45.76,0,87.36,24.96,105.92,63.36-11.84,7.68-28.16,6.72-38.08-4.16Z"/>
    <path class="cls-1" d="M296.19,211.84c-16.32,0-28.48-14.4-29.12-30.72V.64c16.96,0,30.72,13.76,30.72,30.72v145.92c0,2.24,1.6,3.84,3.52,3.84h108.8c16.96,0,30.72,13.76,30.72,30.72h-144.64Z"/>
    <path class="cls-1" d="M691.46,199.36l-21.44-40.96h-134.72l-20.16,38.72c-7.68,15.04-25.92,21.44-40.96,13.76l100.48-192.64c5.76-11.2,16-17.6,27.84-17.6s22.4,6.4,28.16,17.6l100.48,192.64c-14.4,7.36-32.32,2.56-39.68-11.52ZM604.09,32c-.64-.96-1.28-1.6-1.6-1.6s-.96.64-1.6,1.92l-49.92,96h103.36l-50.24-96.32Z"/>
    <path class="cls-1" d="M850.33,143.68v70.4h-1.28c-15.68,0-29.44-13.44-29.44-29.12v-41.92L712.09,7.04c12.8-9.92,31.68-9.28,41.6,2.88l81.6,103.36,81.6-103.04c9.92-12.48,28.8-13.12,41.6-3.2h.32l-108.48,136.64Z"/>
    <path class="cls-1" d="M1154.91,32.32h-50.88v181.76h-1.28c-16.32,0-29.44-14.08-29.44-30.72V32.32h-50.88c-16.64,0-30.08-13.76-30.08-30.4h192.96c0,16.64-13.44,30.4-30.4,30.4Z"/>
    <path class="cls-1" d="M1385.3,31.68h-129.92c-1.92,0-3.52,1.6-3.52,3.52v51.84h140.16c-.64,16-13.44,29.76-29.76,29.76h-110.4v61.44c0,1.92,1.6,3.52,3.52,3.52h124.16c16.64,0,30.4,13.44,30.72,30.08h-157.76c-16.64,0-30.72-13.44-30.72-30.08V31.68c0-16.64,13.76-30.08,30.4-30.08h161.92c-.32,16.32-12.8,30.08-28.8,30.08Z"/>
    <path class="cls-1" d="M1586.49,107.2l92.48,98.56c-12.16,11.2-31.36,11.52-42.56-.32l-71.04-75.84-71.68,76.16c-10.88,11.84-29.76,10.88-41.6-.32l92.16-98.24-92.48-98.56c12.16-11.52,31.68-11.2,42.88.96l70.72,75.2,71.36-76.16c11.2-11.52,30.4-11.2,42.24,0l-92.48,98.56Z"/>
  </g>
</svg>