<?xml version="1.0" encoding="UTF-8" standalone="no"?>
<!DOCTYPE svg PUBLIC "-//W3C//DTD SVG 1.1//EN" "http://www.w3.org/Graphics/SVG/1.1/DTD/svg11.dtd">
<svg width="100%" height="100%" viewBox="0 0 296 45" version="1.1" xmlns="http://www.w3.org/2000/svg" xmlns:xlink="http://www.w3.org/1999/xlink" xml:space="preserve" xmlns:serif="http://www.serif.com/" style="fill-rule:evenodd;clip-rule:evenodd;stroke-linejoin:round;stroke-miterlimit:2;">
    <g transform="matrix(1,0,0,1,0,0.081)">
        <g transform="matrix(1,0,0,1,312.672,-274.492)">
            <path d="M-290.343,297.307C-296.396,296.828 -301.771,301.416 -302.25,307.469C-302.273,307.76 -302.285,308.052 -302.285,308.343C-302.285,314.086 -297.814,318.924 -292.089,319.376C-291.798,319.399 -291.507,319.411 -291.215,319.411C-285.472,319.411 -280.634,314.94 -280.181,309.215C-279.703,303.162 -284.29,297.787 -290.343,297.307ZM-291.559,312.677C-293.808,312.499 -295.564,310.599 -295.564,308.344C-295.564,308.229 -295.559,308.114 -295.55,308C-295.362,305.622 -293.251,303.82 -290.873,304.007C-288.495,304.196 -286.693,306.308 -286.88,308.686C-287.069,311.064 -289.181,312.865 -291.559,312.676L-291.559,312.677Z" style="fill:rgb(149,88,178);fill-rule:nonzero;"/>
        </g>
        <g transform="matrix(1,0,0,1,0,16.836)">
            <circle cx="4.348" cy="4.348" r="4.348" style="fill:rgb(203,60,51);"/>
        </g>
        <g transform="matrix(1,0,0,1,66.966,16.836)">
            <circle cx="4.348" cy="4.348" r="4.348" style="fill:rgb(203,60,51);"/>
        </g>
        <g transform="matrix(1,0,0,1,319.69,-282.075)">
            <path d="M-271.453,282.108C-280.11,281.553 -287.691,288.219 -288.246,296.876C-288.268,297.213 -288.279,297.551 -288.279,297.889C-288.279,306.182 -281.754,313.138 -273.478,313.669C-264.821,314.224 -257.24,307.557 -256.685,298.9C-256.131,290.244 -262.797,282.664 -271.453,282.108ZM-264.182,298.42C-264.459,302.765 -268.111,306.191 -272.465,306.191C-272.644,306.191 -272.822,306.185 -273,306.174C-277.345,305.896 -280.77,302.245 -280.77,297.891C-280.77,297.713 -280.764,297.535 -280.753,297.358C-280.475,293.013 -276.824,289.588 -272.47,289.588C-272.292,289.588 -272.114,289.594 -271.937,289.605C-267.591,289.882 -264.165,293.534 -264.165,297.888C-264.165,298.066 -264.171,298.243 -264.182,298.42Z" style="fill:rgb(64,99,216);fill-rule:nonzero;"/>
        </g>
        <g transform="matrix(1,0,0,1,10.077,2.362)">
            <circle cx="8.302" cy="8.302" r="8.302" style="fill:rgb(63,152,46);"/>
        </g>
    </g>
    <g transform="matrix(1,0,0,1,79.132,0)">
        <g transform="matrix(1,0,0,1,253.349,-281.435)">
            <path d="M-239.48,283.6C-238.524,283.262 -237.508,283.123 -236.496,283.191C-235.485,283.15 -234.475,283.289 -233.512,283.6L-233.512,314.114C-233.512,322.065 -238.075,325.865 -244.803,325.865C-247.736,325.831 -250.635,325.236 -253.344,324.112C-253.462,322.459 -252.89,320.829 -251.765,319.612C-249.944,320.272 -248.026,320.627 -246.089,320.663C-242.345,320.663 -239.48,319.085 -239.48,314.291L-239.48,283.6Z" style="fill-rule:nonzero;stroke:white;stroke-width:1px;"/>
        </g>
        <g transform="matrix(1,0,0,1,262.822,-277.678)">
            <path d="M-234.445,291.159C-233.501,290.851 -232.511,290.713 -231.519,290.751C-230.527,290.705 -229.536,290.843 -228.595,291.159L-228.595,312.219C-228.595,315.496 -226.895,317.368 -223.155,317.368C-220.461,317.323 -217.967,315.911 -216.543,313.624L-216.543,291.159C-215.598,290.86 -214.61,290.722 -213.619,290.751C-212.626,290.695 -211.633,290.834 -210.693,291.159L-210.693,321.112C-211.632,321.438 -212.626,321.578 -213.619,321.522C-214.61,321.551 -215.598,321.413 -216.543,321.112L-216.543,318.422C-218.805,320.883 -222.037,322.231 -225.377,322.107C-231.227,322.107 -234.445,318.539 -234.445,313.273L-234.445,291.159Z" style="fill-rule:nonzero;stroke:white;stroke-width:1px;"/>
        </g>
        <g transform="matrix(1,0,0,1,273.66,-282.021)">
            <path d="M-206.966,325.455C-207.909,325.764 -208.9,325.903 -209.892,325.865C-210.884,325.921 -211.877,325.781 -212.816,325.455L-212.816,282.429C-211.877,282.104 -210.884,281.965 -209.892,282.021C-208.9,281.983 -207.91,282.121 -206.966,282.429L-206.966,325.455Z" style="fill-rule:nonzero;stroke:white;stroke-width:1px;"/>
        </g>
        <g transform="matrix(1,0,0,1,278.523,-281.592)">
            <path d="M-197.028,288.782C-198.012,289.089 -199.041,289.227 -200.071,289.192C-201.101,289.244 -202.132,289.105 -203.112,288.782L-203.112,283.288C-202.132,282.965 -201.101,282.826 -200.071,282.879C-199.041,282.843 -198.012,282.982 -197.028,283.288L-197.028,288.782ZM-197.145,325.026C-198.088,325.334 -199.079,325.473 -200.071,325.435C-201.064,325.491 -202.058,325.352 -202.997,325.026L-202.997,295.1C-202.057,294.775 -201.064,294.637 -200.071,294.692C-199.079,294.654 -198.089,294.793 -197.145,295.1L-197.145,325.026Z" style="fill-rule:nonzero;stroke:white;stroke-width:1px;"/>
        </g>
        <g transform="matrix(1,0,0,1,282.76,-277.874)">
            <path d="M-182.078,290.361C-173.595,290.361 -170.904,294.161 -170.904,301.711L-170.904,321.311C-171.617,321.64 -172.403,321.781 -173.186,321.721C-173.986,321.742 -174.781,321.603 -175.526,321.311L-176.404,317.567C-177.925,320.667 -181.141,322.306 -185.588,322.306C-191.088,322.306 -194.656,319.089 -194.656,312.537C-194.656,306.159 -190.737,303.352 -183.423,303.352C-181.195,303.35 -178.969,303.468 -176.754,303.703L-176.754,301.538C-176.754,297.56 -178.276,295.278 -182.779,295.278C-185.455,295.332 -188.103,295.826 -190.618,296.74C-191.203,296.273 -191.665,295.671 -191.964,294.985C-192.283,294.208 -192.404,293.363 -192.315,292.528C-189.09,291.103 -185.604,290.365 -182.078,290.361ZM-182.662,307.326C-186.583,307.326 -188.63,308.847 -188.63,312.533C-188.63,316.333 -186.7,317.797 -183.54,317.797C-178.918,317.797 -176.754,313.878 -176.754,309.724L-176.754,307.676C-178.1,307.561 -180.441,307.326 -182.662,307.326Z" style="fill-rule:nonzero;stroke:white;stroke-width:1px;"/>
        </g>
        <g transform="matrix(1,0,0,1,293.657,-281.435)">
            <path d="M-149.392,283.6C-148.427,283.297 -147.419,283.159 -146.408,283.191C-145.397,283.159 -144.389,283.297 -143.424,283.6L-143.424,324.87C-144.367,325.178 -145.358,325.317 -146.35,325.279C-147.382,325.35 -148.417,325.211 -149.393,324.87L-149.393,306.28L-166.944,306.28L-166.944,324.869C-167.909,325.172 -168.917,325.311 -169.928,325.278C-170.939,325.337 -171.953,325.198 -172.911,324.869L-172.911,283.6C-171.968,283.292 -170.977,283.153 -169.985,283.191C-168.956,283.155 -167.927,283.294 -166.944,283.6L-166.944,301.138L-149.393,301.138L-149.392,283.6Z" style="fill-rule:nonzero;stroke:white;stroke-width:1px;"/>
        </g>
        <g transform="matrix(1,0,0,1,306.467,-277.678)">
            <path d="M-147.345,291.159C-146.402,290.852 -145.412,290.713 -144.421,290.751C-143.429,290.705 -142.436,290.843 -141.494,291.159L-141.494,312.219C-141.494,315.496 -139.794,317.368 -136.054,317.368C-133.36,317.323 -130.867,315.911 -129.443,313.624L-129.443,291.159C-128.498,290.859 -127.508,290.721 -126.517,290.751C-125.525,290.696 -124.532,290.834 -123.593,291.159L-123.593,321.112C-124.532,321.438 -125.525,321.577 -126.517,321.522C-127.508,321.551 -128.498,321.413 -129.443,321.112L-129.443,318.422C-131.705,320.883 -134.937,322.231 -138.278,322.107C-144.128,322.107 -147.345,318.539 -147.345,313.273L-147.345,291.159Z" style="fill-rule:nonzero;stroke:white;stroke-width:1px;"/>
        </g>
        <g transform="matrix(1,0,0,1,317.247,-282.021)">
            <path d="M-119.983,298.331C-118.345,295.931 -115.712,294.531 -111.559,294.531C-104.89,294.531 -100.559,298.565 -100.559,310.49C-100.559,322.415 -104.888,326.45 -111.559,326.45C-115.713,326.45 -118.345,325.05 -119.983,322.65L-119.983,325.455C-120.946,325.767 -121.956,325.905 -122.967,325.865C-123.94,325.908 -124.912,325.769 -125.833,325.455L-125.833,282.429C-124.911,282.116 -123.939,281.978 -122.967,282.021C-121.956,281.98 -120.946,282.119 -119.983,282.429L-119.983,298.331ZM-113.606,299.326C-117.706,299.326 -119.983,302.716 -119.983,306.691L-119.983,314.175C-119.983,318.209 -117.701,321.657 -113.606,321.657C-108.926,321.657 -106.585,319.201 -106.585,310.491C-106.585,301.781 -108.926,299.325 -113.607,299.325L-113.606,299.326Z" style="fill-rule:nonzero;stroke:white;stroke-width:1px;"/>
        </g>
    </g>
</svg>
