<?xml version="1.0" encoding="UTF-8" standalone="no"?>
<!-- Created with Inkscape (http://www.inkscape.org/) -->

<svg
   width="986.6687"
   height="169.36499"
   id="svg2"
   version="1.1"
   inkscape:version="1.1.2 (0a00cf5339, 2022-02-04)"
   sodipodi:docname="logo-glow.svg"
   inkscape:export-filename="/home/martin/trunk/doc/images/logo.png"
   inkscape:export-xdpi="17.731571"
   inkscape:export-ydpi="17.731571"
   xmlns:inkscape="http://www.inkscape.org/namespaces/inkscape"
   xmlns:sodipodi="http://sodipodi.sourceforge.net/DTD/sodipodi-0.dtd"
   xmlns="http://www.w3.org/2000/svg"
   xmlns:svg="http://www.w3.org/2000/svg"
   xmlns:rdf="http://www.w3.org/1999/02/22-rdf-syntax-ns#"
   xmlns:cc="http://creativecommons.org/ns#"
   xmlns:dc="http://purl.org/dc/elements/1.1/">
  <defs
     id="defs4">
    <filter
       style="color-interpolation-filters:sRGB"
       inkscape:label="Blur"
       id="filter6161"
       x="-0.020077479"
       y="-0.14152243"
       width="1.040155"
       height="1.2830449">
      <feGaussianBlur
         stdDeviation="2 2"
         result="fbSourceGraphic"
         id="feGaussianBlur6159" />
      <feColorMatrix
         result="fbSourceGraphicAlpha"
         in="fbSourceGraphic"
         values="0 0 0 -1 0 0 0 0 -1 0 0 0 0 -1 0 0 0 0 1 0"
         id="feColorMatrix6937" />
      <feGaussianBlur
         id="feGaussianBlur6939"
         stdDeviation="2.8 2.8"
         result="fbSourceGraphic"
         in="fbSourceGraphic" />
      <feColorMatrix
         result="fbSourceGraphicAlpha"
         in="fbSourceGraphic"
         values="0 0 0 -1 0 0 0 0 -1 0 0 0 0 -1 0 0 0 0 1 0"
         id="feColorMatrix9825" />
      <feGaussianBlur
         id="feGaussianBlur9827"
         stdDeviation="3.10334 2.8"
         result="blur"
         in="fbSourceGraphic" />
    </filter>
  </defs>
  <sodipodi:namedview
     id="base"
     pagecolor="#ffffff"
     bordercolor="#666666"
     borderopacity="1.0"
     inkscape:pageopacity="0.0"
     inkscape:pageshadow="2"
     inkscape:zoom="0.22627417"
     inkscape:cx="-1045.1922"
     inkscape:cy="-967.85241"
     inkscape:document-units="px"
     inkscape:current-layer="g4628"
     showgrid="false"
     fit-margin-top="4"
     fit-margin-left="4"
     fit-margin-bottom="4"
     fit-margin-right="4"
     units="pt"
     inkscape:window-width="1920"
     inkscape:window-height="1007"
     inkscape:window-x="1920"
     inkscape:window-y="420"
     inkscape:window-maximized="1"
     inkscape:pagecheckerboard="true" />
  <metadata
     id="metadata7">
    <rdf:RDF>
      <cc:Work
         rdf:about="">
        <dc:format>image/svg+xml</dc:format>
        <dc:type
           rdf:resource="http://purl.org/dc/dcmitype/StillImage" />
      </cc:Work>
    </rdf:RDF>
  </metadata>
  <g
     inkscape:groupmode="layer"
     id="layer3"
     inkscape:label="Border"
     style="display:inline;opacity:1;mix-blend-mode:screen"
     transform="translate(1.6898285,18.698352)">
    <g
       style="font-style:normal;font-weight:normal;font-size:40px;line-height:125%;font-family:Sans;letter-spacing:0px;word-spacing:0px;fill:#ffffff;fill-opacity:0.726351;stroke:none;stroke-width:5;stroke-miterlimit:4;stroke-dasharray:none;stroke-opacity:1;filter:url(#filter6161)"
       id="g4628"
       transform="translate(86.538272,-426.58507)">
      <path
         id="path4604"
         style="fill:#ffffff;fill-opacity:0.726351;stroke:none;stroke-width:5;stroke-miterlimit:4;stroke-dasharray:none;stroke-opacity:1"
         d="m -14.289062,428.14062 c -13.836737,0.25022 -27.63899,5.81629 -37.409307,15.68727 -9.620834,9.65621 -15.272847,23.09921 -15.546384,36.7196 -0.286531,9.87599 2.048247,19.86202 7.023975,28.42423 4.828767,8.56166 12.137269,15.68976 20.816471,20.30462 7.707647,4.19404 16.459627,6.33515 25.218009,6.47034 9.3482445,0.21612 18.7741625,-1.83515 27.070525,-6.18408 10.051099,-5.11771 18.424947,-13.50469 23.376397,-23.65341 3.93489,-7.79666 5.875547,-16.57411 5.613409,-25.30281 -0.178311,-7.80355 -2.107955,-15.55144 -5.608408,-22.52826 C 30.002094,445.21705 18.235554,435.29069 4.6683478,430.87938 -1.42578,428.85951 -7.8791897,428.00962 -14.289062,428.14062 Z m 2.089843,32.6836 c 0.523273,0.013 0.85316,0.0217 1.433594,0.0781 4.7955735,0.45206 9.3288603,2.9692 12.2726124,6.77857 4.9926496,6.10499 6.176443,14.85049 3.6452894,22.23679 -1.8245108,5.44587 -6.00178567,10.2283 -11.5087374,12.11297 -6.5207294,2.32642 -14.2429984,0.64063 -19.2143154,-4.1732 -1.519583,-1.42699 -2.692545,-3.17648 -3.640162,-5.02349 -0.128369,-0.27001 -0.457089,-0.91071 -0.63406,-1.34985 -0.909786,-2.10036 -1.495586,-4.33543 -1.780002,-6.60522 -0.03914,-0.3527 -0.120287,-1.12528 -0.143623,-1.64349 -0.387845,-6.23026 1.65731,-12.72406 6.120415,-17.18368 3.47895,-3.55406 8.509419,-5.38104 13.448989,-5.22752 z" />
      <path
         id="path4606"
         style="fill:#ffffff;fill-opacity:0.726351;stroke:none;stroke-width:5;stroke-miterlimit:4;stroke-dasharray:none;stroke-opacity:1"
         d="m 87.046875,450.62891 c -5.082471,0.0912 -10.225278,0.96795 -14.835937,3.17968 0.235046,-0.84898 -0.269405,-0.95846 -1,-0.84179 -10.152344,0 -20.304688,0 -30.457032,0 0,34.68164 0,69.36328 0,104.04492 10.89974,0 21.799479,0 32.699219,0 0,-7.86198 0,-15.72396 0,-23.58594 6.415243,2.85087 13.67446,3.4269 20.574516,2.45297 10.373229,-1.48922 19.960499,-7.48401 25.963949,-16.05625 5.06328,-7.18789 7.61648,-15.98355 7.82677,-24.73266 0.20184,-9.43699 -2.02376,-19.07593 -7.22775,-27.02896 -4.06108,-6.30394 -9.97528,-11.43041 -16.90586,-14.3373 -5.233773,-2.26308 -10.948638,-3.24511 -16.637875,-3.09467 z m -3.435547,31.31445 c 4.110815,-0.10611 8.276468,2.14584 10.128047,5.87394 2.543714,4.73504 1.489758,11.1842 -2.641807,14.6859 -4.657476,3.98958 -12.520127,3.07034 -16.199359,-1.81331 -3.04117,-3.86827 -3.267877,-9.73633 -0.406056,-13.76699 2.019045,-2.96345 5.487895,-5.02085 9.119175,-4.97954 z" />
      <path
         id="path4608"
         style="fill:#ffffff;fill-opacity:0.726351;stroke:none;stroke-width:5;stroke-miterlimit:4;stroke-dasharray:none;stroke-opacity:1"
         d="m 164.44727,450.63086 c -11.28246,0.16783 -22.3173,5.35369 -29.81055,13.76172 -6.45467,7.13466 -10.41782,16.48016 -10.97151,26.09256 -0.64188,9.31788 1.54862,18.92372 6.76974,26.72802 6.10698,9.47861 16.17368,16.34679 27.28643,18.36879 9.684,1.79323 20.10505,0.33349 28.57562,-4.82237 8.40248,-4.9918 14.7786,-12.97512 18.58535,-21.91111 1.3795,-3.07588 2.75892,-6.15181 4.13913,-9.22738 -0.47176,-0.0112 -1.50041,0.57154 -1.60023,0.16369 0.78332,-4.83294 0.50342,-9.79142 -0.3925,-14.58824 -1.61642,-8.41912 -5.70259,-16.39535 -11.85301,-22.40086 -7.84123,-7.89227 -18.96013,-12.37403 -30.08041,-12.16989 -0.21602,0.002 -0.43204,0.003 -0.64806,0.005 z m 1.16796,29.51562 c 0.94705,0.001 0.4953,0.0122 -0.1664,0.008 -0.70733,7.8e-4 -0.50316,-0.001 0.1664,-0.008 z m 3.83204,25.80469 c -1.93743,0.89769 -4.15988,0.89507 -6.25,0.75195 -1.00917,-0.11522 -2.01294,-0.34272 -2.94532,-0.75195 3.06511,0 6.13021,0 9.19532,0 z" />
      <path
         id="path4610"
         style="fill:#ffffff;fill-opacity:0.726351;stroke:none;stroke-width:5;stroke-miterlimit:4;stroke-dasharray:none;stroke-opacity:1"
         d="m 250.12305,450.62891 c -4.3872,0.0784 -8.82152,0.92843 -12.75196,2.93164 -0.61101,-0.67563 -1.52469,-0.62634 -2.35898,-0.59375 -9.49883,0 -18.99766,0 -28.49649,0 0,27 10e-6,54 0,81 10.89974,0 21.79948,0 32.69922,0 0.0143,-15.29027 -0.0481,-30.58207 0.0538,-45.87133 0.15766,-1.88344 0.36492,-4.13836 2.02262,-5.34034 1.80592,-1.05258 4.04423,-0.94537 6.01536,-0.50318 1.44508,0.59812 1.69923,2.26827 2.03711,3.60938 0.61651,3.38768 0.26612,6.84734 0.36523,10.26875 0,12.61224 0,25.22448 0,37.83672 10.9004,0 21.80079,0 32.70118,0 -0.0161,-17.25807 0.0516,-34.51735 -0.0567,-51.77461 -0.21343,-5.85986 -0.9218,-11.9696 -4.0207,-17.08143 -3.64816,-6.02774 -9.58058,-10.54977 -16.27171,-12.69729 -3.83421,-1.28923 -7.89474,-1.89071 -11.93799,-1.78456 z" />
      <path
         id="path4612"
         style="font-variant:normal;font-weight:bold;font-stretch:normal;font-size:138px;font-family:AvantGardeMdITC;-inkscape-font-specification:'AvantGardeMdITC Bold';fill:#ffffff;fill-opacity:0.726351;stroke:none;stroke-width:5;stroke-miterlimit:4;stroke-dasharray:none;stroke-opacity:1"
         d="m 284.83594,431.91992 c 0,34.01563 0,68.03125 0,102.04688 11.19596,0 22.39192,0 33.58789,0 -0.10169,-10.33725 -0.20591,-20.67448 -0.3086,-31.01172 2.97136,10.33724 5.94269,20.67448 8.91407,31.01172 8.20963,0 16.41927,0 24.6289,0 2.94086,-10.23175 5.8815,-20.46355 8.82227,-30.69532 -0.12154,10.23178 -0.24482,20.46353 -0.36524,30.69532 11.24545,0 22.49089,0 33.73633,0 0,-34.68229 0,-69.36459 0,-104.04688 -13.60677,0 -27.21354,0 -40.82031,0 -4.58805,15.24526 -9.17012,30.49233 -13.75586,45.73828 -4.58637,-15.24596 -9.16922,-30.49298 -13.75781,-45.73828 -13.56055,0 -27.1211,0 -40.68164,0 0,0.66667 0,1.33334 0,2 z" />
      <path
         id="path4614"
         style="font-variant:normal;font-weight:bold;font-stretch:normal;font-size:138px;font-family:AvantGardeMdITC;-inkscape-font-specification:'AvantGardeMdITC Bold';fill:#ffffff;fill-opacity:0.726351;stroke:none;stroke-width:5;stroke-miterlimit:4;stroke-dasharray:none;stroke-opacity:1"
         d="m 435.54883,450.63086 c -12.18719,0.16761 -24.40711,5.4859 -32.25977,14.91406 -7.32968,8.71437 -10.68029,20.42437 -9.80502,31.71452 0.46523,7.04074 2.59672,14.00939 6.49174,19.91977 5.97707,9.25267 15.80239,15.83291 26.56328,18.08251 7.06098,1.46479 14.46496,1.42966 21.47964,-0.27889 8.39426,-2.07396 16.16237,-6.74221 21.73911,-13.37541 7.07882,-8.39439 10.69317,-19.55806 10.06517,-30.50588 -0.57631,-11.60626 -5.89668,-23.01746 -14.8315,-30.52857 -8.12553,-6.84707 -18.87409,-10.23819 -29.44265,-9.94211 z m 1.6875,31.32031 c 4.24826,0.19795 7.97394,3.43394 9.22656,7.42578 1.77265,4.91429 0.22697,11.08465 -4.18945,14.08008 -3.12429,1.98447 -7.30748,2.00128 -10.5816,0.36948 -2.88031,-1.49685 -4.73302,-4.46917 -5.3388,-7.60184 -0.89653,-4.01454 0.1717,-8.55177 3.25457,-11.38467 2.01688,-1.97954 4.8006,-3.06435 7.62872,-2.88883 z" />
      <path
         id="path4616"
         style="font-variant:normal;font-weight:bold;font-stretch:normal;font-size:138px;font-family:AvantGardeMdITC;-inkscape-font-specification:'AvantGardeMdITC Bold';fill:#ffffff;fill-opacity:0.726351;stroke:none;stroke-width:5;stroke-miterlimit:4;stroke-dasharray:none;stroke-opacity:1"
         d="m 530.2168,431.91992 c -0.007,7.18204 0.013,14.40255 -0.01,21.56055 -6.88084,-3.03932 -14.69303,-3.4993 -22.0357,-2.1664 -7.32239,1.33825 -14.23992,4.83903 -19.57502,10.04207 -7.57415,7.26274 -12.08717,17.45921 -12.85664,27.88569 -0.54123,6.94867 0.21187,14.05173 2.5512,20.63401 2.85629,7.9363 8.10083,15.11577 15.21881,19.73113 6.72431,4.47587 14.81283,6.82886 22.88719,6.70467 5.24905,0.007 10.5735,-0.95299 15.28282,-3.33703 0.55655,0.88255 1.64227,1.10339 2.61328,0.99219 9.54101,0 19.08203,0 28.62305,0 0,-34.68229 0,-69.36459 0,-104.04688 -10.89974,0 -21.79948,0 -32.69922,0 0,0.66667 0,1.33334 0,2 z m -9.41797,50.05274 c 3.93217,0.26249 7.8639,2.55754 9.41725,6.28444 1.71927,3.77193 1.42695,8.4298 -0.78809,11.93681 -2.02235,3.02586 -5.62705,4.8012 -9.242,4.79013 -3.24994,0.13939 -6.69873,-0.82772 -8.92427,-3.31412 -2.8427,-3.01591 -3.52947,-7.53739 -2.63626,-11.47411 0.70395,-3.27365 3.15798,-6.00752 6.23589,-7.25988 1.86878,-0.7859 3.91817,-1.09087 5.93748,-0.96327 z" />
      <path
         id="path4618"
         style="font-variant:normal;font-weight:bold;font-stretch:normal;font-size:138px;font-family:AvantGardeMdITC;-inkscape-font-specification:'AvantGardeMdITC Bold';fill:#ffffff;fill-opacity:0.726351;stroke:none;stroke-width:5;stroke-miterlimit:4;stroke-dasharray:none;stroke-opacity:1"
         d="m 602.43555,450.63086 c -11.28246,0.16783 -22.3173,5.35369 -29.81055,13.76172 -6.45467,7.13466 -10.41781,16.48016 -10.97151,26.09256 -0.64188,9.31788 1.54862,18.92372 6.76974,26.72802 6.10697,9.47856 16.17361,16.34697 27.28643,18.36879 9.684,1.79323 20.10505,0.33349 28.57562,-4.82237 8.40248,-4.9918 14.7786,-12.97512 18.58535,-21.91111 1.37951,-3.07588 2.75893,-6.15181 4.13914,-9.22738 -0.47177,-0.0112 -1.50042,0.57154 -1.60024,0.16369 0.78332,-4.83294 0.50342,-9.79142 -0.3925,-14.58824 -1.61623,-8.41921 -5.70261,-16.39534 -11.85301,-22.40086 -7.84123,-7.89227 -18.96013,-12.37403 -30.08041,-12.16989 -0.21602,0.002 -0.43204,0.003 -0.64806,0.005 z m 1.16797,29.51562 c 0.94704,0.001 0.49529,0.0122 -0.16641,0.008 -0.70733,7.8e-4 -0.50316,-0.001 0.16641,-0.008 z m 3.83203,25.80469 c -1.93742,0.89769 -4.15988,0.89507 -6.25,0.75195 -1.00917,-0.11522 -2.01294,-0.34272 -2.94532,-0.75195 3.06511,0 6.13021,0 9.19532,0 z" />
      <path
         id="path4620"
         style="font-variant:normal;font-weight:bold;font-stretch:normal;font-size:138px;font-family:AvantGardeMdITC;-inkscape-font-specification:'AvantGardeMdITC Bold';fill:#ffffff;fill-opacity:0.726351;stroke:none;stroke-width:5;stroke-miterlimit:4;stroke-dasharray:none;stroke-opacity:1"
         d="m 644.50391,431.91992 c 0,34.01563 0,68.03125 0,102.04688 10.89974,0 21.79948,0 32.69921,0 10e-6,-34.68229 0,-69.36459 0,-104.04688 -10.89973,0 -21.79947,0 -32.69921,0 0,0.66667 0,1.33334 0,2 z" />
      <path
         id="path4622"
         style="font-variant:normal;font-weight:bold;font-stretch:normal;font-size:138px;font-family:AvantGardeMdITC;-inkscape-font-specification:'AvantGardeMdITC Bold';fill:#ffffff;fill-opacity:0.726351;stroke:none;stroke-width:5;stroke-miterlimit:4;stroke-dasharray:none;stroke-opacity:1"
         d="m 679.00391,431.91992 c 0,34.01563 0,68.03125 0,102.04688 10.89974,0 21.79948,0 32.69921,0 10e-6,-34.68229 0,-69.36459 0,-104.04688 -10.89973,0 -21.79947,0 -32.69921,0 0,0.66667 0,1.33334 0,2 z" />
      <path
         id="path4624"
         style="font-variant:normal;font-weight:bold;font-stretch:normal;font-size:138px;font-family:AvantGardeMdITC;-inkscape-font-specification:'AvantGardeMdITC Bold';fill:#ffffff;fill-opacity:0.726351;stroke:none;stroke-width:5;stroke-miterlimit:4;stroke-dasharray:none;stroke-opacity:1"
         d="m 751.73633,450.63086 c -12.94648,0.21057 -25.72146,6.68071 -33.26204,17.2585 -4.88639,6.73594 -7.75819,14.91207 -8.09792,23.2316 -0.43079,8.60098 1.69409,17.3342 6.21219,24.68226 6.18791,10.29029 16.9429,17.6621 28.75296,19.79312 12.62672,2.34433 26.32712,-1.06794 36.05153,-9.54703 7.13796,-6.15688 12.13898,-14.69329 14.15902,-23.8909 0.53596,-2.13729 1.06999,-4.27507 1.60613,-6.41232 -10.57226,0 -21.14453,0 -31.71679,0 -2.07649,3.01286 -3.96251,6.46961 -7.31463,8.24472 -3.32016,1.5319 -7.45272,1.3381 -10.5633,-0.60965 -2.92282,-1.9218 -4.4811,-5.43455 -4.51559,-8.87035 -0.18059,-3.8737 1.09845,-8.07093 4.21102,-10.55752 4.37849,-3.33266 11.47417,-2.45883 14.66461,2.1098 0.81437,1.12824 1.29058,2.4574 1.86841,3.70031 1.18937,1.5423 3.2588,2.07608 5.12291,1.8173 9.2803,0.0367 18.56068,0.0142 27.84102,0.0189 -1.32476,-6.39229 -2.4845,-12.98238 -5.75326,-18.73047 -4.89151,-9.12129 -13.24185,-16.37075 -23.06039,-19.71128 -5.18762,-1.82644 -10.71252,-2.64222 -16.20588,-2.527 z" />
      <path
         id="path4626"
         style="font-variant:normal;font-weight:bold;font-stretch:normal;font-size:138px;font-family:AvantGardeMdITC;-inkscape-font-specification:'AvantGardeMdITC Bold';fill:#ffffff;fill-opacity:0.726351;stroke:none;stroke-width:5;stroke-miterlimit:4;stroke-dasharray:none;stroke-opacity:1"
         d="m 830.01562,450.49219 c -10.73376,0.14591 -21.5495,4.38954 -28.9416,12.28568 -7.35066,7.70283 -11.19462,18.33878 -11.46318,28.90187 -0.26504,8.19534 1.1501,16.59297 5.07055,23.86461 3.26009,6.19691 8.20802,11.49636 14.22716,15.08675 5.41716,3.31769 11.6784,5.11536 17.99816,5.53464 5.72899,0.41766 11.58879,-0.0127 17.07435,-1.78678 0.91455,-0.31208 1.81603,-0.66428 2.69472,-1.06646 0.60077,0.66962 1.5004,0.71748 2.33711,0.6543 9.48659,0 18.97318,0 28.45977,0 0,-27 0,-54 0,-81 -10.40821,0 -20.81641,0 -31.22461,0 -0.0525,0.60841 -0.93041,-0.26045 -1.36293,-0.25788 -4.72299,-1.8105 -9.8473,-2.28271 -14.8695,-2.21673 z m 4.03321,31.46484 c 3.58289,0.21224 7.22713,1.9692 9.03098,5.17736 2.92018,4.86866 1.99928,11.79276 -2.38922,15.49667 -2.54025,2.15986 -6.10834,2.67731 -9.2735,2.2089 -4.08398,-0.61105 -7.56478,-3.80805 -8.65574,-7.77034 -1.16766,-4.12241 -0.30439,-8.9613 2.83498,-12.01235 2.17817,-2.21948 5.38417,-3.24304 8.4525,-3.10024 z" />
    </g>
  </g>
  <g
     inkscape:label="Layer 1"
     inkscape:groupmode="layer"
     id="layer1"
     transform="translate(88.228101,-407.88672)"
     style="display:inline"
     sodipodi:insensitive="true">
    <g
       style="font-style:normal;font-weight:normal;font-size:40px;line-height:125%;font-family:Sans;letter-spacing:0px;word-spacing:0px;fill:#000000;fill-opacity:1;stroke:none"
       id="text2985">
      <path
         d="m -12.961466,529.76006 c -6.808045,0 -13.156039,-1.196 -19.044,-3.588 -5.888027,-2.48399 -10.994022,-5.84199 -15.318,-10.074 -4.324013,-4.32398 -7.72801,-9.38397 -10.212,-15.18 -2.484005,-5.79596 -3.726004,-12.05196 -3.726,-18.768 -4e-6,-6.80794 1.241995,-13.10994 3.726,-18.906 2.48399,-5.88792 5.887987,-10.99392 10.212,-15.318 4.323978,-4.32391 9.429973,-7.68191 15.318,-10.074 5.887961,-2.4839 12.235955,-3.7259 19.044,-3.726 6.8999409,1e-4 13.29393452,1.2421 19.1820001,3.726 5.9799229,2.48409 11.1319179,5.88809 15.4559999,10.212 4.415909,4.23208 7.865905,9.29208 10.35,15.18 2.5759,5.79606 3.863899,12.05206 3.864,18.768 -1.01e-4,6.71604 -1.2881,12.97204 -3.864,18.768 -2.484095,5.79603 -5.934091,10.85602 -10.35,15.18 -4.324082,4.23201 -9.476077,7.59001 -15.4559999,10.074 -5.88806558,2.484 -12.2820592,3.726 -19.1820001,3.726 m 0.276,-74.934 c -3.588049,8e-5 -6.946046,0.69008 -10.074,2.07 -3.036039,1.38007 -5.658037,3.26607 -7.866,5.658 -2.208032,2.39207 -3.956031,5.24406 -5.244,8.556 -1.288028,3.22006 -1.932027,6.76205 -1.932,10.626 -2.7e-5,3.86405 0.643972,7.49804 1.932,10.902 1.287969,3.31204 3.035968,6.21003 5.244,8.694 2.299963,2.39203 5.01396,4.27803 8.142,5.658 3.127954,1.38002 6.485951,2.07002 10.074,2.07 3.4959438,2e-5 6.7619405,-0.68998 9.7980001,-2.07 3.03593433,-1.37997 5.6579317,-3.26597 7.866,-5.658 2.2079273,-2.39197 3.9559255,-5.24396 5.2439999,-8.556 1.287923,-3.31196 1.931922,-6.85395 1.932,-10.626 -7.8e-5,-3.86395 -0.644077,-7.45194 -1.932,-10.764 -1.2880744,-3.31194 -3.0820726,-6.20993 -5.3819999,-8.694 -2.2080682,-2.48393 -4.83006553,-4.41593 -7.866,-5.796 -3.0360595,-1.37992 -6.3480561,-2.06992 -9.9360001,-2.07"
         style="fill:#23afe5;fill-opacity:1"
         id="path3024" />
      <path
         d="m 46.753722,551.01206 v -92.046 h 19.458 v 7.59 c 2.667971,-3.49593 5.703968,-6.02593 9.108,-7.59 3.495961,-1.56392 7.727956,-2.34592 12.696,-2.346 4.967946,8e-5 9.521942,0.92007 13.661998,2.76 4.13994,1.84007 7.68193,4.41607 10.626,7.728 3.03593,3.31206 5.38192,7.26806 7.038,11.868 1.65592,4.60005 2.48392,9.61404 2.484,15.042 -8e-5,5.15203 -0.87408,9.98203 -2.622,14.49 -1.65608,4.41602 -4.00207,8.23402 -7.038,11.454 -3.03607,3.22001 -6.62406,5.75001 -10.764,7.59 -4.048056,1.84 -8.464051,2.76 -13.247998,2.76 -4.416044,0 -8.28004,-0.69 -11.592,-2.07 -3.312034,-1.37999 -6.348031,-3.58799 -9.108,-6.624 v 29.394 h -20.7 m 36.984,-75.072 c -2.392042,6e-5 -4.64604,0.46006 -6.762,1.38 -2.024035,0.92005 -3.818034,2.16205 -5.382,3.726 -1.564031,1.56405 -2.806029,3.40405 -3.726,5.52 -0.920027,2.02404 -1.380027,4.23204 -1.38,6.624 -2.7e-5,2.48404 0.413973,4.83003 1.242,7.038 0.919971,2.11603 2.16197,4.00203 3.726,5.658 1.563966,1.56402 3.403965,2.80602 5.52,3.726 2.11596,0.92002 4.415958,1.38002 6.9,1.38 2.391953,2e-5 4.645951,-0.41398 6.762,-1.242 2.115947,-0.91998 3.955945,-2.16198 5.52,-3.726 1.563942,-1.65597 2.759941,-3.54197 3.588,-5.658 0.919938,-2.11597 1.379938,-4.41596 1.379998,-6.9 -6e-5,-2.48396 -0.46006,-4.78396 -1.379998,-6.9 -0.828059,-2.11595 -2.024058,-3.95595 -3.588,-5.52 -1.564055,-1.65595 -3.404053,-2.89795 -5.52,-3.726 -2.116049,-0.91994 -4.416047,-1.37994 -6.9,-1.38"
         style="fill:#23afe5;fill-opacity:1"
         id="path3026" />
      <path
         d="m 177.44619,507.40406 c 0.0919,-0.18397 0.22995,-0.32197 0.414,-0.414 0.18395,-0.18397 0.36795,-0.36797 0.552,-0.552 h 20.976 c -3.22007,7.45202 -7.77407,13.29401 -13.662,17.526 -5.88805,4.232 -12.51205,6.348 -19.872,6.348 -5.06003,0 -9.79803,-0.92 -14.214,-2.76 -4.41602,-1.93199 -8.28002,-4.55399 -11.592,-7.866 -3.22001,-3.31198 -5.79601,-7.17598 -7.728,-11.592 -1.84,-4.50797 -2.76,-9.33797 -2.76,-14.49 0,-5.15196 0.92,-9.98195 2.76,-14.49 1.93199,-4.50794 4.50799,-8.41794 7.728,-11.73 3.21998,-3.31193 6.99198,-5.93393 11.316,-7.866 4.41597,-1.93193 9.10797,-2.89792 14.076,-2.898 5.15196,8e-5 9.93595,0.96607 14.352,2.898 4.50794,1.93207 8.37194,4.60007 11.592,8.004 3.31193,3.31206 5.88793,7.26806 7.728,11.868 1.83993,4.60005 2.75992,9.56804 2.76,14.904 -8e-5,1.19604 -0.0461,2.16204 -0.138,2.898 -0.0921,0.64403 -0.23008,1.56403 -0.414,2.76 h -51.75 c 0.45998,3.86403 2.06997,6.99203 4.83,9.384 2.75997,2.30002 6.20997,3.45002 10.35,3.45 2.57596,2e-5 4.78396,-0.36798 6.624,-1.104 1.83995,-0.73598 3.86395,-2.16198 6.072,-4.278 m 3.726,-21.252 c -0.73605,-3.58795 -2.53005,-6.48595 -5.382,-8.694 -2.76005,-2.20794 -6.16404,-3.31194 -10.212,-3.312 -4.04804,6e-5 -7.45203,1.05806 -10.212,3.174 -2.66803,2.02405 -4.41602,4.96805 -5.244,8.832 h 31.05"
         style="fill:#23afe5;fill-opacity:1"
         id="path3028" />
      <path
         d="m 212.51544,527.96606 v -69 h 19.596 v 7.314 c 2.39197,-3.40393 5.01397,-5.84193 7.866,-7.314 2.94396,-1.56392 6.62396,-2.34592 11.04,-2.346 3.67995,8e-5 7.12995,0.64408 10.35,1.932 3.21994,1.19607 5.93394,2.89807 8.142,5.106 1.37994,1.28807 2.48393,2.62207 3.312,4.002 0.91993,1.28806 1.60993,2.76006 2.07,4.416 0.55193,1.56406 0.91993,3.40406 1.104,5.52 0.27593,2.02405 0.41393,4.41605 0.414,7.176 v 43.194 h -20.7 v -37.674 c -5e-5,-4.96795 -0.87405,-8.60195 -2.622,-10.902 -1.65605,-2.29994 -4.37004,-3.44994 -8.142,-3.45 -7.82003,6e-5 -11.73003,4.50805 -11.73,13.524 v 38.502 h -20.7"
         style="fill:#23afe5;fill-opacity:1"
         id="path3030" />
      <path
         d="m 290.83691,527.96606 v -92.046 h 30.222 l 18.216,60.582 18.216,-60.582 h 30.36 v 92.046 h -21.666 l 0.828,-69.138 -19.872,69.138 h -15.594 l -19.872,-69.138 0.69,69.138 h -21.528"
         style="font-variant:normal;font-weight:bold;font-stretch:normal;font-size:138px;font-family:AvantGardeMdITC;-inkscape-font-specification:'AvantGardeMdITC Bold'"
         id="path3032" />
      <path
         d="m 436.75897,530.31206 c -5.42803,0 -10.44203,-0.92 -15.042,-2.76 -4.50802,-1.83999 -8.41802,-4.36999 -11.73,-7.59 -3.31201,-3.21998 -5.93401,-7.03798 -7.866,-11.454 -1.84,-4.50797 -2.76,-9.38397 -2.76,-14.628 0,-5.33596 0.92,-10.25795 2.76,-14.766 1.83999,-4.59994 4.41599,-8.55594 7.728,-11.868 3.31198,-3.31193 7.22198,-5.88793 11.73,-7.728 4.59997,-1.93193 9.61397,-2.89792 15.042,-2.898 5.33596,8e-5 10.25795,0.92007 14.766,2.76 4.59994,1.84007 8.55594,4.41607 11.868,7.728 3.31193,3.31206 5.88793,7.22206 7.728,11.73 1.93192,4.50805 2.89792,9.38404 2.898,14.628 -8e-5,5.24403 -0.96608,10.12003 -2.898,14.628 -1.84007,4.50802 -4.41607,8.41802 -7.728,11.73 -3.31206,3.31201 -7.22206,5.88801 -11.73,7.728 -4.50805,1.84 -9.43004,2.76 -14.766,2.76 m 0,-54.372 c -2.39204,6e-5 -4.60003,0.46006 -6.624,1.38 -2.02403,0.92005 -3.77203,2.16205 -5.244,3.726 -1.47203,1.56405 -2.66802,3.40405 -3.588,5.52 -0.82802,2.11604 -1.24202,4.37004 -1.242,6.762 -2e-5,2.48404 0.41398,4.83003 1.242,7.038 0.82798,2.11603 1.97797,4.00203 3.45,5.658 1.56397,1.56402 3.35797,2.80602 5.382,3.726 2.02397,0.82802 4.23196,1.24202 6.624,1.242 2.29996,2e-5 4.46196,-0.41398 6.486,-1.242 2.02395,-0.91998 3.77195,-2.16198 5.244,-3.726 1.47195,-1.65597 2.62195,-3.54197 3.45,-5.658 0.82794,-2.11597 1.24194,-4.41596 1.242,-6.9 -6e-5,-2.48396 -0.46006,-4.78396 -1.38,-6.9 -0.82805,-2.11595 -1.97805,-3.95595 -3.45,-5.52 -1.47205,-1.56395 -3.22005,-2.80595 -5.244,-3.726 -1.93204,-0.91994 -4.04804,-1.37994 -6.348,-1.38"
         style="font-variant:normal;font-weight:bold;font-stretch:normal;font-size:138px;font-family:AvantGardeMdITC;-inkscape-font-specification:'AvantGardeMdITC Bold'"
         id="path3034" />
      <path
         d="m 556.916,435.92006 v 92.046 H 537.32 v -7.314 c -2.76005,3.40401 -5.79605,5.84201 -9.108,7.314 -3.22004,1.564 -7.22204,2.346 -12.006,2.346 -5.06003,0 -9.70603,-0.92 -13.938,-2.76 -4.23202,-1.83999 -7.91201,-4.36999 -11.04,-7.59 -3.03601,-3.31198 -5.42801,-7.22198 -7.176,-11.73 -1.656,-4.50797 -2.484,-9.47597 -2.484,-14.904 0,-5.24396 0.874,-10.11995 2.622,-14.628 1.74799,-4.50794 4.13999,-8.37194 7.176,-11.592 3.03599,-3.31193 6.62398,-5.88793 10.764,-7.728 4.23197,-1.83993 8.78597,-2.75992 13.662,-2.76 4.32396,8e-5 8.09596,0.69008 11.316,2.07 3.21995,1.28807 6.25595,3.31207 9.108,6.072 v -28.842 h 20.7 m -36.984,40.02 c -2.57604,6e-5 -4.96803,0.46006 -7.176,1.38 -2.11603,0.82805 -3.95603,2.02405 -5.52,3.588 -1.56402,1.47205 -2.80602,3.31205 -3.726,5.52 -0.82802,2.11604 -1.24202,4.41604 -1.242,6.9 -2e-5,2.57604 0.41398,4.96803 1.242,7.176 0.91998,2.11603 2.11598,3.95603 3.588,5.52 1.56397,1.56402 3.40397,2.80602 5.52,3.726 2.20797,0.82802 4.55396,1.24202 7.038,1.242 5.15196,2e-5 9.38395,-1.65598 12.696,-4.968 3.31195,-3.31197 4.96794,-7.58997 4.968,-12.834 -6e-5,-2.48396 -0.46006,-4.73796 -1.38,-6.762 -0.82805,-2.11595 -2.02405,-3.95595 -3.588,-5.52 -1.56405,-1.56395 -3.40405,-2.75995 -5.52,-3.588 -2.11604,-0.91994 -4.41604,-1.37994 -6.9,-1.38"
         style="font-variant:normal;font-weight:bold;font-stretch:normal;font-size:138px;font-family:AvantGardeMdITC;-inkscape-font-specification:'AvantGardeMdITC Bold'"
         id="path3036" />
      <path
         d="m 615.43447,507.40406 c 0.0919,-0.18397 0.22995,-0.32197 0.414,-0.414 0.18395,-0.18397 0.36795,-0.36797 0.552,-0.552 h 20.976 c -3.22007,7.45202 -7.77406,13.29401 -13.662,17.526 -5.88805,4.232 -12.51205,6.348 -19.872,6.348 -5.06003,0 -9.79803,-0.92 -14.214,-2.76 -4.41602,-1.93199 -8.28002,-4.55399 -11.592,-7.866 -3.22001,-3.31198 -5.79601,-7.17598 -7.728,-11.592 -1.84,-4.50797 -2.76,-9.33797 -2.76,-14.49 0,-5.15196 0.92,-9.98195 2.76,-14.49 1.93199,-4.50794 4.50799,-8.41794 7.728,-11.73 3.21998,-3.31193 6.99198,-5.93393 11.316,-7.866 4.41597,-1.93193 9.10797,-2.89792 14.076,-2.898 5.15196,8e-5 9.93595,0.96607 14.352,2.898 4.50794,1.93207 8.37194,4.60007 11.592,8.004 3.31193,3.31206 5.88793,7.26806 7.728,11.868 1.83993,4.60005 2.75993,9.56804 2.76,14.904 -7e-5,1.19604 -0.0461,2.16204 -0.138,2.898 -0.0921,0.64403 -0.23007,1.56403 -0.414,2.76 h -51.75 c 0.45998,3.86403 2.06998,6.99203 4.83,9.384 2.75997,2.30002 6.20997,3.45002 10.35,3.45 2.57596,2e-5 4.78396,-0.36798 6.624,-1.104 1.83995,-0.73598 3.86395,-2.16198 6.072,-4.278 m 3.726,-21.252 c -0.73605,-3.58795 -2.53005,-6.48595 -5.382,-8.694 -2.76005,-2.20794 -6.16404,-3.31194 -10.212,-3.312 -4.04803,6e-5 -7.45203,1.05806 -10.212,3.174 -2.66803,2.02405 -4.41602,4.96805 -5.244,8.832 h 31.05"
         style="font-variant:normal;font-weight:bold;font-stretch:normal;font-size:138px;font-family:AvantGardeMdITC;-inkscape-font-specification:'AvantGardeMdITC Bold'"
         id="path3038" />
      <path
         d="m 650.50372,527.96606 v -92.046 h 20.7 v 92.046 h -20.7"
         style="font-variant:normal;font-weight:bold;font-stretch:normal;font-size:138px;font-family:AvantGardeMdITC;-inkscape-font-specification:'AvantGardeMdITC Bold'"
         id="path3040" />
      <path
         d="m 705.70372,458.96606 v 69 h -20.7 v -69 h 20.7 m 0,-23.046 v 15.732 h -20.7 v -15.732 h 20.7"
         style="font-variant:normal;font-weight:bold;font-stretch:normal;font-size:138px;font-family:AvantGardeMdITC;-inkscape-font-specification:'AvantGardeMdITC Bold'"
         id="path3042" />
      <path
         d="m 753.45172,510.99206 c 3.21996,2e-5 6.02595,-0.73598 8.418,-2.208 2.39195,-1.47197 4.64595,-3.81797 6.762,-7.038 h 20.838 c -1.01207,4.23203 -2.66807,8.09602 -4.968,11.592 -2.20807,3.49602 -4.92207,6.53201 -8.142,9.108 -3.12806,2.48401 -6.67006,4.41601 -10.626,5.796 -3.95605,1.38 -8.09604,2.07 -12.42,2.07 -5.15203,0 -9.98203,-0.966 -14.49,-2.898 -4.50802,-1.93199 -8.41802,-4.55399 -11.73,-7.866 -3.31201,-3.31198 -5.93401,-7.22198 -7.866,-11.73 -1.932,-4.50797 -2.898,-9.33797 -2.898,-14.49 0,-5.15196 0.92,-9.93595 2.76,-14.352 1.93199,-4.50794 4.50799,-8.41794 7.728,-11.73 3.31198,-3.31193 7.17598,-5.88793 11.592,-7.728 4.41597,-1.93193 9.19997,-2.89792 14.352,-2.898 4.50796,8e-5 8.78595,0.69008 12.834,2.07 4.04794,1.38007 7.68194,3.35807 10.902,5.934 3.21993,2.57607 5.93393,5.65806 8.142,9.246 2.20793,3.49606 3.77193,7.40605 4.692,11.73 h -20.838 c -1.28805,-3.03595 -3.26605,-5.38195 -5.934,-7.038 -2.66805,-1.74794 -5.70404,-2.62194 -9.108,-2.622 -2.39204,6e-5 -4.60003,0.46006 -6.624,1.38 -2.02403,0.82805 -3.77203,2.07005 -5.244,3.726 -1.38003,1.56405 -2.48402,3.45005 -3.312,5.658 -0.82802,2.11604 -1.24202,4.46204 -1.242,7.038 -2e-5,5.06003 1.51798,9.20003 4.554,12.42 3.12797,3.22002 7.08397,4.83002 11.868,4.83"
         style="font-variant:normal;font-weight:bold;font-stretch:normal;font-size:138px;font-family:AvantGardeMdITC;-inkscape-font-specification:'AvantGardeMdITC Bold'"
         id="path3044" />
      <path
         d="m 871.47191,458.96606 v 69 h -19.458 v -7.452 c -3.31206,6.53201 -10.44205,9.798 -21.39,9.798 -5.24403,0 -10.02803,-0.874 -14.352,-2.622 -4.23202,-1.83999 -7.91202,-4.36999 -11.04,-7.59 -3.03601,-3.21998 -5.42801,-7.08398 -7.176,-11.592 -1.65601,-4.50797 -2.484,-9.52197 -2.484,-15.042 0,-5.42796 0.87399,-10.39595 2.622,-14.904 1.74799,-4.59994 4.18599,-8.50994 7.314,-11.73 3.12798,-3.31193 6.85398,-5.84193 11.178,-7.59 4.32397,-1.83992 9.10797,-2.75992 14.352,-2.76 5.24395,8e-5 9.56795,0.78208 12.972,2.346 3.40394,1.56407 6.07194,4.04807 8.004,7.452 v -7.314 h 19.458 m -38.088,16.974 c -2.39204,6e-5 -4.64604,0.46006 -6.762,1.38 -2.11603,0.82805 -3.95603,2.07005 -5.52,3.726 -1.47203,1.56405 -2.66803,3.40405 -3.588,5.52 -0.82803,2.11604 -1.24203,4.41604 -1.242,6.9 -3e-5,2.48404 0.41397,4.78403 1.242,6.9 0.91997,2.11603 2.16197,4.00203 3.726,5.658 1.56397,1.56402 3.40397,2.80602 5.52,3.726 2.11596,0.82802 4.36996,1.24202 6.762,1.242 2.48395,2e-5 4.78395,-0.41398 6.9,-1.242 2.11595,-0.91998 3.90995,-2.16198 5.382,-3.726 1.56394,-1.56397 2.75994,-3.40397 3.588,-5.52 0.91994,-2.20797 1.37994,-4.59996 1.38,-7.176 -6e-5,-2.48396 -0.46006,-4.78396 -1.38,-6.9 -0.82806,-2.11595 -2.02406,-3.95595 -3.588,-5.52 -1.47205,-1.56395 -3.31205,-2.75995 -5.52,-3.588 -2.11605,-0.91994 -4.41604,-1.37994 -6.9,-1.38"
         style="font-variant:normal;font-weight:bold;font-stretch:normal;font-size:138px;font-family:AvantGardeMdITC;-inkscape-font-specification:'AvantGardeMdITC Bold'"
         id="path3046" />
    </g>
  </g>
</svg>
