<?xml version="1.0" encoding="UTF-8" standalone="no"?>
<!DOCTYPE svg PUBLIC "-//W3C//DTD SVG 1.1//EN" "http://www.w3.org/Graphics/SVG/1.1/DTD/svg11.dtd">
<svg width="100%" height="100%" viewBox="0 0 112 20" version="1.1" xmlns="http://www.w3.org/2000/svg" xmlns:xlink="http://www.w3.org/1999/xlink" xml:space="preserve" xmlns:serif="http://www.serif.com/" style="fill-rule:evenodd;clip-rule:evenodd;stroke-linejoin:round;stroke-miterlimit:2;">
    <g transform="matrix(0.0870241,0,0,0.0870241,0,0.296814)">
        <path d="M1276.31,161.838C1268.8,158.278 1262.05,153.443 1256.27,147.067C1244.5,134.05 1237.26,118.854 1237.21,101.055C1237.1,68.964 1237.21,36.926 1237.21,4.835L1237.21,0.85C1237.21,0.478 1237.48,0.213 1237.86,0.213L1260.11,0.213C1260.48,0.213 1260.75,0.478 1260.75,0.85L1260.75,5.738C1260.75,36.661 1260.81,67.636 1260.75,98.558C1260.7,114.763 1267.34,127.727 1280.41,137.344C1282.52,138.885 1284.73,140.213 1287,141.488C1280.09,154.505 1283.11,148.767 1276.31,161.838Z" style="fill-rule:nonzero;"/>
    </g>
    <g transform="matrix(0.0870241,0,0,0.0870241,0,0.296814)">
        <path d="M452.872,168.054L431.271,168.054C430.947,168.054 430.623,167.788 430.623,167.469C430.569,165.982 430.407,164.494 430.407,162.953C430.407,141.541 430.461,120.183 430.353,98.771C430.245,75.393 413.936,55.841 390.607,50.953C364.956,45.533 338.278,63.226 333.634,88.835C332.932,92.608 332.662,96.539 332.608,100.418C332.5,122.574 332.554,144.676 332.554,167.257C332.554,167.629 332.284,167.894 331.906,167.894L309.981,167.894C309.603,167.894 309.333,167.629 309.333,167.257L309.333,0.85C309.333,0.478 309.603,0.213 309.981,0.213L331.744,0.213C332.122,0.213 332.392,0.478 332.392,0.85L332.392,45.321C332.392,45.852 332.986,46.118 333.418,45.852C335.47,44.471 336.982,43.461 338.386,42.452C367.71,21.465 408.158,24.653 433.485,50.103C446.446,63.12 453.358,78.953 453.628,97.23C453.898,120.076 453.682,142.923 453.682,165.769C453.682,166.301 453.574,166.779 453.466,167.523C453.466,167.788 453.196,168.054 452.872,168.054Z" style="fill-rule:nonzero;"/>
    </g>
    <g transform="matrix(0.0870241,0,0,0.0870241,0,0.296814)">
        <path d="M1071.47,168.479L1049.39,168.479C1049.01,168.479 1048.74,168.213 1048.74,167.841L1048.74,162.9C1048.69,139.894 1049.12,116.889 1048.36,93.883C1047.61,70.346 1026.98,51.006 1002.35,49.412C978.914,47.871 956.449,65.298 952.345,88.304C951.751,91.811 951.427,95.37 951.372,98.93C951.264,121.723 951.318,144.517 951.318,167.682C951.318,168.054 951.048,168.32 950.67,168.32L928.367,168.32C927.989,168.32 927.719,168.001 927.719,167.682L927.719,98.877C927.719,62.589 953.695,33.526 990.309,28.744C1028.11,23.803 1063.21,47.818 1070.99,84.691C1071.85,88.676 1072.18,92.714 1072.23,96.805C1072.45,119.704 1072.34,142.657 1072.28,165.557C1072.28,166.247 1072.18,166.938 1072.07,167.948C1072.07,168.266 1071.8,168.479 1071.47,168.479Z" style="fill-rule:nonzero;"/>
    </g>
    <g transform="matrix(0.0870241,0,0,0.0870241,0,0.296814)">
        <path d="M248.633,0L270.613,0C270.991,0 271.261,0.266 271.261,0.638L271.261,28.266C271.261,28.638 271.531,28.903 271.909,28.903L298.046,28.903C298.424,28.903 298.694,29.169 298.694,29.541L298.694,49.359C298.694,49.731 298.424,49.996 298.046,49.996L271.963,49.996C271.585,49.996 271.315,50.262 271.315,50.634L271.315,167.257C271.315,167.629 271.045,167.894 270.667,167.894L248.579,167.894C248.201,167.894 247.931,167.629 247.931,167.257L247.931,0.638C247.985,0.266 248.255,0 248.633,0Z" style="fill-rule:nonzero;"/>
    </g>
    <g transform="matrix(0.0870241,0,0,0.0870241,0,0.296814)">
        <path d="M177.89,168.054L155.748,168.054C155.424,168.054 155.154,167.788 155.1,167.469C154.992,166.407 154.83,165.504 154.83,164.547C154.83,141.701 154.668,118.854 154.938,96.008C155.316,63.332 182.102,34.11 215.26,29.913C220.336,29.275 225.52,29.063 230.974,28.638C231.352,28.585 231.676,28.903 231.676,29.275L231.676,49.784C231.676,50.103 231.406,50.422 231.082,50.422C226.762,50.74 222.334,50.74 218.122,51.644C194.36,56.585 178.754,75.499 178.646,99.462C178.538,120.342 178.646,141.276 178.646,162.156L178.646,167.363C178.538,167.788 178.214,168.054 177.89,168.054Z" style="fill-rule:nonzero;"/>
    </g>
    <g transform="matrix(0.0870241,0,0,0.0870241,0,0.296814)">
        <path d="M762.308,89.739C757.502,51.431 720.456,23.537 681.412,29.222C627.733,36.979 598.788,95.105 633.728,142.232C655.221,171.295 702.635,178.043 732.121,156.949C734.011,155.621 735.793,154.08 737.683,152.54C738.061,152.221 738.709,152.433 738.763,152.965C740.329,170.232 729.151,188.828 712.41,196.851C702.527,201.58 692.051,203.014 681.196,201.048C667.965,198.604 657.705,191.591 649.766,180.805C649.55,180.54 649.172,180.487 648.902,180.646C642.8,184.631 636.968,188.456 630.865,192.441C631.405,193.397 631.622,193.822 631.892,194.194C647.66,216.403 678.712,227.508 707.226,221.132C740.059,213.747 762.686,185.959 762.794,152.858C762.848,139.894 762.848,126.93 762.794,113.966C762.74,105.89 763.281,97.708 762.308,89.739ZM690.863,148.395C663.861,148.342 641.612,123.424 642.098,98.665C642.206,71.94 664.509,49.678 691.079,49.784C718.026,49.89 739.789,71.887 739.789,98.824C739.735,123.955 717.81,148.448 690.863,148.395Z" style="fill-rule:nonzero;"/>
    </g>
    <g transform="matrix(0.0870241,0,0,0.0870241,0,0.296814)">
        <path d="M1226.79,97.389C1226.79,94.255 1226.57,91.067 1225.98,87.932C1218.58,47.499 1181.37,22.049 1140.6,30.125C1114.46,35.279 1095.72,50.581 1086.7,75.606C1077.69,100.63 1082.55,124.221 1099.5,144.304C1127.8,177.83 1180.24,175.917 1204.43,149.777C1204.65,149.511 1205.19,149.511 1206.1,149.192L1206.1,167.31C1206.1,167.682 1206.37,167.948 1206.75,167.948L1226.03,167.948C1226.35,167.948 1226.62,167.682 1226.68,167.363C1226.73,166.354 1226.84,165.663 1226.84,164.972C1226.84,142.445 1226.89,119.917 1226.79,97.389ZM1154.69,148.342C1128.18,148.183 1105.5,122.733 1106.09,98.399C1106.74,71.568 1128.45,49.571 1155.23,49.678C1182.45,49.784 1203.51,71.621 1203.67,99.302C1203.89,123.052 1181.64,148.502 1154.69,148.342Z" style="fill-rule:nonzero;"/>
    </g>
    <g transform="matrix(0.0870241,0,0,0.0870241,0,0.296814)">
        <path d="M72.098,28.956C32.352,28.956 -0.428,60.304 0.004,98.771C0.436,137.982 29.598,169.276 71.504,169.435C114.922,169.595 143.814,137.822 144.462,99.09C145.11,60.516 112.06,28.956 72.098,28.956ZM71.774,148.555C44.341,148.448 22.793,123.424 23.334,98.558C23.388,71.993 45.637,49.996 72.26,50.156C99.046,50.315 120.917,72.152 121.025,98.771C121.133,124.433 99.316,148.661 71.774,148.555Z" style="fill-rule:nonzero;"/>
    </g>
    <g transform="matrix(0.0870241,0,0,0.0870241,0,0.296814)">
        <path d="M535.659,29.169C495.966,29.275 463.889,60.729 464.051,99.355C464.213,139.31 495.858,169.967 536.793,169.754C576.809,169.542 608.562,137.982 608.4,98.505C608.238,60.357 575.405,29.063 535.659,29.169ZM535.605,148.767C508.873,148.608 487.11,124.593 487.056,99.302C487.002,72.63 509.413,50.209 536.091,50.475C563.092,50.74 584.801,72.418 584.801,99.037C585.287,124.168 563.254,148.927 535.605,148.767Z" style="fill-rule:nonzero;"/>
    </g>
    <g transform="matrix(0.0870241,0,0,0.0870241,0,0.296814)">
        <path d="M845.149,28.638C805.241,28.585 772.893,59.613 773.055,98.293C773.217,137.185 803.513,168.745 844.555,168.904C887.055,169.063 917.027,137.025 917.567,98.611C918.053,59.932 885.327,28.691 845.149,28.638ZM844.825,147.97C818.363,147.864 796.006,123.371 796.33,98.027C796.654,71.196 818.255,49.837 845.311,49.89C872.258,49.943 893.913,71.568 894.075,98.24C894.291,123.689 871.826,148.077 844.825,147.97Z" style="fill-rule:nonzero;"/>
    </g>
</svg>
