<?xml version="1.0" encoding="UTF-8" standalone="no"?>
<!-- Generator: Adobe Illustrator 21.1.0, SVG Export Plug-In . SVG Version: 6.00 Build 0)  -->

<svg
   version="1.1"
   id="Ebene_1"
   x="0px"
   y="0px"
   viewBox="0 0 239.78247 58.93539"
   xml:space="preserve"
   sodipodi:docname="asam-logo.svg"
   width="239.78247"
   height="58.93539"
   inkscape:version="1.2.2 (732a01da63, 2022-12-09)"
   xmlns:inkscape="http://www.inkscape.org/namespaces/inkscape"
   xmlns:sodipodi="http://sodipodi.sourceforge.net/DTD/sodipodi-0.dtd"
   xmlns="http://www.w3.org/2000/svg"
   xmlns:svg="http://www.w3.org/2000/svg"><defs
   id="defs17" /><sodipodi:namedview
   id="namedview15"
   pagecolor="#ffffff"
   bordercolor="#666666"
   borderopacity="1.0"
   inkscape:showpageshadow="2"
   inkscape:pageopacity="0.0"
   inkscape:pagecheckerboard="0"
   inkscape:deskcolor="#d1d1d1"
   showgrid="false"
   inkscape:zoom="1.4130351"
   inkscape:cx="223.6321"
   inkscape:cy="71.123501"
   inkscape:window-width="1920"
   inkscape:window-height="1002"
   inkscape:window-x="-8"
   inkscape:window-y="-8"
   inkscape:window-maximized="1"
   inkscape:current-layer="g12" />
<style
   type="text/css"
   id="style2">
	.st0{fill:#1D7DAE;}
	.st1{fill:#006FA6;}
</style>
<g
   id="g12">
	
	
	<path
   class="st1"
   d="m 57.428,29.637 v -1.66 H 41.458 C 41.043,21.59 35.928,16.476 29.541,16.064 V 0.096 h -1.66 V 16.065 C 21.496,16.48 16.383,21.593 15.969,27.976 H 0 v 1.66 h 15.967 c 0.413,6.387 5.526,11.503 11.913,11.918 v 15.969 h 1.66 V 41.557 c 6.389,-0.412 11.506,-5.529 11.918,-11.92 z M 39.508,28.81 c 0,5.952 -4.843,10.794 -10.795,10.794 -5.952,0 -10.793,-4.842 -10.793,-10.794 0,-5.952 4.842,-10.795 10.794,-10.795 5.952,0 10.794,4.844 10.794,10.795 z M 29.753,5.251 52.266,27.764 48.35,9.168 Z M 5.155,27.764 27.668,5.251 9.072,9.168 Z M 27.668,52.363 5.155,29.85 9.072,48.446 Z M 52.267,29.85 29.753,52.363 48.349,48.447 Z"
   id="path8" />
	<path
   class="st1"
   d="m 69.2,48.751 h 8.932 l 3.234,-8.329 h 16.001 l 3.179,8.329 h 9.316 L 93.75,9.076 h -8.439 z m 16.44,-19.4 c 1.261,-3.342 2.685,-7.289 3.726,-10.302 h 0.11 c 1.041,3.014 2.465,6.96 3.617,10.083 l 1.644,4.438 H 84.05 Z m 28.879,17.098 c 3.726,1.918 8.603,2.904 12.549,2.904 8.548,0 14.412,-4.658 14.412,-12.385 0,-7.014 -4.822,-9.809 -10.796,-11.781 -4.768,-1.589 -8.439,-1.864 -8.439,-5.371 0,-2.63 2.137,-3.726 5.096,-3.726 3.068,0 7.946,1.206 12.165,3.836 v -8.604 c -3.452,-1.863 -8.22,-2.849 -12.111,-2.849 -8.329,0 -13.919,4.603 -13.919,12.001 0,6.905 4.932,9.589 10.412,11.398 5.096,1.645 8.823,1.973 8.823,5.645 0,2.959 -2.356,4.219 -5.535,4.219 -3.123,0 -8.439,-1.261 -12.658,-4.11 v 8.823 z m 29.7,2.302 h 8.933 l 3.233,-8.329 h 16.001 l 3.179,8.329 h 9.316 L 168.769,9.076 h -8.439 z m 16.44,-19.4 c 1.261,-3.342 2.685,-7.289 3.727,-10.302 h 0.11 c 1.041,3.014 2.465,6.96 3.617,10.083 l 1.644,4.438 H 159.07 Z m 49.593,10.248 5.754,-8.165 c 1.973,-2.795 3.945,-5.699 5.809,-8.494 l 0.11,0.055 c -0.055,2.849 -0.11,6.575 -0.11,9.864 v 15.892 h 8.713 V 9.076 h -8.275 L 210.472,25.844 198.689,9.076 h -8.385 v 39.675 h 8.385 V 32.859 c 0,-3.288 -0.054,-7.014 -0.11,-9.864 l 0.11,-0.055 c 1.864,2.795 3.836,5.699 5.809,8.494 z"
   id="path10" />
</g>
</svg>
