<?xml version="1.0" encoding="UTF-8" standalone="no"?>
<!DOCTYPE svg PUBLIC "-//W3C//DTD SVG 1.1//EN" "http://www.w3.org/Graphics/SVG/1.1/DTD/svg11.dtd">
<svg width="100%" height="100%" viewBox="0 0 853 365" version="1.1" xmlns="http://www.w3.org/2000/svg" xmlns:xlink="http://www.w3.org/1999/xlink" xml:space="preserve" xmlns:serif="http://www.serif.com/" style="fill-rule:evenodd;clip-rule:evenodd;stroke-linejoin:round;stroke-miterlimit:2;">
    <g id="g17" transform="matrix(1,0,0,1,-235.267,-178.232)">
        <g id="g16">
            <g id="g15">
                <g id="path6" transform="matrix(1,0,0,-1,275.064,455.999)">
                    <path d="M346.896,145.772C346.896,153.302 353.001,159.408 360.531,159.408C368.064,159.408 374.17,153.302 374.17,145.772C374.17,138.24 368.064,132.134 360.531,132.134C353.001,132.134 346.896,138.24 346.896,145.772" style="fill:rgb(222,29,49);fill-rule:nonzero;"/>
                </g>
                <g id="path7" transform="matrix(1,0,0,-1,275.064,455.999)">
                    <path d="M85.116,47.006L43.46,0L79.918,0L105.126,30.835C97.184,34.497 90.336,40.084 85.116,47.006ZM385.298,236.629C368.277,236.007 349.178,217.532 349.178,217.74C349.386,228.326 341.498,238.497 326.966,236.214C312.438,233.93 294.169,215.664 293.962,215.664C294.585,223.344 289.49,232.372 281.507,235.383C270.11,239.684 253.206,236.484 231.341,212.273C214.142,193.229 170.454,143.416 154,124.749C159.824,121.297 164.92,116.767 169.027,111.407L221.308,176.016C221.308,176.016 251.602,215.738 268.222,219.607C281.979,222.81 284.123,209.656 279.015,197.395C268.624,172.459 243.103,130.97 243.103,130.97C243.103,130.97 278.808,177.26 284.827,184.941C290.847,192.621 320.947,230.402 334.232,217.117C347.18,204.171 308.285,148.198 308.285,148.198L328.213,173.94C328.213,173.94 368.691,227.08 386.336,220.437C403.982,213.795 374.917,165.221 374.917,165.428C374.917,165.428 392.324,178.696 401.697,207.152C405.983,220.165 402.32,237.252 385.298,236.629" style="fill:rgb(112,122,132);fill-rule:nonzero;"/>
                </g>
                <g id="path8" transform="matrix(1,0,0,-1,275.064,455.999)">
                    <path d="M0.007,104.618C0.007,116.057 9.225,125.72 22.997,125.72C30.217,125.72 36.325,123.054 40.323,118.947C44.433,123.054 50.43,125.72 57.65,125.72C71.534,125.72 80.308,116.057 80.308,104.618L80.301,54.357L67.638,54.357L67.645,102.728C67.645,110.614 63.649,114.946 57.429,114.946C51.319,114.946 46.543,110.614 46.543,102.728L46.536,54.357L33.765,54.357L33.771,102.728C33.771,110.614 28.996,114.946 22.776,114.946C16.665,114.946 12.667,110.614 12.667,102.728L12.661,54.357L0.001,54.357L0.007,104.618" style="fill:rgb(42,55,65);fill-rule:nonzero;"/>
                </g>
                <g id="path9" transform="matrix(1,0,0,-1,275.064,455.999)">
                    <path d="M198.148,65.634C205.369,65.634 211.143,71.406 211.143,78.628C211.143,85.847 205.369,91.623 198.148,91.623C190.931,91.623 185.156,85.847 185.156,78.628C185.156,71.406 190.931,65.634 198.148,65.634ZM211.034,124.499L223.807,124.499L223.807,79.072C223.807,64.969 212.365,53.419 198.148,53.419C184.044,53.419 172.603,64.969 172.603,79.072C172.603,93.288 183.378,104.73 197.259,104.73C203.258,104.73 208.146,101.952 211.034,99.507L211.034,124.499" style="fill:rgb(42,55,65);fill-rule:nonzero;"/>
                </g>
                <g id="path10" transform="matrix(1,0,0,-1,275.064,455.999)">
                    <path d="M140.3,78.906C140.3,86.292 135.305,92.585 127.219,92.585C119.133,92.585 114.143,86.292 114.143,78.906C114.143,71.52 119.133,65.227 127.219,65.227C135.305,65.227 140.3,71.52 140.3,78.906ZM152.479,78.906C152.479,65.029 141.296,54.047 127.219,54.047C113.142,54.047 101.962,65.029 101.962,78.906C101.962,92.881 113.142,103.763 127.219,103.763C141.296,103.763 152.479,92.881 152.479,78.906" style="fill:rgb(42,55,65);fill-rule:nonzero;"/>
                </g>
                <g id="path11" transform="matrix(1,0,0,-1,275.064,455.999)">
                    <path d="M279.448,83.297C279.244,87.39 275.452,92.881 267.565,92.881C259.876,92.881 256.385,87.493 255.986,83.297L279.448,83.297ZM291.426,79.105C291.426,78.206 291.426,76.411 291.327,74.612L255.986,74.612C256.881,70.42 261.773,65.029 269.261,65.029C277.547,65.029 282.24,69.823 282.24,69.823L288.23,60.836C288.23,60.836 280.742,54.047 269.261,54.047C254.887,54.047 243.806,65.029 243.806,78.906C243.806,92.783 253.891,103.763 267.565,103.763C280.542,103.763 291.426,93.683 291.426,79.105" style="fill:rgb(42,55,65);fill-rule:nonzero;"/>
                </g>
                <g id="path12" transform="matrix(1,0,0,-1,275.064,455.999)">
                    <path d="M314.924,124.499L327.383,124.499L327.383,54.357L314.924,54.357L314.924,124.499" style="fill:rgb(42,55,65);fill-rule:nonzero;"/>
                </g>
                <g id="path13" transform="matrix(1,0,0,-1,275.064,455.999)">
                    <path d="M424.381,71.018L432.267,63.03C432.267,63.03 425.479,54.047 412.701,54.047C398.526,54.047 387.244,65.029 387.244,78.906C387.244,92.881 398.526,103.763 412.701,103.763C425.381,103.763 432.067,94.976 432.067,94.976L423.781,87.59C423.781,87.59 419.891,92.585 412.701,92.585C404.613,92.585 399.425,86.292 399.425,78.906C399.425,71.52 404.613,65.227 412.701,65.227C420.786,65.227 424.381,71.018 424.381,71.018" style="fill:rgb(42,55,65);fill-rule:nonzero;"/>
                </g>
                <g id="path14" transform="matrix(1,0,0,-1,275.064,455.999)">
                    <path d="M354.003,103.724L366.565,103.724L366.565,54.357L354.003,54.357L354.003,103.724" style="fill:rgb(42,55,65);fill-rule:nonzero;"/>
                </g>
                <g id="path15" transform="matrix(1,0,0,-1,275.064,455.999)">
                    <path d="M475.23,65.227C467.143,65.227 462.154,71.52 462.154,78.906C462.154,86.292 467.143,92.585 475.23,92.585C483.316,92.585 488.309,86.292 488.309,78.906C488.309,71.52 483.316,65.227 475.23,65.227ZM488.309,103.724L488.309,100.231C484.503,102.466 480.044,103.763 475.23,103.763C461.152,103.763 449.973,92.881 449.973,78.906C449.973,65.029 461.152,54.047 475.23,54.047C480.044,54.047 484.503,55.357 488.309,57.601L488.309,54.325L500.87,54.325L500.87,103.724L488.309,103.724" style="fill:rgb(42,55,65);fill-rule:nonzero;"/>
                </g>
            </g>
        </g>
    </g>
    <g id="text17" transform="matrix(1,0,0,1,563.143,224.768)">
        <text x="0px" y="0px" style="font-family:'Arial-BoldMT', 'Arial', sans-serif;font-weight:700;font-size:88px;fill:rgb(112,122,132);">&amp;</text>
    </g>
    <g id="text18" transform="matrix(1,0,0,1,29.8082,107.768)">
        <text x="0px" y="0px" style="font-family:'Arial-BoldItalicMT', 'Arial', sans-serif;font-weight:700;font-style:italic;font-size:88px;fill:rgb(124,135,142);">16</text>
    </g>
    <g id="text19" transform="matrix(1,0,0,1,128.475,81.7676)">
        <text x="0px" y="0px" style="font-family:'Arial-ItalicMT', 'Arial', sans-serif;font-style:italic;font-size:59px;fill:rgb(124,135,142);">th</text>
    </g>
    <g id="text20" transform="matrix(1,0,0,1,409.795,325.768)">
        <text x="0px" y="0px" style="font-family:'Arial-BoldMT', 'Arial', sans-serif;font-weight:700;font-size:72px;fill:rgb(204,25,58);">Conference</text>
    </g>
    <g id="rect20" transform="matrix(1,0,0,1,-235.267,-178.232)">
        <rect x="392" y="434" width="490" height="10" style="fill:rgb(204,25,58);"/>
    </g>
    <g id="path20" transform="matrix(1,0,0,1,-235.267,-178.232)">
        <path d="M392,444L392,434L384,444L392,444Z" style="fill:rgb(204,25,58);"/>
    </g>
    <g id="g54" transform="matrix(1,0,0,1,-235.267,-178.232)">
        <g id="g53">
            <g id="g52">
                <g id="g51">
                    <g id="path21" transform="matrix(1,0,0,-1.00154,868.67,444.13)">
                        <path d="M0,0.373L0,10.132L21.104,10.127L28.799,3.464L36.852,10.127L188.252,10.127L188.252,0.373L0,0.373" style="fill:rgb(204,25,58);fill-rule:nonzero;"/>
                    </g>
                    <g id="path22" transform="matrix(1,0,0,-1.00154,868.67,444.13)">
                        <path d="M145.898,43.416L145.898,84.266C145.898,91.496 142.232,96.717 134.997,99.783C132.796,100.298 131.241,100.511 130.032,100.511C123.623,100.511 118.688,97.228 115.358,90.747C114.502,88.554 114.098,85.931 114.098,82.835L114.187,43.416L102.153,43.416L102.059,85.079C102.059,92.54 98.065,100.511 86.844,100.511C73.461,100.511 70.45,88.984 70.45,84.947L70.45,43.416L58.416,43.416L58.479,83.964C58.479,102.125 68.627,112.541 86.32,112.541C94.352,112.541 101.399,109.343 107.272,103.041L108.187,102.057L109.09,103.053C114.903,109.463 122.112,112.715 130.517,112.715C157.622,112.715 157.933,86.676 157.933,85.569L157.933,43.416L145.898,43.416" style="fill:rgb(42,55,65);fill-rule:nonzero;"/>
                    </g>
                    <g id="path23" transform="matrix(1,0,0,-1.00154,868.67,444.13)">
                        <path d="M176.043,43.416L176.043,84.027L188.235,84.027L188.235,43.416L176.043,43.416" style="fill:rgb(42,55,65);fill-rule:nonzero;"/>
                    </g>
                    <g id="path24" transform="matrix(1,0,0,-1.00154,868.67,444.13)">
                        <path d="M176.064,94.86L176.064,110.412L188.256,110.412L188.256,94.86L176.064,94.86" style="fill:rgb(42,55,65);fill-rule:nonzero;"/>
                    </g>
                    <g id="path25" transform="matrix(1,0,0,-1.00154,868.67,444.13)">
                        <path d="M23.05,14.863L23.05,100.511L0.464,100.511L0.698,112.541L23.05,112.541L23.05,120.44C23.05,129.344 26.359,136.983 32.879,143.146C35.272,144.96 37.95,146.451 40.74,147.493C43.942,148.482 47.676,149.005 51.773,149.031L51.773,136.992C43.946,136.92 38.887,134.037 36.728,128.42C35.638,125.55 35.088,122.867 35.088,120.44L35.088,112.541L58.479,112.541C53.94,108.338 51.424,102.649 50.593,100.511L35.088,100.511L35.088,14.889L28.833,9.864L23.05,14.863" style="fill:rgb(42,55,65);fill-rule:nonzero;"/>
                    </g>
                </g>
            </g>
        </g>
    </g>
</svg>
